<svg width="240" height="79" viewBox="0 0 240 79" fill="none" xmlns="http://www.w3.org/2000/svg">
<g filter="url(#filter0_d_7_222)">
<path d="M122.814 19.4028C122.814 21.7556 122.09 23.7645 120.642 25.4295C119.082 27.1669 117.114 28.0356 114.737 28.0356H90.0036V21.5203H114.737C115.665 21.5203 116.129 20.8145 116.129 19.4028C116.129 17.9912 115.665 17.2853 114.737 17.2853H96.7439C94.3672 17.2853 92.3989 16.4166 90.8392 14.6792C89.3537 13.0504 88.611 11.0596 88.611 8.70687C88.611 6.35412 89.3723 4.32714 90.8949 2.62592C92.4175 0.924706 94.3672 0.0740967 96.7439 0.0740967H121.477V6.5894H96.7439C95.8155 6.5894 95.3513 7.29522 95.3513 8.70687C95.3513 10.0823 95.8155 10.77 96.7439 10.77H114.737C117.114 10.77 119.082 11.6388 120.642 13.3762C122.09 15.0412 122.814 17.0501 122.814 19.4028Z" fill="#003F54"/>
<path d="M195.669 6.5894H171.827V10.77H194.165V17.2853H171.827V28.0356H165.087V0.0740967H195.669V6.5894Z" fill="#003F54"/>
<path d="M236 6.5894H223.076V28.0356H216.392V6.5894H203.468V0.0740967H236V6.5894Z" fill="#003F54"/>
<path d="M117.299 70.355H88.611V42.3935H95.2956V63.8397H117.299V70.355Z" fill="#003F54"/>
<path d="M161.943 70.355H155.258V61.4507H137.656V54.9354H155.258V51.0262C155.258 49.6146 154.776 48.9088 153.81 48.9088H134.87C133.942 48.9088 133.478 49.6146 133.478 51.0262V70.355H126.793V51.0262C126.793 48.6735 127.536 46.6465 129.021 44.9453C130.544 43.2441 132.494 42.3935 134.87 42.3935H153.81C156.224 42.3935 158.174 43.2441 159.659 44.9453C161.182 46.6465 161.943 48.6735 161.943 51.0262V70.355Z" fill="#003F54"/>
<path d="M203.759 56.1842C206.099 57.5958 207.268 59.7495 207.268 62.6452C207.268 64.7446 206.581 66.5182 205.207 67.966C203.722 69.5587 201.716 70.355 199.191 70.355H171.394V42.3935H198.69C201.215 42.3935 203.221 43.1898 204.706 44.7824C206.043 46.2303 206.711 48.0039 206.711 50.1032C206.711 52.7094 205.727 54.7364 203.759 56.1842ZM198.69 53.1437C199.655 53.1437 200.138 52.4379 200.138 51.0262C200.138 49.6146 199.655 48.9088 198.69 48.9088H178.079V53.1437H198.69ZM199.191 63.8397C200.157 63.8397 200.64 63.1338 200.64 61.7222C200.64 60.3105 200.157 59.6047 199.191 59.6047H178.079V63.8397H199.191Z" fill="#003F54"/>
<path d="M143.672 0L156.781 6.90811V20.7243L143.672 27.6325L130.562 20.7243V6.90811L143.672 0Z" fill="#56CCF2"/>
<path d="M219.809 63.4958L223.137 65.2106V68.6402L219.809 70.355L216.481 68.6402V65.2106L219.809 63.4958Z" fill="#56CCF2"/>
<path d="M219.809 42.3306L223.137 44.0453V47.4749L219.809 49.1897L216.481 47.4749V44.0453L219.809 42.3306Z" fill="#56CCF2"/>
<path d="M219.809 52.9132L223.137 54.628V58.0575L219.809 59.7723L216.481 58.0575V54.628L219.809 52.9132Z" fill="#56CCF2"/>
<path d="M73.1787 54.873H60.0227V37.3988H25.3785V24.6129H60.0227V16.9414C60.0227 14.1711 59.0726 12.7859 57.1723 12.7859H19.8969C18.0696 12.7859 17.156 14.1711 17.156 16.9414V54.873H4V16.9414C4 12.3242 5.46178 8.34637 8.38534 5.00782C11.382 1.66928 15.2192 0 19.8969 0H57.1723C61.923 0 65.7602 1.66928 68.6838 5.00782C71.6804 8.34637 73.1787 12.3242 73.1787 16.9414V54.873Z" fill="#003F54"/>
<path d="M15.6735 62.6757H11.0361V70.3415H8.63743V62.6757H4V60.3468H15.6735V62.6757Z" fill="#003F54"/>
<path d="M29.5049 62.6757H20.9297V64.17H28.9453V66.4989H20.9297V68.0127H29.485V70.3415H18.531V60.3468H29.5049V62.6757Z" fill="#003F54"/>
<path d="M43.4699 70.3415H41.0512V66.4989H34.8946V70.3415H32.4959V60.3468H34.8946V64.17H41.0512V60.3468H43.4699V70.3415Z" fill="#003F54"/>
<path d="M57.4348 70.3415H55.0361L48.8596 63.6072V70.3415H46.4609V60.3468H48.8596L55.0361 67.0229V60.3468H57.4348V70.3415Z" fill="#003F54"/>
<path d="M73.1787 67.1781C73.1787 68.0838 72.8523 68.8407 72.1993 69.4488C71.5463 70.0439 70.7534 70.3415 69.8206 70.3415H63.7839C62.8511 70.3415 62.0582 70.0439 61.4053 69.4488C60.7523 68.8407 60.4258 68.0838 60.4258 67.1781V63.5102C60.4258 62.6045 60.7523 61.8541 61.4053 61.2589C62.0582 60.6508 62.8511 60.3468 63.7839 60.3468H69.8206C70.7534 60.3468 71.5463 60.6508 72.1993 61.2589C72.8523 61.8541 73.1787 62.6045 73.1787 63.5102V67.1781ZM70.7801 67.1781V63.5102C70.7801 62.9538 70.4603 62.6757 69.8206 62.6757H63.7839C63.1443 62.6757 62.8245 62.9538 62.8245 63.5102V67.1781C62.8245 67.7345 63.1443 68.0127 63.7839 68.0127H69.8206C70.4603 68.0127 70.7801 67.7345 70.7801 67.1781Z" fill="#003F54"/>
</g>
<defs>
<filter id="filter0_d_7_222" x="0" y="0" width="240" height="78.355" filterUnits="userSpaceOnUse" color-interpolation-filters="sRGB">
<feFlood flood-opacity="0" result="BackgroundImageFix"/>
<feColorMatrix in="SourceAlpha" type="matrix" values="0 0 0 0 0 0 0 0 0 0 0 0 0 0 0 0 0 0 127 0" result="hardAlpha"/>
<feOffset dy="4"/>
<feGaussianBlur stdDeviation="2"/>
<feComposite in2="hardAlpha" operator="out"/>
<feColorMatrix type="matrix" values="0 0 0 0 0 0 0 0 0 0 0 0 0 0 0 0 0 0 0.25 0"/>
<feBlend mode="normal" in2="BackgroundImageFix" result="effect1_dropShadow_7_222"/>
<feBlend mode="normal" in="SourceGraphic" in2="effect1_dropShadow_7_222" result="shape"/>
</filter>
</defs>
</svg>
