<svg width="40" height="40" viewBox="0 0 40 40" fill="none" xmlns="http://www.w3.org/2000/svg">
<g filter="url(#filter0_d_115_7212)">
<path d="M33.4278 23.7123V27.9923C33.4294 28.3896 33.3478 28.7829 33.1883 29.1469C33.0289 29.511 32.795 29.8378 32.5016 30.1064C32.2083 30.375 31.862 30.5795 31.4849 30.7068C31.1078 30.834 30.7082 30.8813 30.3117 30.8456C25.9132 30.3685 21.6882 28.8684 17.9761 26.4657C14.5225 24.2754 11.5944 21.3529 9.39981 17.9058C6.98412 14.184 5.48079 9.94653 5.0116 5.53675C4.97588 5.14224 5.02286 4.74462 5.14954 4.36922C5.27622 3.99381 5.47983 3.64885 5.7474 3.35629C6.01497 3.06373 6.34065 2.82998 6.70369 2.66993C7.06674 2.50988 7.45919 2.42703 7.85608 2.42665H12.1442C12.8379 2.41984 13.5104 2.66502 14.0364 3.11648C14.5624 3.56795 14.9059 4.19491 15.003 4.88049C15.184 6.25017 15.5196 7.59502 16.0036 8.88939C16.1959 9.40002 16.2375 9.95497 16.1235 10.4885C16.0095 11.022 15.7447 11.5117 15.3603 11.8996L13.545 13.7115C15.5798 17.2832 18.5428 20.2405 22.1213 22.2714L23.9366 20.4595C24.3253 20.076 24.8159 19.8116 25.3505 19.6978C25.885 19.5841 26.441 19.6256 26.9526 19.8175C28.2495 20.3005 29.5969 20.6355 30.9692 20.8162C31.6636 20.914 32.2977 21.263 32.751 21.797C33.2043 22.331 33.4452 23.0126 33.4278 23.7123Z" fill="#56CCF2"/>
<path d="M23.4935 6.70661C24.8897 6.97848 26.1728 7.65998 27.1786 8.66388C28.1844 9.66779 28.8672 10.9484 29.1396 12.3419M23.4935 1C26.3942 1.32162 29.099 2.61807 31.164 4.67649C33.2289 6.73491 34.5313 9.43295 34.8571 12.3276M33.4278 23.7123V27.9923C33.4294 28.3896 33.3478 28.7829 33.1883 29.1469C33.0289 29.511 32.795 29.8378 32.5016 30.1064C32.2083 30.375 31.862 30.5795 31.4849 30.7068C31.1078 30.834 30.7082 30.8813 30.3117 30.8456C25.9132 30.3685 21.6882 28.8684 17.9761 26.4657C14.5225 24.2754 11.5944 21.3529 9.39981 17.9058C6.98412 14.184 5.48079 9.94653 5.0116 5.53675C4.97588 5.14224 5.02286 4.74462 5.14954 4.36922C5.27622 3.99381 5.47983 3.64885 5.7474 3.35629C6.01497 3.06373 6.34065 2.82998 6.70369 2.66993C7.06674 2.50988 7.45919 2.42703 7.85608 2.42665H12.1442C12.8379 2.41984 13.5104 2.66502 14.0364 3.11648C14.5624 3.56795 14.9059 4.19491 15.003 4.88049C15.184 6.25017 15.5196 7.59502 16.0036 8.88939C16.1959 9.40002 16.2375 9.95497 16.1235 10.4885C16.0095 11.022 15.7447 11.5117 15.3603 11.8996L13.545 13.7115C15.5798 17.2832 18.5428 20.2405 22.1213 22.2714L23.9366 20.4595C24.3253 20.076 24.8159 19.8116 25.3505 19.6978C25.885 19.5841 26.441 19.6256 26.9526 19.8175C28.2495 20.3005 29.5969 20.6355 30.9692 20.8162C31.6636 20.914 32.2977 21.263 32.751 21.797C33.2043 22.331 33.4452 23.0126 33.4278 23.7123Z" stroke="#56CCF2" stroke-width="1.5" stroke-linecap="round" stroke-linejoin="round"/>
</g>
<defs>
<filter id="filter0_d_115_7212" x="0.25" y="0.25" width="39.3574" height="39.3572" filterUnits="userSpaceOnUse" color-interpolation-filters="sRGB">
<feFlood flood-opacity="0" result="BackgroundImageFix"/>
<feColorMatrix in="SourceAlpha" type="matrix" values="0 0 0 0 0 0 0 0 0 0 0 0 0 0 0 0 0 0 127 0" result="hardAlpha"/>
<feOffset dy="4"/>
<feGaussianBlur stdDeviation="2"/>
<feComposite in2="hardAlpha" operator="out"/>
<feColorMatrix type="matrix" values="0 0 0 0 0 0 0 0 0 0 0 0 0 0 0 0 0 0 0.25 0"/>
<feBlend mode="normal" in2="BackgroundImageFix" result="effect1_dropShadow_115_7212"/>
<feBlend mode="normal" in="SourceGraphic" in2="effect1_dropShadow_115_7212" result="shape"/>
</filter>
</defs>
</svg>
