<svg width="245" height="160" viewBox="0 0 245 160" fill="none" xmlns="http://www.w3.org/2000/svg">
<path d="M115.131 55.4907L117.773 53.5341C117.881 53.4551 118.009 53.4076 118.143 53.3969C118.276 53.3861 118.41 53.4125 118.53 53.4731C118.842 53.6329 119.162 53.7807 119.489 53.9168C120.087 54.1654 120.703 54.3661 121.333 54.5168C121.475 54.5487 121.603 54.6226 121.702 54.7289C121.801 54.8352 121.866 54.9689 121.887 55.1125L122.409 58.5075C122.435 58.6835 122.527 58.8431 122.666 58.9541C122.805 59.0652 122.981 59.1196 123.159 59.1065L126.292 58.9002C126.463 58.8886 126.624 58.8143 126.744 58.6916C126.864 58.5688 126.934 58.4061 126.942 58.2347L127.075 55.0747C127.08 54.9232 127.134 54.7774 127.229 54.6592C127.324 54.541 127.455 54.4568 127.602 54.4192C128.896 54.0632 130.127 53.5043 131.246 52.7633C131.38 52.6765 131.539 52.6363 131.697 52.649C131.856 52.6616 132.007 52.7264 132.125 52.8332L133.546 54.132C133.678 54.2508 133.849 54.3174 134.026 54.3192C134.204 54.321 134.376 54.258 134.511 54.142L136.84 52.0734C136.887 52.0332 136.929 51.9865 136.963 51.9348C137.045 51.8136 137.087 51.6699 137.083 51.5238C137.079 51.3776 137.03 51.2363 136.942 51.1195L135.482 49.1453L135.125 48.665C135.426 48.1543 135.69 47.6228 135.916 47.0745C136.218 46.3425 136.451 45.5839 136.612 44.8085C136.641 44.6676 136.712 44.5389 136.816 44.4398C136.921 44.3406 137.053 44.2758 137.195 44.254L139.93 43.8369C140.11 43.8098 140.273 43.7158 140.387 43.5738C140.501 43.4318 140.557 43.2521 140.544 43.0705L140.387 40.6748L140.34 39.9882C140.329 39.807 140.251 39.6365 140.121 39.5094C139.991 39.3823 139.819 39.3075 139.638 39.2994L136.997 39.1885C136.849 39.1851 136.706 39.1347 136.588 39.0446C136.471 38.9545 136.385 38.8293 136.343 38.6872C136.084 37.8242 135.732 36.9916 135.295 36.2038C135.262 36.1351 135.225 36.0684 135.184 36.0042C135.17 35.9823 135.159 35.9593 135.149 35.9354C135.091 35.8065 135.072 35.6632 135.095 35.5236C135.118 35.384 135.182 35.2544 135.279 35.1512L137.387 32.8409C137.411 32.8156 137.432 32.7881 137.451 32.7588C137.539 32.6261 137.582 32.4682 137.572 32.3091C137.562 32.1501 137.5 31.9987 137.395 31.8781L135.337 29.5489C135.217 29.4131 135.05 29.3273 134.87 29.3084C134.69 29.2895 134.509 29.339 134.363 29.4469L131.607 31.4888C131.494 31.5741 131.357 31.623 131.216 31.6291C131.074 31.6352 130.934 31.5983 130.814 31.5232C130.256 31.1877 129.674 30.8948 129.072 30.647C128.748 30.5124 128.421 30.3934 128.091 30.2899C127.96 30.2475 127.844 30.1697 127.755 30.0652C127.666 29.9606 127.607 29.8333 127.586 29.6976L127.089 26.43C127.063 26.2554 126.972 26.0971 126.834 25.9866C126.697 25.876 126.522 25.8213 126.346 25.8333L123.247 26.0418C123.065 26.0532 122.894 26.1316 122.767 26.2619C122.639 26.3922 122.565 26.5652 122.557 26.7473L122.446 29.2473C122.44 29.4093 122.379 29.5644 122.274 29.6878C122.169 29.8113 122.025 29.8959 121.866 29.9283C120.582 30.1794 119.343 30.6284 118.196 31.2592C118.064 31.3336 117.911 31.3642 117.761 31.3467C117.61 31.3291 117.468 31.2644 117.357 31.1616L115.274 29.2706C115.139 29.1478 114.963 29.0791 114.78 29.0777C114.598 29.0763 114.421 29.1422 114.284 29.2628L111.963 31.3125C111.829 31.4302 111.744 31.5943 111.725 31.7719C111.706 31.9495 111.755 32.1276 111.862 32.2708L111.946 32.3817L113.643 34.6743C113.732 34.7934 113.781 34.9367 113.786 35.085C113.791 35.2332 113.75 35.3794 113.67 35.5039C113.269 36.1325 112.924 36.7954 112.641 37.4849C112.486 37.8597 112.354 38.2358 112.236 38.6173C112.198 38.7474 112.123 38.864 112.021 38.9534C111.919 39.0428 111.794 39.1013 111.66 39.122L108.887 39.5445C108.704 39.5719 108.539 39.6669 108.423 39.8107C108.307 39.9545 108.249 40.1366 108.261 40.3209L108.467 43.4077C108.474 43.4925 108.494 43.5756 108.528 43.6539C108.584 43.7763 108.672 43.8812 108.783 43.957C108.894 44.0329 109.024 44.0769 109.158 44.0843L111.265 44.1697C111.391 44.1763 111.514 44.2154 111.62 44.2832C111.727 44.3511 111.815 44.4453 111.874 44.5567C111.905 44.6173 111.928 44.6814 111.943 44.7475C112.273 46.3948 112.928 47.9597 113.871 49.3505C113.948 49.4646 113.99 49.5989 113.992 49.7368C113.995 49.8748 113.957 50.0103 113.883 50.1269C113.861 50.161 113.836 50.1933 113.808 50.2234L112.104 52.0934C111.984 52.2246 111.918 52.3951 111.916 52.5725C111.914 52.7498 111.978 52.9216 112.095 53.055L112.143 53.1093L114.147 55.382C114.268 55.5195 114.436 55.6069 114.618 55.627C114.8 55.6471 114.983 55.5985 115.131 55.4907ZM128.551 36.9824C128.964 37.3073 129.345 37.6697 129.691 38.0649C130.379 38.8524 131.012 40.3586 131.082 41.4035C131.09 41.5144 131.094 41.6253 131.1 41.7362C131.312 48.472 123.474 51.6553 118.922 46.5565C118.328 45.891 117.785 44.7309 117.565 43.7293C117.518 43.5123 117.487 43.2921 117.472 43.0705C117.412 42.1823 117.503 41.2902 117.744 40.433C119.062 35.8478 124.578 33.899 128.552 36.9824H128.551Z" fill="#003F54"/>
<path d="M136.184 22.9662L138.452 21.7373C138.545 21.6879 138.65 21.6652 138.755 21.6716C138.861 21.6781 138.962 21.7135 139.048 21.7739C139.27 21.9314 139.504 22.0811 139.744 22.2175C140.18 22.4751 140.637 22.6976 141.109 22.883C141.215 22.9234 141.306 22.9951 141.371 23.0886C141.436 23.1821 141.47 23.2929 141.47 23.4065L141.502 26.1018C141.503 26.2412 141.557 26.375 141.652 26.4766C141.748 26.5781 141.878 26.6399 142.017 26.6497L144.475 26.8349C144.609 26.8449 144.742 26.8052 144.849 26.7233C144.955 26.6415 145.028 26.5233 145.053 26.3912L145.506 23.9511C145.527 23.8342 145.585 23.7273 145.672 23.646C145.758 23.5648 145.869 23.5135 145.987 23.4997C147.032 23.3653 148.05 23.0658 149.002 22.6124C149.115 22.56 149.243 22.5465 149.365 22.5739C149.486 22.6014 149.596 22.6683 149.676 22.7644L150.636 23.9467C150.727 24.053 150.852 24.1229 150.99 24.1433C151.128 24.1637 151.269 24.1333 151.386 24.0576L153.427 22.7078C153.469 22.6825 153.506 22.6507 153.538 22.6135C153.614 22.5282 153.663 22.4213 153.676 22.3075C153.689 22.1937 153.667 22.0786 153.612 21.978L152.696 20.2865L152.474 19.8739C152.765 19.5104 153.029 19.1268 153.265 18.726C153.58 18.1902 153.845 17.6266 154.056 17.0423C154.094 16.9363 154.163 16.8444 154.255 16.7788C154.346 16.7133 154.456 16.6771 154.568 16.6752L156.74 16.653C156.883 16.6514 157.02 16.5963 157.124 16.4985C157.228 16.4008 157.292 16.2675 157.302 16.125L157.444 14.2461L157.483 13.7082C157.495 13.5662 157.453 13.425 157.366 13.3119C157.28 13.1988 157.154 13.1219 157.014 13.096L154.975 12.7155C154.86 12.6968 154.755 12.6418 154.673 12.5586C154.592 12.4754 154.539 12.3683 154.523 12.253C154.416 11.5544 154.235 10.8691 153.983 10.2089C153.965 10.149 153.943 10.0979 153.921 10.0414C153.912 10.0233 153.906 10.0043 153.902 9.98482C153.871 9.87822 153.872 9.76482 153.905 9.65886C153.938 9.55289 154.002 9.45908 154.088 9.38921L155.974 7.82643C155.995 7.80989 156.015 7.79091 156.032 7.76986C156.116 7.67662 156.166 7.55858 156.176 7.43392C156.185 7.30926 156.154 7.18489 156.086 7.07997L154.744 5.04359C154.666 4.92471 154.546 4.83945 154.408 4.80473C154.27 4.77001 154.124 4.78836 153.999 4.85615L151.635 6.13942C151.537 6.19276 151.425 6.21547 151.315 6.20459C151.204 6.19371 151.099 6.14975 151.014 6.07842C150.618 5.75564 150.198 5.46382 149.758 5.20552C149.521 5.06577 149.279 4.93711 149.035 4.81954C148.938 4.77236 148.856 4.69911 148.798 4.60801C148.741 4.51691 148.71 4.41157 148.709 4.30379L148.679 1.71284C148.677 1.57431 148.623 1.44148 148.529 1.34049C148.434 1.2395 148.304 1.17766 148.166 1.16714L145.737 0.987459C145.595 0.976285 145.453 1.01826 145.34 1.10529C145.226 1.19233 145.149 1.31826 145.123 1.45884L144.765 3.38986C144.741 3.51485 144.677 3.62849 144.582 3.71269C144.486 3.7969 144.366 3.84684 144.239 3.85459C143.214 3.90852 142.204 4.12065 141.244 4.48347C141.133 4.52682 141.011 4.53385 140.896 4.50357C140.78 4.47328 140.678 4.40722 140.602 4.31488L139.195 2.61235C139.103 2.50195 138.975 2.42904 138.833 2.40756C138.691 2.38607 138.547 2.41752 138.427 2.49589L136.397 3.83241C136.279 3.9087 136.195 4.02694 136.16 4.16323C136.126 4.29953 136.145 4.44372 136.213 4.56666L136.265 4.66648L137.331 6.63521C137.387 6.73733 137.41 6.85405 137.397 6.96967C137.384 7.08528 137.337 7.19423 137.26 7.28184C136.879 7.72601 136.539 8.20295 136.242 8.70709C136.08 8.98104 135.937 9.26166 135.798 9.54338C135.754 9.63993 135.683 9.72191 135.594 9.77982C135.505 9.83773 135.401 9.8692 135.295 9.87057L133.091 9.89276C132.946 9.894 132.807 9.94962 132.701 10.0486C132.595 10.1476 132.53 10.2828 132.519 10.4274L132.338 12.8486C132.334 12.9155 132.341 12.9826 132.359 13.0472C132.389 13.1487 132.446 13.2402 132.524 13.3114C132.602 13.3826 132.699 13.4309 132.803 13.4509L134.432 13.7492C134.529 13.7683 134.62 13.8123 134.695 13.8768C134.771 13.9413 134.828 14.0242 134.862 14.1175C134.88 14.1676 134.891 14.2198 134.894 14.2728C134.969 15.5891 135.306 16.8772 135.885 18.0616C135.933 18.1592 135.952 18.2689 135.938 18.377C135.924 18.4851 135.879 18.5868 135.808 18.6694C135.787 18.6936 135.764 18.7162 135.74 18.7371L134.209 20.0015C134.102 20.0906 134.032 20.2159 134.011 20.3536C133.991 20.4912 134.022 20.6316 134.098 20.7479L134.129 20.7956L135.435 22.781C135.514 22.8991 135.635 22.9834 135.774 23.0176C135.912 23.0518 136.059 23.0335 136.184 22.9662ZM148.653 10.0691C148.938 10.3669 149.195 10.6903 149.421 11.0352C149.864 11.724 150.197 12.9629 150.132 13.7825C150.132 13.8701 150.117 13.9567 150.11 14.0432C149.531 19.2994 143.09 20.9065 140.116 16.4445C139.729 15.8599 139.435 14.9005 139.375 14.0975C139.362 13.9236 139.362 13.749 139.375 13.5751C139.426 12.8784 139.596 12.1957 139.878 11.5565C141.408 8.14032 145.908 7.23526 148.654 10.0691H148.653Z" fill="#003F54"/>
<path d="M154.856 67.5582L159.076 64.5413C159.25 64.4196 159.453 64.3481 159.665 64.3348C159.876 64.3215 160.088 64.3669 160.275 64.4659C160.761 64.7254 161.261 64.9661 161.777 65.1879C162.714 65.5965 163.682 65.9302 164.672 66.1862C164.893 66.2412 165.093 66.3616 165.245 66.5317C165.397 66.7018 165.495 66.9138 165.525 67.14L166.259 72.5149C166.295 72.7941 166.435 73.0492 166.652 73.2286C166.869 73.408 167.146 73.4982 167.427 73.481L172.38 73.237C172.65 73.2231 172.905 73.1104 173.098 72.9204C173.29 72.7304 173.406 72.4763 173.423 72.2066L173.718 67.221C173.73 66.9821 173.819 66.7536 173.972 66.5695C174.125 66.3854 174.333 66.2556 174.565 66.1995C176.619 65.6712 178.576 64.8211 180.364 63.6806C180.577 63.5473 180.829 63.4881 181.079 63.5124C181.33 63.5367 181.565 63.643 181.749 63.8148L183.957 65.9022C184.163 66.0935 184.431 66.2032 184.712 66.2107C184.992 66.2183 185.266 66.1232 185.481 65.9433L189.22 62.7389C189.297 62.6754 189.364 62.6006 189.419 62.5171C189.551 62.3279 189.621 62.1021 189.619 61.8713C189.616 61.6405 189.542 61.4161 189.407 61.2294L187.154 58.0739L186.599 57.3053C187.088 56.5069 187.52 55.6748 187.89 54.8152C188.386 53.6676 188.774 52.4764 189.049 51.2571C189.098 51.0352 189.213 50.8336 189.38 50.6795C189.547 50.5254 189.757 50.4262 189.982 50.3953L194.308 49.8086C194.593 49.7705 194.854 49.6265 195.038 49.4053C195.222 49.184 195.316 48.9015 195.302 48.614L195.116 44.8263L195.06 43.7416C195.047 43.4547 194.929 43.1826 194.728 42.9778C194.526 42.773 194.256 42.65 193.97 42.6324L189.804 42.3829C189.57 42.3728 189.345 42.289 189.162 42.1436C188.979 41.9982 188.846 41.7985 188.783 41.5732C188.396 40.204 187.863 38.8803 187.194 37.6246C187.144 37.5158 187.089 37.4096 187.029 37.3063C187.008 37.2711 186.99 37.2339 186.976 37.1954C186.888 36.9905 186.861 36.7639 186.901 36.5441C186.94 36.3243 187.044 36.121 187.198 35.9598L190.588 32.3762C190.627 32.3371 190.661 32.2944 190.692 32.2486C190.835 32.0415 190.905 31.7933 190.893 31.5422C190.882 31.291 190.788 31.0507 190.627 30.8578L187.438 27.1255C187.252 26.908 186.991 26.768 186.707 26.7334C186.423 26.6987 186.136 26.7717 185.903 26.9381L181.502 30.0914C181.32 30.2228 181.103 30.2962 180.879 30.3019C180.656 30.3076 180.435 30.2454 180.247 30.1235C179.376 29.5787 178.465 29.1008 177.521 28.6938C177.012 28.472 176.498 28.2753 175.982 28.1038C175.777 28.0336 175.596 27.9078 175.459 27.7405C175.322 27.5732 175.234 27.371 175.205 27.1566L174.497 21.9902C174.461 21.7138 174.321 21.4615 174.107 21.2833C173.893 21.1051 173.619 21.0141 173.341 21.0286L168.44 21.277C168.153 21.2902 167.881 21.4094 167.676 21.6115C167.471 21.8137 167.348 22.0845 167.331 22.3717L167.097 26.3169C167.083 26.5724 166.983 26.8156 166.814 27.0078C166.645 27.2 166.417 27.3301 166.166 27.3773C164.128 27.739 162.16 28.4151 160.33 29.3815C160.119 29.4953 159.877 29.5395 159.64 29.5079C159.402 29.4762 159.18 29.3703 159.006 29.2051L155.771 26.155C155.56 25.9583 155.285 25.8458 154.997 25.8386C154.709 25.8315 154.428 25.9302 154.208 26.1162L150.492 29.2894C150.277 29.4725 150.139 29.7298 150.105 30.0101C150.071 30.2905 150.144 30.5733 150.309 30.8023L150.439 30.9875L153.058 34.6477C153.194 34.8381 153.27 35.0656 153.273 35.2999C153.277 35.5342 153.209 35.7641 153.079 35.9587C152.429 36.9422 151.868 37.9815 151.403 39.0643C151.149 39.651 150.932 40.2422 150.737 40.8389C150.673 41.0426 150.552 41.2238 150.389 41.3613C150.225 41.4988 150.026 41.5869 149.815 41.6153L145.419 42.2109C145.13 42.2498 144.866 42.3958 144.679 42.62C144.492 42.8443 144.396 43.1305 144.41 43.4221L144.654 48.3024C144.663 48.4365 144.694 48.5683 144.745 48.6928C144.829 48.8877 144.965 49.0557 145.138 49.1784C145.312 49.3011 145.516 49.3736 145.727 49.3882L149.055 49.579C149.254 49.5926 149.446 49.6573 149.612 49.7669C149.779 49.8765 149.914 50.0273 150.005 50.2045C150.053 50.301 150.087 50.4031 150.109 50.5084C150.586 53.119 151.581 55.6079 153.033 57.8288C153.154 58.0117 153.218 58.2259 153.218 58.4449C153.218 58.6639 153.154 58.8781 153.033 59.061C152.998 59.1152 152.957 59.166 152.912 59.213L150.16 62.1289C149.968 62.333 149.858 62.6007 149.851 62.8807C149.843 63.1608 149.94 63.4337 150.121 63.6473L150.195 63.735L153.301 67.3752C153.49 67.5943 153.755 67.7347 154.043 67.7685C154.33 67.8024 154.62 67.7274 154.856 67.5582ZM176.533 38.6883C177.177 39.2115 177.771 39.7938 178.307 40.4274C179.372 41.6885 180.332 44.0876 180.415 45.7347C180.425 45.9122 180.43 46.0863 180.435 46.2615C180.593 56.9015 168.133 61.7208 161.08 53.5519C160.16 52.4827 159.332 50.6393 159.012 49.0521C158.943 48.7082 158.9 48.3598 158.882 48.0095C158.81 46.6052 158.979 45.1989 159.381 43.8514C161.584 36.6475 170.339 33.716 176.533 38.6883Z" fill="#003F54"/>
<path d="M114.404 84.0932L108.456 154.789C108.456 154.789 107.833 159.075 111.021 159.082C116.262 159.095 137.108 159.082 137.108 159.082C137.108 159.082 133.163 158.195 133.211 156.183C133.267 153.817 140.16 83.4233 140.16 83.4233L114.404 84.0932Z" fill="#759BE0"/>
<path d="M138.802 157.799C137.77 157.799 117.86 157.865 112.756 157.799C110.538 157.771 110.142 155.821 110.124 154.559C110.117 154.208 110.139 153.856 110.19 153.508L110.346 151.67L110.739 146.986L111.088 142.849L111.531 137.532L111.909 133.044L116.133 82.81L141.892 82.1445C141.892 82.1445 138.988 111.604 136.935 133.047C136.706 135.437 136.492 137.728 136.286 139.866C136.221 140.549 136.157 141.214 136.097 141.863C135.906 143.892 135.732 145.755 135.581 147.4C135.501 148.267 135.427 149.072 135.359 149.811C135.097 152.703 134.944 154.549 134.942 154.901C134.94 155.093 134.957 155.284 134.992 155.473C135.419 157.726 138.415 157.799 138.802 157.799Z" fill="#AEC3FF"/>
<path d="M51.8485 45.6227L66.3317 103.797L68.3137 111.764L75.0595 138.86H200.377L175.515 45.6227H51.8485Z" fill="#AEC3FF"/>
<path d="M51.8486 45.6227L49.8411 46.2926L72.391 140.884L75.0596 138.86L51.8486 45.6227Z" fill="#759BE0"/>
<path d="M72.391 140.884H196.938L200.377 138.86H75.0596L72.391 140.884Z" fill="#759BE0"/>
<path d="M116.128 159.109H143.094V157.828H116.128V159.109Z" fill="#AEC3FF"/>
<path opacity="0.7" d="M136.239 140.884L136.1 141.863L110.74 146.986L111.088 142.849L111.253 140.884H136.239Z" fill="#759BE0"/>
<path d="M138.802 157.799C137.77 157.799 117.86 157.865 112.756 157.799C110.538 157.771 110.142 155.821 110.124 154.559L135.364 149.811C135.102 152.703 134.949 154.549 134.946 154.901C134.945 155.093 134.962 155.284 134.996 155.473C135.419 157.726 138.415 157.799 138.802 157.799Z" fill="#94B0ED"/>
<path d="M130.11 119.985L75.0595 138.86L68.3137 111.764L130.11 119.985Z" fill="#94B0ED"/>
<path d="M51.8485 45.6227H175.514L195.428 120.556H70.5098L51.8485 45.6227Z" fill="#D2E0FF"/>
<path opacity="0.5" d="M56.8329 48.2846L74.5969 116.545H189.439L171.478 49.071L56.8329 48.2846Z" fill="#AEC3FF"/>
<path d="M141.842 89.1343H98.4036V116.542H141.842V89.1343Z" fill="#2F539B"/>
<path d="M163.56 89.1354H120.123V116.542H163.56V89.1354Z" fill="#56CCF2"/>
<path d="M120.123 93.1838L110.967 102.34H98.4293V89.1343H120.123V93.1838Z" fill="#2C3A64"/>
<path d="M98.4036 89.1343L88.6376 98.5587H110.37L120.123 89.1343H98.4036Z" fill="#56CCF2"/>
<path d="M163.561 90.1059L120.123 89.1343V92.607V93.1749L128.2 102.03H163.561V93.2148L163.337 92.952H163.561V90.1059Z" fill="#2F539B"/>
<path d="M120.123 89.1343L128.718 98.5587H171.581L163.561 89.1343H120.123Z" fill="#56CCF2"/>
<path d="M44.4305 85.666C44.4305 85.666 44.7322 82.3752 41.0543 82.3752C41.0543 82.3752 42.1689 82.6769 42.7446 83.2814C42.7446 83.2814 40.3999 81.9049 37.8466 84.02C35.2934 86.1352 36.8806 91.4435 36.1042 92.4495C35.3278 93.4555 32.3054 93.6585 32.6747 96.9171C33.044 100.176 42.2677 104.255 41.6754 106.95C41.6754 106.95 45.2912 101.637 42.7058 99.212C42.7058 99.212 43.9658 100.399 44.0944 101.81C44.0944 101.81 44.436 99.0556 42.6836 98.1738C41.1308 97.3974 39.8619 94.5436 39.9961 94.0345C40.1304 93.5254 44.4305 85.666 44.4305 85.666Z" fill="#2C3A64"/>
<path d="M40.8092 101.476C40.8092 101.476 43.5566 112.841 46.254 115.118C47.8756 116.484 52.6948 119.618 52.6948 119.618L50.6906 120.331C50.6906 120.331 44.0047 118.074 42.5084 116.314C41.0122 114.554 36.9161 105.74 36.9161 105.74L40.8092 101.476Z" fill="#FFB19C"/>
<path d="M56.6233 123.763L55.9778 122.163C55.6399 121.326 55.0597 120.609 54.3116 120.103C53.5634 119.598 52.6814 119.327 51.7786 119.326H39.8619V159.144H89.1322V126.884H61.2517C60.2571 126.884 59.285 126.587 58.4604 126.031C57.6357 125.475 56.996 124.685 56.6233 123.763Z" fill="#56CCF2"/>
<path d="M47.2944 143.543V140.673L57.3632 136.263V139.195L50.3368 142.087L57.3688 144.978V147.949L47.2944 143.543Z" fill="white"/>
<path d="M67.8257 132.83H70.5098L61.294 152.094H58.611L67.8257 132.83Z" fill="white"/>
<path d="M81.701 140.673V143.543L71.6322 147.949V145.021L78.6642 142.129L71.6322 139.238V136.263L81.701 140.673Z" fill="white"/>
<path d="M14.9873 121.44L15.0628 121.574C15.665 122.619 17.0437 125.179 18.5632 127.982C19.2808 129.313 20.0339 130.695 20.7471 131.997C21.9771 134.244 23.0963 136.246 23.7485 137.303C24.4139 138.379 24.9009 139.134 25.0994 139.437C25.1543 139.531 25.1769 139.641 25.1637 139.749C25.097 140.688 25.1115 141.631 25.207 142.567C26.1231 151.683 32.2711 156.569 32.2711 156.569L34.0979 156.839C34.0979 156.839 31.5113 147.257 30.7494 141.838C30.6218 140.921 30.5652 140.175 30.6096 139.691C30.7449 138.279 30.4987 136.207 30.0207 133.828C29.1766 129.601 27.6282 124.412 26.2828 120.258C26.1974 119.993 23.6264 110.695 23.6264 110.695C21.4703 112.58 13.6009 113.357 13.6009 113.357C13.6009 113.357 12.2677 116.601 14.9873 121.44Z" fill="#2F539B"/>
<path d="M37.9353 159.151H30.3066C30.3066 159.151 30.1247 157.989 30.5284 157.107C30.91 156.261 31.4546 156.233 30.5972 154.906C31.0819 155.406 32.6403 155.612 33.7438 155.461C33.8781 155.683 34.6145 157.149 35.0659 157.473C35.5584 157.833 37.7822 157.709 37.9353 159.151Z" fill="#2C3A64"/>
<path d="M14.9872 121.44L15.0626 121.574C15.6649 122.619 18.9158 128.624 20.4353 131.426C18.6751 124.184 19.8985 116.943 19.8985 116.943L14.9872 121.44Z" fill="#233862"/>
<path d="M43.3903 85.2035C43.4391 85.0027 39.0325 87.2 38.8095 87.4429C36.7432 89.7354 37.3321 92.7268 38.5145 92.7556C39.2731 92.7745 39.1256 94.0356 39.1256 94.0356L47.5751 90.4608C47.5751 90.4608 46.558 84.5291 43.3903 85.2035Z" fill="#2C3A64"/>
<path d="M40.5507 99.7632C40.5507 99.7632 41.8362 102.331 41.6753 104.422C41.6753 104.422 40.1225 106.868 36.1041 107.488C36.1041 107.483 39.5613 99.761 40.5507 99.7632Z" fill="#AEC3FF"/>
<path d="M20.9345 113.926L20.9601 112.498C18.1173 112.858 11.1586 109.102 11.1586 109.102C11.1586 109.102 8.18495 111.08 7.7779 116.729C7.57936 119.486 6.3227 131.147 6.18295 134.627C6.13304 135.889 6.1164 136.79 6.10975 137.149C6.10263 137.258 6.06017 137.361 5.98885 137.443C5.40756 138.184 4.89206 138.974 4.44825 139.804C0.110398 147.874 2.37859 158.841 2.37859 158.841L3.38681 158.584C3.38681 158.584 7.05363 147.217 9.45048 142.299C9.85754 141.465 10.2269 140.817 10.5363 140.441C11.4381 139.346 12.3886 137.487 13.3247 135.25C15.0971 131.023 20.9345 113.926 20.9345 113.926Z" fill="#2F539B"/>
<path d="M8.44666 159.151H0.817983C0.817983 159.151 0.634974 157.989 1.03316 157.107C1.41581 156.261 2.01364 155.876 1.87056 154.851C2.35525 155.35 3.14496 155.909 4.24745 155.762C4.38276 155.983 5.12034 157.152 5.57176 157.476C6.06977 157.833 8.29249 157.709 8.44666 159.151Z" fill="#2C3A64"/>
<path d="M35.5852 109.121C34.5603 109.295 35.7527 110.11 34.3429 110.263C32.3365 110.485 30.2657 110.632 29.181 111.064C28.785 111.223 28.5211 111.417 28.4379 111.667C27.9676 113.081 24.9895 115.511 24.9895 115.511C11.7109 114.905 10.8513 108.986 10.8513 108.986C19.4727 100.613 26.8063 96.0498 32.8678 95.4841C34.3429 95.3466 36.3316 95.5318 37.2644 95.9466C39.384 96.8905 40.5464 99.7632 40.5464 99.7632C40.5464 99.7632 39.4827 108.457 35.5852 109.121Z" fill="#AEC3FF"/>
<path d="M34.3475 110.263C32.3411 110.485 30.2703 110.632 29.1856 111.064C28.7419 104.44 31.8686 99.4571 31.8686 99.4571C31.8686 99.4571 33.9083 107.757 34.3475 110.263Z" fill="#2F539B"/>
<path d="M36.0778 98.3357C36.0778 98.3357 31.0334 98.0596 30.1372 101.227C29.241 104.395 31.8142 117.035 32.3743 118.335C33.3859 120.71 38.3094 127.49 38.3094 127.49L40.1206 126.935C40.1206 126.935 36.8375 116.578 36.1044 115.553C34.9542 113.952 37.5873 99.7133 36.0778 98.3357Z" fill="#FFB19C"/>
<path d="M40.1204 126.943C40.1204 126.943 40.2135 127.746 40.5529 128.163C40.8923 128.58 41.8839 129.581 41.8961 130.168C41.8961 130.168 41.8462 130.429 41.6354 130.381C41.4247 130.333 40.6882 129.605 40.3111 129.658C40.3111 129.658 40.5119 130.835 40.7115 131.166C40.9112 131.498 40.7526 132.903 40.6328 133.189C40.513 133.476 39.0412 131.653 38.4367 130.84C37.8322 130.027 38.4267 126.725 38.4267 126.725L40.1204 126.943Z" fill="#FFB19C"/>
<path d="M29.1422 105.462C29.1555 105.536 33.9115 106.337 36.8929 104.826C36.8929 104.826 39.3807 97.0347 35.8259 97.4074C32.2711 97.7801 30.1693 98.8992 30.0772 100.602C29.9852 102.304 29.1422 105.462 29.1422 105.462Z" fill="#AEC3FF"/>
<path d="M37.1557 96.4935C37.5339 97.6813 38.7984 101.065 40.5508 99.7632C40.4909 99.5103 40.8591 98.7761 41.2928 98.0296C41.8474 97.0769 42.5129 96.1019 42.5129 96.1019L39.6535 93.6008L39.4827 93.4522C38.7362 94.7554 38.002 95.3832 37.3587 95.8624C37.2633 95.9333 37.1924 96.0322 37.156 96.1454C37.1196 96.2585 37.1195 96.3802 37.1557 96.4935Z" fill="#FFB19C"/>
<path d="M42.5084 96.103C42.5084 96.103 41.8485 97.0758 41.2883 98.0296C39.5137 96.936 39.5137 94.7388 39.649 93.6008L42.5084 96.103Z" fill="#FF9989"/>
<path d="M42.5871 97.3564C42.5871 97.3564 38.2781 94.9595 39.8143 92.2987C41.3505 89.6379 41.8252 87.5383 44.6413 88.9557C47.4574 90.3732 47.4008 91.6953 47.1047 92.708C46.8085 93.7206 43.7473 97.9121 42.5871 97.3564Z" fill="#FFB19C"/>
<path d="M47.8323 91.1607C47.6349 89.9794 47.0349 89.8663 46.6123 89.9406C45.0207 87.3097 42.4208 88.3368 42.4208 88.3368C41.5599 89.3898 40.3597 90.1109 39.0258 90.3765C39.0258 90.3765 39.5249 91.306 41.5857 91.8827C42.2145 92.058 42.9288 91.9515 43.6176 91.7197C42.6993 92.219 41.7171 92.5907 40.6983 92.8244C43.4124 93.0728 45.9956 90.5906 46.264 90.3255C46.3894 90.7104 46.609 91.5156 46.477 92.1001C46.2984 92.9009 45.5897 94.3495 46.0222 94.5402C46.0222 94.538 48.1285 92.9275 47.8323 91.1607Z" fill="#2C3A64"/>
<path d="M53.4833 119.614C53.4833 119.614 52.281 120.515 53.1872 121.105C54.0934 121.695 55.7116 121.854 55.7183 121.467C55.7405 120.169 55.0927 119.245 53.4833 119.614Z" fill="#FFB19C"/>
<path d="M244.738 158.915H0.262402C0.117482 158.915 0 159.127 0 159.388V159.488C0 159.75 0.117482 159.962 0.262402 159.962H244.738C244.883 159.962 245 159.75 245 159.488V159.388C245 159.127 244.883 158.915 244.738 158.915Z" fill="#2F539B"/>
<path d="M70.8871 70.1159C70.7462 69.538 70.998 69.0855 71.5348 69.0844C72.0716 69.0832 72.533 69.528 72.675 70.1125C72.817 70.697 72.5641 71.1429 72.0273 71.144C71.4904 71.1451 71.0279 70.6993 70.8871 70.1159ZM72.218 70.1159C72.1304 69.7543 71.8853 69.4814 71.6213 69.4825C71.3573 69.4836 71.2475 69.7476 71.3374 70.117C71.4272 70.4863 71.6701 70.7514 71.9341 70.7503C72.1981 70.7492 72.3101 70.4808 72.2214 70.1136L72.218 70.1159Z" fill="#2F539B"/>
<path d="M63.1539 55.1513L62.8212 55.2367L62.6415 54.8784L63.1783 54.7065H63.4811L63.9658 56.7118H63.5354L63.1539 55.1513Z" fill="#94B0ED"/>
<path d="M64.7234 55.7147C64.5837 55.1369 64.8344 54.6843 65.3712 54.6832C65.908 54.6821 66.3694 55.1269 66.5125 55.7114C66.6556 56.2959 66.4016 56.7418 65.8648 56.7429C65.3279 56.744 64.8665 56.2981 64.7234 55.7147ZM66.0544 55.7147C65.9668 55.3532 65.7217 55.0803 65.4577 55.0814C65.1937 55.0825 65.085 55.3465 65.1749 55.7158C65.2647 56.0852 65.5076 56.3503 65.7716 56.3492C66.0356 56.3481 66.1465 56.0796 66.0577 55.7125L66.0544 55.7147Z" fill="#94B0ED"/>
<path d="M99.9654 55.0836L99.6327 55.1701L99.4541 54.8119L99.9909 54.64H100.293L100.778 56.6464H100.341L99.9654 55.0836Z" fill="#94B0ED"/>
<path d="M101.535 55.6471C101.395 55.0703 101.646 54.6167 102.183 54.6167C102.719 54.6167 103.181 55.0604 103.323 55.6449C103.465 56.2294 103.212 56.6753 102.675 56.6764C102.138 56.6775 101.676 56.2305 101.535 55.6471ZM102.866 55.6471C102.778 55.2866 102.533 55.0138 102.269 55.0138C102.005 55.0138 101.896 55.2789 101.985 55.6493C102.074 56.0198 102.318 56.2826 102.582 56.2826C102.846 56.2826 102.958 56.012 102.869 55.6449L102.866 55.6471Z" fill="#94B0ED"/>
<path d="M104.209 55.6426C104.069 55.0659 104.32 54.6122 104.857 54.6122C105.393 54.6122 105.855 55.0559 105.998 55.6404C106.141 56.2249 105.887 56.6708 105.35 56.6708C104.813 56.6708 104.352 56.2227 104.209 55.6426ZM105.54 55.6426C105.452 55.2822 105.207 55.0093 104.943 55.0093C104.679 55.0093 104.571 55.2744 104.66 55.6449C104.75 56.0153 104.993 56.2782 105.257 56.2782C105.521 56.2782 105.632 56.0075 105.543 55.6404L105.54 55.6426Z" fill="#94B0ED"/>
<path d="M117.883 55.6471C117.744 55.0703 117.994 54.6167 118.532 54.6167C119.07 54.6167 119.531 55.0604 119.673 55.6449C119.814 56.2294 119.562 56.6753 119.025 56.6764C118.488 56.6775 118.03 56.2305 117.883 55.6471ZM119.214 55.6471C119.127 55.2866 118.882 55.0138 118.618 55.0138C118.354 55.0138 118.244 55.2789 118.334 55.6493C118.424 56.0198 118.667 56.2826 118.93 56.2826C119.194 56.2826 119.312 56.012 119.223 55.6449L119.214 55.6471Z" fill="#94B0ED"/>
<path d="M120.563 55.6426C120.424 55.0659 120.674 54.6122 121.211 54.6122C121.748 54.6122 122.209 55.0559 122.352 55.6404C122.496 56.2249 122.242 56.6708 121.704 56.6708C121.166 56.6708 120.704 56.2227 120.563 55.6426ZM121.894 55.6426C121.807 55.2822 121.562 55.0093 121.298 55.0093C121.034 55.0093 120.925 55.2744 121.015 55.6449C121.105 56.0153 121.348 56.2782 121.61 56.2782C121.873 56.2782 121.988 56.0075 121.898 55.6404L121.894 55.6426Z" fill="#94B0ED"/>
<path d="M123.237 55.6382C123.098 55.0614 123.348 54.6078 123.886 54.6078C124.424 54.6078 124.884 55.0515 125.026 55.636C125.168 56.2205 124.915 56.6664 124.379 56.6664C123.842 56.6664 123.379 56.2227 123.237 55.6382ZM124.568 55.6382C124.481 55.2777 124.236 55.0049 123.972 55.0049C123.708 55.0049 123.598 55.27 123.688 55.6404C123.777 56.0109 124.02 56.2737 124.284 56.2737C124.548 56.2737 124.661 56.0009 124.573 55.636L124.568 55.6382Z" fill="#94B0ED"/>
<path d="M141.833 55.5927C141.693 55.016 141.944 54.5623 142.481 54.5623C143.018 54.5623 143.479 55.006 143.621 55.5905C143.763 56.175 143.51 56.6209 142.973 56.6209C142.437 56.6209 141.974 56.1761 141.833 55.5927ZM143.164 55.5927C143.077 55.2323 142.831 54.9594 142.567 54.9594C142.303 54.9594 142.194 55.2245 142.283 55.595C142.373 55.9654 142.616 56.2283 142.88 56.2283C143.144 56.2283 143.256 55.9576 143.172 55.5905L143.164 55.5927Z" fill="#94B0ED"/>
<path d="M144.392 55.5883C144.252 55.0116 144.503 54.5579 145.041 54.5579C145.579 54.5579 146.039 55.0016 146.181 55.5861C146.323 56.1706 146.07 56.6165 145.533 56.6176C144.997 56.6187 144.534 56.1717 144.392 55.5883ZM145.723 55.5883C145.635 55.2278 145.39 54.955 145.126 54.955C144.862 54.955 144.752 55.2201 144.842 55.5905C144.932 55.961 145.175 56.2238 145.439 56.2238C145.703 56.2238 145.816 55.9532 145.723 55.5861V55.5883Z" fill="#94B0ED"/>
<path d="M147.177 55.5839C147.036 55.0071 147.288 54.5535 147.825 54.5524C148.362 54.5513 148.823 54.996 148.965 55.5817C149.107 56.1673 148.854 56.6109 148.317 56.612C147.78 56.6132 147.318 56.1673 147.177 55.5839ZM148.508 55.5839C148.42 55.2223 148.175 54.9494 147.911 54.9506C147.647 54.9517 147.537 55.2156 147.627 55.5861C147.717 55.9565 147.96 56.2194 148.224 56.2194C148.488 56.2194 148.6 55.9488 148.511 55.5817L148.508 55.5839Z" fill="#94B0ED"/>
<path d="M151.723 55.5761C151.584 54.9993 151.834 54.5457 152.371 54.5457C152.908 54.5457 153.369 54.9894 153.512 55.5739C153.656 56.1584 153.402 56.6043 152.865 56.6043C152.328 56.6043 151.864 56.1595 151.723 55.5761ZM153.054 55.5761C152.967 55.2156 152.722 54.9428 152.458 54.9428C152.194 54.9428 152.085 55.2079 152.175 55.5783C152.265 55.9488 152.508 56.2116 152.772 56.2116C153.036 56.2116 153.146 55.941 153.058 55.5739L153.054 55.5761Z" fill="#94B0ED"/>
<path d="M154.604 55.0027L154.271 55.0892L154.093 54.7309L154.629 54.559H154.929L155.415 56.5643H154.978L154.604 55.0027Z" fill="#94B0ED"/>
<path d="M156.173 55.5694C156.034 54.9916 156.284 54.539 156.821 54.5379C157.358 54.5368 157.819 54.9816 157.961 55.5661C158.103 56.1506 157.85 56.5965 157.314 56.5976C156.777 56.5987 156.314 56.1517 156.173 55.5694ZM157.504 55.5694C157.417 55.2079 157.172 54.935 156.908 54.935C156.644 54.935 156.534 55.2001 156.624 55.5705C156.714 55.941 156.956 56.205 157.22 56.2039C157.484 56.2028 157.596 55.9332 157.508 55.5672L157.504 55.5694Z" fill="#94B0ED"/>
<path d="M160.63 55.5572C160.49 54.9794 160.741 54.5268 161.277 54.5257C161.814 54.5246 162.276 54.9694 162.419 55.5539C162.562 56.1384 162.308 56.5843 161.771 56.5854C161.234 56.5865 160.771 56.1395 160.63 55.5572ZM161.961 55.5572C161.873 55.1956 161.628 54.9228 161.364 54.9228C161.1 54.9228 160.991 55.189 161.081 55.5583C161.171 55.9277 161.414 56.1928 161.678 56.1917C161.942 56.1905 162.053 55.9221 161.964 55.5572H161.961Z" fill="#94B0ED"/>
<path d="M83.5001 60.0193C83.3603 59.4415 83.611 58.9889 84.1478 58.9878C84.6846 58.9867 85.146 59.4315 85.2891 60.016C85.4322 60.6005 85.1782 61.0464 84.6414 61.0475C84.1045 61.0486 83.6365 60.6027 83.5001 60.0193ZM84.831 60.0193C84.7434 59.6577 84.4983 59.3849 84.2343 59.386C83.9703 59.3871 83.8616 59.6511 83.9515 60.0204C84.0413 60.3898 84.2842 60.6549 84.5471 60.6549C84.8099 60.6549 84.9186 60.3842 84.831 60.0171V60.0193Z" fill="#94B0ED"/>
<path d="M86.1698 60.0149C86.0301 59.437 86.2808 58.9845 86.8187 58.9834C87.3566 58.9823 87.8169 59.427 87.9589 60.0115C88.1009 60.5961 87.848 61.0419 87.3112 61.043C86.7743 61.0442 86.3118 60.5983 86.1698 60.0149ZM87.5008 60.0149C87.4132 59.6533 87.1681 59.3804 86.9041 59.3815C86.6401 59.3827 86.5303 59.6466 86.6202 60.016C86.71 60.3853 86.9529 60.6504 87.2169 60.6504C87.4809 60.6504 87.594 60.3798 87.5053 60.0127L87.5008 60.0149Z" fill="#94B0ED"/>
<path d="M152.773 59.9117C152.633 59.3339 152.883 58.8813 153.421 58.8802C153.959 58.8791 154.42 59.3239 154.562 59.9084C154.704 60.4929 154.451 60.9388 153.914 60.9399C153.377 60.941 152.914 60.494 152.773 59.9117ZM154.103 59.9117C154.016 59.5502 153.771 59.2773 153.507 59.2773C153.243 59.2773 153.133 59.5424 153.223 59.9128C153.313 60.2833 153.556 60.5473 153.82 60.5462C154.084 60.5451 154.197 60.2755 154.108 59.9095L154.103 59.9117Z" fill="#94B0ED"/>
<path d="M155.653 59.3405L155.32 59.4259L155.142 59.0677L155.679 58.8958H155.98L156.466 60.9011H156.029L155.653 59.3405Z" fill="#94B0ED"/>
<path d="M157.223 59.904C157.083 59.3261 157.333 58.8736 157.87 58.8725C158.407 58.8714 158.869 59.3161 159.012 59.9006C159.155 60.4852 158.901 60.931 158.363 60.9321C157.825 60.9333 157.369 60.4874 157.223 59.904ZM158.554 59.904C158.466 59.5424 158.221 59.2695 157.957 59.2695C157.693 59.2695 157.584 59.5357 157.674 59.9051C157.764 60.2744 158.007 60.5395 158.27 60.5384C158.532 60.5373 158.646 60.2689 158.557 59.9017L158.554 59.904Z" fill="#94B0ED"/>
<path d="M167.03 59.8829C166.889 59.305 167.141 58.8525 167.677 58.8514C168.214 58.8503 168.676 59.295 168.818 59.8796C168.96 60.4641 168.707 60.9099 168.17 60.9111C167.633 60.9122 167.17 60.4663 167.03 59.8829ZM168.361 59.8829C168.273 59.5213 168.028 59.2485 167.764 59.2496C167.5 59.2507 167.39 59.5146 167.48 59.884C167.57 60.2533 167.813 60.5184 168.077 60.5173C168.341 60.5162 168.453 60.2478 168.364 59.8829H168.361Z" fill="#94B0ED"/>
<path d="M169.909 59.3117L169.576 59.3971L169.398 59.0388L169.934 58.868H170.235L170.721 60.8734H170.284L169.909 59.3117Z" fill="#94B0ED"/>
<path d="M81.2452 83.4222C81.1054 82.8455 81.3561 82.3918 81.8929 82.3907C82.4297 82.3896 82.8911 82.8344 83.0342 83.42C83.1773 84.0056 82.9233 84.4504 82.3865 84.4504C81.8496 84.4504 81.386 84.0056 81.2452 83.4222ZM82.5761 83.4222C82.4885 83.0617 82.2434 82.7889 81.9794 82.7889C81.7154 82.7889 81.6067 83.054 81.6966 83.4244C81.7864 83.7949 82.0293 84.0577 82.2933 84.0577C82.5573 84.0577 82.6682 83.7871 82.5795 83.42L82.5761 83.4222Z" fill="#94B0ED"/>
<path d="M83.9203 83.4178C83.7806 82.841 84.0313 82.3874 84.5681 82.3863C85.1049 82.3852 85.5663 82.8299 85.7083 83.4156C85.8502 84.0012 85.5974 84.4459 85.0605 84.4459C84.5237 84.4459 84.0612 84.0012 83.9203 83.4178ZM85.2513 83.4178C85.1637 83.0562 84.9186 82.7844 84.6546 82.7844C84.3906 82.7844 84.2819 83.0495 84.3706 83.42C84.4594 83.7904 84.7034 84.0533 84.9674 84.0533C85.2313 84.0533 85.3434 83.7827 85.2546 83.4156L85.2513 83.4178Z" fill="#94B0ED"/>
<path d="M86.7996 82.8421L86.4669 82.9286L86.2883 82.5704L86.8274 82.3985H87.1291L87.6149 84.4038H87.1779L86.7996 82.8421Z" fill="#94B0ED"/>
<path d="M91.0424 83.4056C90.9027 82.8288 91.1533 82.3752 91.6901 82.3752C92.227 82.3752 92.6884 82.8188 92.8315 83.4034C92.9745 83.9879 92.7205 84.4338 92.1826 84.4349C91.6447 84.436 91.1855 83.989 91.0424 83.4056ZM92.3734 83.4056C92.2858 83.0451 92.0406 82.7723 91.7767 82.7723C91.5127 82.7723 91.404 83.0373 91.4927 83.4078C91.5815 83.7782 91.8255 84.0411 92.0894 84.0411C92.3534 84.0411 92.4677 83.7705 92.3789 83.4034L92.3734 83.4056Z" fill="#94B0ED"/>
<path d="M93.7187 83.3967C93.5789 82.82 93.8296 82.3663 94.3664 82.3663C94.9032 82.3663 95.3646 82.81 95.5077 83.3945C95.6508 83.979 95.3968 84.4249 94.86 84.4249C94.3232 84.4249 93.8595 83.9846 93.7187 83.3967ZM95.0497 83.3967C94.9631 83.0362 94.7169 82.7634 94.454 82.7634C94.1912 82.7634 94.0803 83.0285 94.1701 83.3989C94.2599 83.7694 94.5028 84.0322 94.7668 84.0322C95.0308 84.0322 95.1462 83.7661 95.053 83.3967H95.0497Z" fill="#94B0ED"/>
<path d="M96.3939 83.3967C96.2541 82.82 96.5048 82.3663 97.0416 82.3663C97.5784 82.3663 98.0398 82.81 98.1829 83.3945C98.326 83.979 98.072 84.4249 97.5341 84.4249C96.9961 84.4249 96.5347 83.9801 96.3939 83.3967ZM97.7248 83.3967C97.6372 83.0362 97.3921 82.7634 97.1281 82.7634C96.8641 82.7634 96.7554 83.0285 96.8442 83.3989C96.9329 83.7694 97.1769 84.0322 97.4409 84.0322C97.7049 84.0322 97.8169 83.7616 97.7282 83.3967H97.7248Z" fill="#94B0ED"/>
<path d="M129.786 83.4222C129.645 82.8455 129.897 82.3918 130.433 82.3907C130.97 82.3896 131.432 82.8344 131.574 83.42C131.716 84.0056 131.463 84.4504 130.926 84.4504C130.389 84.4504 129.926 84.0056 129.786 83.4222ZM131.117 83.4222C131.029 83.0617 130.784 82.7889 130.52 82.7889C130.256 82.7889 130.146 83.054 130.236 83.4244C130.326 83.7949 130.569 84.0577 130.833 84.0577C131.097 84.0577 131.209 83.7871 131.12 83.42L131.117 83.4222Z" fill="#94B0ED"/>
<path d="M132.46 83.4178C132.32 82.841 132.571 82.3874 133.108 82.3863C133.644 82.3852 134.106 82.8299 134.249 83.4156C134.392 84.0012 134.138 84.4459 133.601 84.4459C133.064 84.4459 132.601 84.0012 132.46 83.4178ZM133.791 83.4178C133.703 83.0562 133.458 82.7844 133.194 82.7844C132.93 82.7844 132.821 83.0495 132.911 83.42C133.001 83.7904 133.244 84.0533 133.508 84.0533C133.772 84.0533 133.883 83.7827 133.794 83.4156L133.791 83.4178Z" fill="#94B0ED"/>
<path d="M135.34 82.8421L135.008 82.9286L134.829 82.5704L135.365 82.3985H135.667L136.153 84.4038H135.71L135.34 82.8421Z" fill="#94B0ED"/>
<path d="M147.72 83.4222C147.58 82.8455 147.83 82.3918 148.367 82.3907C148.904 82.3896 149.366 82.8344 149.509 83.42C149.652 84.0056 149.398 84.4504 148.861 84.4504C148.324 84.4504 147.858 84.0056 147.72 83.4222ZM149.051 83.4222C148.963 83.0617 148.718 82.7889 148.454 82.7889C148.19 82.7889 148.081 83.054 148.171 83.4244C148.261 83.7949 148.504 84.0577 148.768 84.0577C149.032 84.0577 149.14 83.7871 149.051 83.42V83.4222Z" fill="#94B0ED"/>
<path d="M150.392 83.4178C150.252 82.841 150.503 82.3874 151.04 82.3863C151.577 82.3852 152.038 82.8299 152.18 83.4156C152.322 84.0012 152.069 84.4459 151.533 84.4459C150.996 84.4459 150.533 84.0012 150.392 83.4178ZM151.723 83.4178C151.636 83.0562 151.391 82.7844 151.127 82.7844C150.863 82.7844 150.753 83.0495 150.843 83.42C150.933 83.7904 151.175 84.0533 151.439 84.0533C151.703 84.0533 151.815 83.7827 151.727 83.4156L151.723 83.4178Z" fill="#94B0ED"/>
<path d="M153.272 82.8421L152.939 82.9286L152.76 82.5704L153.297 82.3985H153.598L154.084 84.4038H153.647L153.272 82.8421Z" fill="#94B0ED"/>
<path d="M139.584 83.4056C139.444 82.8288 139.695 82.3752 140.232 82.3752C140.769 82.3752 141.23 82.8188 141.373 83.4034C141.516 83.9879 141.262 84.4338 140.725 84.4349C140.189 84.436 139.725 83.989 139.584 83.4056ZM140.915 83.4056C140.827 83.0451 140.582 82.7723 140.318 82.7723C140.054 82.7723 139.946 83.0373 140.035 83.4078C140.125 83.7782 140.368 84.0411 140.632 84.0411C140.896 84.0411 141.007 83.7705 140.918 83.4034L140.915 83.4056Z" fill="#94B0ED"/>
<path d="M142.259 83.3967C142.118 82.82 142.37 82.3663 142.907 82.3663C143.444 82.3663 143.905 82.81 144.047 83.3945C144.189 83.979 143.936 84.4249 143.399 84.4249C142.862 84.4249 142.395 83.9846 142.259 83.3967ZM143.59 83.3967C143.502 83.0362 143.257 82.7634 142.993 82.7634C142.729 82.7634 142.619 83.0285 142.709 83.3989C142.799 83.7694 143.042 84.0322 143.306 84.0322C143.57 84.0322 143.682 83.7661 143.593 83.3967H143.59Z" fill="#94B0ED"/>
<path d="M144.933 83.3967C144.793 82.82 145.044 82.3663 145.581 82.3663C146.118 82.3663 146.579 82.81 146.722 83.3945C146.865 83.979 146.611 84.4249 146.074 84.4249C145.538 84.4249 145.074 83.9801 144.933 83.3967ZM146.264 83.3967C146.177 83.0362 145.931 82.7634 145.667 82.7634C145.403 82.7634 145.295 83.0285 145.385 83.3989C145.474 83.7694 145.717 84.0322 145.981 84.0322C146.245 84.0322 146.356 83.7616 146.267 83.3967H146.264Z" fill="#94B0ED"/>
<path d="M105.541 83.3523C105.401 82.7745 105.652 82.322 106.189 82.3208C106.726 82.3197 107.187 82.7645 107.33 83.349C107.473 83.9335 107.219 84.3794 106.682 84.3805C106.145 84.3816 105.683 83.9346 105.541 83.3523ZM106.872 83.3523C106.784 82.9908 106.539 82.7179 106.275 82.7179C106.011 82.7179 105.903 82.9841 105.992 83.3534C106.082 83.7228 106.325 83.9879 106.589 83.9868C106.853 83.9857 106.964 83.7161 106.875 83.3501L106.872 83.3523Z" fill="#94B0ED"/>
<path d="M108.421 82.7811L108.089 82.8665L107.91 82.5083L108.447 82.3363H108.749L109.234 84.3417H108.797L108.421 82.7811Z" fill="#94B0ED"/>
<path d="M109.991 83.3446C109.851 82.7667 110.102 82.3142 110.639 82.3131C111.175 82.312 111.637 82.7567 111.779 83.3412C111.921 83.9258 111.668 84.3716 111.131 84.3728C110.594 84.3739 110.132 83.928 109.991 83.3446ZM111.322 83.3446C111.234 82.983 110.989 82.7101 110.725 82.7112C110.461 82.7124 110.352 82.9763 110.441 83.3457C110.53 83.715 110.774 83.9801 111.038 83.9801C111.302 83.9801 111.414 83.7095 111.325 83.3424L111.322 83.3446Z" fill="#94B0ED"/>
<path d="M162.894 83.2858C162.754 82.7079 163.005 82.2554 163.541 82.2543C164.078 82.2532 164.54 82.6979 164.683 83.2825C164.826 83.867 164.572 84.3128 164.035 84.314C163.498 84.3151 163.034 83.8725 162.894 83.2858ZM164.225 83.2858C164.137 82.9242 163.892 82.6514 163.628 82.6525C163.364 82.6536 163.255 82.9175 163.345 83.2869C163.435 83.6562 163.678 83.9213 163.942 83.9202C164.206 83.9191 164.317 83.654 164.228 83.2858H164.225Z" fill="#94B0ED"/>
<path d="M165.774 82.7179L165.441 82.8033L165.263 82.4451L165.8 82.2743H166.101L166.587 84.2796H166.15L165.774 82.7179Z" fill="#94B0ED"/>
<path d="M167.343 83.2858C167.204 82.7079 167.454 82.2554 167.991 82.2543C168.528 82.2532 168.989 82.6979 169.131 83.2825C169.273 83.867 169.02 84.3128 168.484 84.314C167.947 84.3151 167.484 83.8648 167.343 83.2858ZM168.674 83.2858C168.587 82.9242 168.342 82.6514 168.078 82.6525C167.814 82.6536 167.704 82.9175 167.794 83.2869C167.883 83.6562 168.126 83.9213 168.39 83.9213C168.654 83.9213 168.766 83.6462 168.682 83.2791L168.674 83.2858Z" fill="#94B0ED"/>
<path d="M65.4211 64.5213L65.0884 64.6067L64.9098 64.2485L65.4466 64.0766H65.7538L66.2397 66.0819H65.8026L65.4211 64.5213Z" fill="#94B0ED"/>
<path d="M66.9927 65.0848C66.853 64.5069 67.1036 64.0544 67.6405 64.0533C68.1773 64.0521 68.6387 64.4969 68.7818 65.0814C68.9249 65.6659 68.6709 66.1118 68.1329 66.1129C67.595 66.114 67.1336 65.6682 66.9927 65.0848ZM68.3237 65.0848C68.2361 64.7232 67.991 64.4503 67.727 64.4514C67.463 64.4525 67.3543 64.7165 67.443 65.0859C67.5318 65.4552 67.7758 65.7203 68.0398 65.7203C68.3037 65.7203 68.4157 65.4497 68.327 65.0825L68.3237 65.0848Z" fill="#94B0ED"/>
<path d="M82.1402 65.0593C82.0004 64.4814 82.2511 64.0289 82.789 64.0278C83.327 64.0267 83.7873 64.4714 83.9292 65.0559C84.0712 65.6405 83.8183 66.0863 83.2815 66.0875C82.7447 66.0886 82.2799 65.6427 82.1402 65.0593ZM83.4712 65.0593C83.3835 64.6977 83.1384 64.4248 82.8744 64.426C82.6105 64.4271 82.5007 64.691 82.5905 65.0604C82.6803 65.4297 82.9232 65.6948 83.1872 65.6948C83.4512 65.6948 83.5643 65.4286 83.4756 65.0571L83.4712 65.0593Z" fill="#94B0ED"/>
<path d="M84.8155 65.0548C84.6757 64.477 84.9264 64.0244 85.4632 64.0233C86 64.0222 86.4615 64.467 86.6045 65.0515C86.7476 65.636 86.4936 66.0819 85.9557 66.083C85.4178 66.0841 84.9563 65.6382 84.8155 65.0548ZM86.1465 65.0548C86.0588 64.6932 85.8137 64.4204 85.5497 64.4215C85.2858 64.4226 85.1771 64.6866 85.2669 65.0559C85.3568 65.4253 85.5997 65.6904 85.8625 65.6904C86.1254 65.6904 86.2385 65.4197 86.1498 65.0526L86.1465 65.0548Z" fill="#94B0ED"/>
<path d="M87.4931 65.0504C87.3533 64.4725 87.604 64.02 88.1419 64.0189C88.6799 64.0178 89.1402 64.4625 89.2821 65.0471C89.4241 65.6316 89.1712 66.0774 88.6344 66.0786C88.0976 66.0797 87.6317 65.6338 87.4931 65.0504ZM88.8241 65.0504C88.7364 64.6888 88.4913 64.416 88.2273 64.4171C87.9634 64.4182 87.8536 64.6821 87.9434 65.0515C88.0332 65.4208 88.2761 65.6859 88.5401 65.6848C88.8041 65.6837 88.9139 65.4153 88.8241 65.0482V65.0504Z" fill="#94B0ED"/>
<path d="M90.3701 64.4792L90.0373 64.5646L89.8588 64.2063L90.3956 64.0355H90.6973L91.1831 66.0408H90.7461L90.3701 64.4792Z" fill="#94B0ED"/>
<path d="M92.1591 64.4759L91.8264 64.5624L91.6478 64.2041L92.1847 64.0322H92.4841L92.9699 66.0386H92.5329L92.1591 64.4759Z" fill="#94B0ED"/>
<path d="M93.7287 65.0393C93.5889 64.4625 93.8396 64.0089 94.3764 64.0089C94.9133 64.0089 95.3747 64.4526 95.5177 65.0371C95.6608 65.6216 95.4068 66.0675 94.8689 66.0675C94.331 66.0675 93.8696 65.6227 93.7287 65.0393ZM95.0597 65.0393C94.972 64.6788 94.7269 64.406 94.4629 64.406C94.199 64.406 94.0903 64.6711 94.179 65.0415C94.2677 65.412 94.5118 65.6748 94.7757 65.6748C95.0397 65.6748 95.1517 65.4042 95.063 65.0371L95.0597 65.0393Z" fill="#94B0ED"/>
<path d="M162.899 64.9273C162.759 64.3494 163.01 63.8969 163.547 63.8958C164.084 63.8947 164.545 64.3394 164.688 64.9239C164.831 65.5085 164.577 65.9543 164.039 65.9554C163.501 65.9566 163.04 65.5107 162.899 64.9273ZM164.23 64.9273C164.142 64.5657 163.897 64.2928 163.633 64.294C163.369 64.2951 163.261 64.559 163.349 64.9284C163.438 65.2977 163.682 65.5628 163.946 65.5628C164.21 65.5628 164.322 65.2922 164.233 64.9251L164.23 64.9273Z" fill="#2F539B"/>
<path d="M165.577 64.9228C165.437 64.345 165.688 63.8925 166.224 63.8913C166.761 63.8902 167.223 64.335 167.366 64.9195C167.509 65.504 167.255 65.9499 166.718 65.951C166.181 65.9521 165.715 65.5063 165.577 64.9228ZM166.908 64.9228C166.821 64.5613 166.575 64.2884 166.312 64.2895C166.049 64.2906 165.938 64.5546 166.028 64.924C166.118 65.2933 166.361 65.5584 166.625 65.5573C166.889 65.5562 166.996 65.2878 166.908 64.9206V64.9228Z" fill="#2F539B"/>
<path d="M168.249 64.9184C168.109 64.3405 168.36 63.888 168.896 63.8869C169.433 63.8858 169.895 64.3305 170.038 64.9151C170.181 65.4996 169.927 65.9455 169.389 65.9466C168.851 65.9477 168.389 65.5018 168.249 64.9184ZM169.58 64.9184C169.492 64.5568 169.247 64.284 168.983 64.284C168.719 64.284 168.61 64.5502 168.699 64.9195C168.788 65.2888 169.032 65.5539 169.296 65.5528C169.56 65.5517 169.672 65.2833 169.583 64.9162L169.58 64.9184Z" fill="#94B0ED"/>
<path d="M171.128 64.3472L170.795 64.4326L170.615 64.0743L171.152 63.9035H171.455L171.94 65.9089H171.503L171.128 64.3472Z" fill="#94B0ED"/>
<path d="M66.6412 69.5568L66.3085 69.6422L66.1299 69.284L66.6667 69.1121H66.9739L67.4597 71.1174H67.0227L66.6412 69.5568Z" fill="#94B0ED"/>
<path d="M68.2118 70.1203C68.0721 69.5424 68.3228 69.0899 68.8596 69.0888C69.3964 69.0877 69.8578 69.5324 70.0009 70.1169C70.144 70.7015 69.89 71.1473 69.3531 71.1484C68.8163 71.1495 68.3527 70.7037 68.2118 70.1203ZM69.5428 70.1203C69.4552 69.7587 69.2101 69.4858 68.9461 69.4869C68.6821 69.4881 68.5734 69.752 68.6633 70.1214C68.7531 70.4907 68.996 70.7558 69.2589 70.7547C69.5217 70.7536 69.636 70.4852 69.5461 70.118L69.5428 70.1203Z" fill="#94B0ED"/>
<path d="M80.6851 70.0992C80.5454 69.5213 80.796 69.0688 81.3328 69.0677C81.8697 69.0666 82.3311 69.5113 82.4742 70.0959C82.6172 70.6804 82.3632 71.1263 81.8264 71.1274C81.2896 71.1285 80.826 70.6826 80.6851 70.0992ZM82.0161 70.0992C81.9285 69.7376 81.6833 69.4648 81.4194 69.4659C81.1554 69.467 81.0467 69.731 81.1365 70.1003C81.2264 70.4696 81.4693 70.7347 81.7332 70.7347C81.9972 70.7347 82.1081 70.4641 82.0194 70.097L82.0161 70.0992Z" fill="#94B0ED"/>
<path d="M83.3603 70.0948C83.2205 69.5169 83.4712 69.0644 84.008 69.0633C84.5448 69.0622 85.0062 69.5069 85.1482 70.0914C85.2902 70.676 85.0373 71.1218 84.5005 71.1229C83.9637 71.1241 83.5 70.6782 83.3603 70.0948ZM84.6913 70.0948C84.6036 69.7332 84.3585 69.4603 84.0945 69.4614C83.8306 69.4626 83.7219 69.7265 83.8106 70.0959C83.8993 70.4652 84.1433 70.7303 84.4073 70.7303C84.6713 70.7303 84.7833 70.4597 84.6946 70.0925L84.6913 70.0948Z" fill="#94B0ED"/>
<path d="M73.216 79.8475C73.0762 79.2696 73.3269 78.8171 73.8637 78.8159C74.4006 78.8148 74.862 79.2596 75.005 79.8441C75.1481 80.4286 74.8941 80.8745 74.3562 80.8756C73.8183 80.8767 73.3569 80.4253 73.216 79.8475ZM74.547 79.8475C74.4593 79.4859 74.2142 79.213 73.9502 79.213C73.6863 79.213 73.5776 79.4781 73.6663 79.8486C73.755 80.219 73.999 80.483 74.263 80.4819C74.527 80.4808 74.639 80.2068 74.5503 79.8408L74.547 79.8475Z" fill="#2F539B"/>
<path d="M76.0957 79.2718L75.7629 79.3572L75.5833 78.999L76.1201 78.827H76.4229L76.9076 80.8324H76.4706L76.0957 79.2718Z" fill="#2F539B"/>
<path d="M67.7503 74.2474L67.4176 74.3339L67.239 73.9756L67.7758 73.8037H68.0831L68.5689 75.809H68.1319L67.7503 74.2474Z" fill="#94B0ED"/>
<path d="M69.322 74.8119C69.1822 74.2341 69.4329 73.7816 69.9697 73.7804C70.5065 73.7793 70.9679 74.2241 71.111 74.8086C71.2541 75.3931 71.0001 75.839 70.4633 75.8401C69.9264 75.8412 69.4628 75.3942 69.322 74.8119ZM70.6529 74.8119C70.5653 74.4504 70.3202 74.1775 70.0562 74.1775C69.7922 74.1775 69.6835 74.4437 69.7734 74.813C69.8632 75.1824 70.1061 75.4475 70.369 75.4464C70.6318 75.4453 70.745 75.1757 70.6562 74.8097L70.6529 74.8119Z" fill="#94B0ED"/>
<path d="M71.996 74.8075C71.8563 74.2297 72.1069 73.7771 72.6449 73.776C73.1828 73.7749 73.6431 74.2197 73.7851 74.8042C73.927 75.3887 73.6741 75.8346 73.1373 75.8357C72.6005 75.8368 72.138 75.3898 71.996 74.8075ZM73.327 74.8075C73.2394 74.4459 72.9942 74.1731 72.7303 74.1731C72.4663 74.1731 72.3565 74.4382 72.4463 74.8086C72.5362 75.1791 72.7791 75.4431 73.043 75.442C73.307 75.4408 73.4201 75.1713 73.3314 74.8053L73.327 74.8075Z" fill="#94B0ED"/>
<path d="M74.8764 74.2363L74.5437 74.3217L74.3651 73.9635L74.9019 73.7915H75.2036L75.6894 75.7969H75.2524L74.8764 74.2363Z" fill="#94B0ED"/>
<path d="M76.4459 74.7997C76.3061 74.2219 76.5568 73.7693 77.0936 73.7682C77.6304 73.7671 78.0918 74.2119 78.2349 74.7964C78.378 75.3809 78.124 75.8268 77.5872 75.8279C77.0503 75.829 76.5867 75.3832 76.4459 74.7997ZM77.7768 74.7997C77.6892 74.4382 77.4441 74.1653 77.1801 74.1664C76.9161 74.1675 76.8074 74.4315 76.8973 74.8009C76.9871 75.1702 77.23 75.4353 77.494 75.4342C77.758 75.4331 77.8689 75.1646 77.7802 74.7975L77.7768 74.7997Z" fill="#94B0ED"/>
<path d="M79.1202 74.7953C78.9804 74.2174 79.2311 73.7649 79.769 73.7638C80.3069 73.7627 80.7672 74.2075 80.9092 74.792C81.0512 75.3765 80.7983 75.8224 80.2615 75.8235C79.7247 75.8246 79.2621 75.3787 79.1202 74.7953ZM80.4511 74.7953C80.3635 74.4337 80.1184 74.1609 79.8544 74.1609C79.5904 74.1609 79.4806 74.4271 79.5705 74.7964C79.6603 75.1658 79.9032 75.4309 80.1672 75.4297C80.4312 75.4286 80.5443 75.1602 80.4556 74.7931L80.4511 74.7953Z" fill="#94B0ED"/>
<path d="M81.7953 74.7909C81.6556 74.213 81.9063 73.7605 82.4431 73.7594C82.9799 73.7583 83.4413 74.203 83.5844 74.7875C83.7275 75.3721 83.4735 75.8179 82.9367 75.8191C82.3998 75.8202 81.9362 75.3743 81.7953 74.7909ZM83.1263 74.7909C83.0387 74.4293 82.7936 74.1564 82.5296 74.1564C82.2656 74.1564 82.1569 74.4226 82.2468 74.792C82.3366 75.1613 82.5795 75.4264 82.8435 75.4253C83.1075 75.4242 83.2184 75.1558 83.1296 74.7887L83.1263 74.7909Z" fill="#94B0ED"/>
<path d="M84.4708 74.7864C84.331 74.2086 84.5817 73.756 85.1185 73.7549C85.6553 73.7538 86.1167 74.1986 86.2587 74.7831C86.4007 75.3676 86.1478 75.8135 85.611 75.8146C85.0741 75.8157 84.6094 75.3687 84.4708 74.7864ZM85.8017 74.7864C85.7141 74.4249 85.469 74.152 85.205 74.152C84.941 74.152 84.8323 74.4182 84.9211 74.7875C85.0098 75.1569 85.2538 75.422 85.5178 75.4209C85.7818 75.4198 85.8938 75.1502 85.8051 74.7842L85.8017 74.7864Z" fill="#94B0ED"/>
<path d="M87.1447 74.782C87.005 74.2041 87.2556 73.7516 87.7924 73.7505C88.3293 73.7494 88.7907 74.1941 88.9338 74.7787C89.0768 75.3632 88.8228 75.8091 88.286 75.8102C87.7492 75.8113 87.2856 75.3643 87.1447 74.782ZM88.4757 74.782C88.3881 74.4204 88.1429 74.1476 87.879 74.1476C87.615 74.1476 87.5063 74.4126 87.5961 74.7831C87.686 75.1535 87.9289 75.4175 88.1929 75.4164C88.4568 75.4153 88.5677 75.1458 88.479 74.7798L88.4757 74.782Z" fill="#94B0ED"/>
<path d="M89.8222 74.7776C89.6824 74.1997 89.9331 73.7472 90.4699 73.7461C91.0068 73.7449 91.4682 74.1897 91.6101 74.7742C91.7521 75.3587 91.4992 75.8046 90.9624 75.8057C90.4256 75.8068 89.9608 75.3599 89.8222 74.7776ZM91.1532 74.7776C91.0655 74.416 90.8204 74.1431 90.5564 74.1431C90.2925 74.1431 90.1838 74.4082 90.2725 74.7787C90.3612 75.1491 90.6052 75.4131 90.8692 75.412C91.1332 75.4109 91.243 75.1414 91.1532 74.7753V74.7776Z" fill="#94B0ED"/>
<path d="M92.6993 74.2063L92.3666 74.2917L92.188 73.9335L92.7248 73.7616H93.0265L93.5123 75.7669H93.0753L92.6993 74.2063Z" fill="#94B0ED"/>
<path d="M94.4884 74.203L94.1556 74.2884L93.9771 73.9302L94.5139 73.7594H94.8133L95.2992 75.7647H94.8621L94.4884 74.203Z" fill="#94B0ED"/>
<path d="M96.0578 74.7665C95.918 74.1886 96.1687 73.7361 96.7055 73.735C97.2424 73.7338 97.7038 74.1786 97.8468 74.7631C97.9899 75.3477 97.7359 75.7935 97.1991 75.7946C96.6623 75.7957 96.1987 75.3499 96.0578 74.7665ZM97.3888 74.7665C97.3011 74.4049 97.056 74.132 96.792 74.1331C96.5281 74.1342 96.4194 74.3982 96.5092 74.7676C96.5991 75.1369 96.842 75.402 97.1059 75.402C97.3699 75.402 97.4808 75.1314 97.3921 74.7642L97.3888 74.7665Z" fill="#94B0ED"/>
<path d="M68.9703 79.2829L68.6376 79.3694L68.4579 79.0112L68.9947 78.8392H69.3031L69.7877 80.8446H69.3508L68.9703 79.2829Z" fill="#94B0ED"/>
<path d="M70.5407 79.8475C70.401 79.2696 70.6516 78.8171 71.1884 78.8159C71.7253 78.8148 72.1867 79.2596 72.3297 79.8441C72.4728 80.4286 72.2188 80.8745 71.682 80.8756C71.1452 80.8767 70.6827 80.4297 70.5407 79.8475ZM71.8717 79.8475C71.7841 79.4859 71.5389 79.213 71.2761 79.213C71.0132 79.213 70.9023 79.4792 70.9921 79.8486C71.082 80.2179 71.3249 80.483 71.5888 80.4819C71.8528 80.4808 71.9648 80.2112 71.875 79.8475H71.8717Z" fill="#94B0ED"/>
<path d="M77.6648 79.8352C77.5251 79.2574 77.7758 78.8048 78.3126 78.8037C78.8494 78.8026 79.3108 79.2474 79.4539 79.8319C79.597 80.4164 79.343 80.8623 78.8062 80.8634C78.2693 80.8645 77.8068 80.4187 77.6648 79.8352ZM78.9958 79.8352C78.9093 79.4737 78.6631 79.2008 78.4002 79.2008C78.1373 79.2008 78.0264 79.467 78.1163 79.8364C78.2061 80.2057 78.449 80.4708 78.713 80.4697C78.977 80.4686 79.089 80.2001 78.9991 79.833L78.9958 79.8352Z" fill="#94B0ED"/>
<path d="M80.3404 79.8308C80.2006 79.2529 80.4513 78.8004 80.9881 78.7993C81.5249 78.7982 81.9864 79.243 82.1294 79.8275C82.2725 80.412 82.0185 80.8579 81.4806 80.859C80.9427 80.8601 80.4812 80.4131 80.3404 79.8308ZM81.6714 79.8308C81.5837 79.4692 81.3386 79.1964 81.0746 79.1964C80.8107 79.1964 80.702 79.4626 80.7907 79.8319C80.8794 80.2013 81.1234 80.4663 81.3874 80.4652C81.6514 80.4641 81.7634 80.1957 81.6747 79.8286L81.6714 79.8308Z" fill="#94B0ED"/>
<path d="M75.5809 91.0076C75.4411 90.4298 75.6918 89.9772 76.2286 89.9761C76.7654 89.975 77.2268 90.4198 77.3699 91.0043C77.513 91.5888 77.259 92.0347 76.7222 92.0358C76.1854 92.0369 75.7228 91.591 75.5809 91.0076ZM76.9118 91.0076C76.8253 90.646 76.5791 90.3732 76.3162 90.3743C76.0534 90.3754 75.9425 90.6394 76.0323 91.0087C76.1221 91.3781 76.365 91.6432 76.629 91.6432C76.893 91.6432 77.005 91.3725 76.9152 91.0054L76.9118 91.0076Z" fill="#94B0ED"/>
<path d="M78.4613 90.4364L78.1286 90.5218L77.9545 90.1625L78.4913 89.9916H78.793L79.2788 91.997H78.8418L78.4613 90.4364Z" fill="#94B0ED"/>
<path d="M71.3372 90.4486L71.0045 90.534L70.8259 90.1758L71.3627 90.0039H71.6644L72.1503 92.0092H71.7132L71.3372 90.4486Z" fill="#94B0ED"/>
<path d="M72.9067 91.0121C72.7669 90.4342 73.0176 89.9817 73.5544 89.9806C74.0912 89.9795 74.5526 90.4242 74.6957 91.0087C74.8388 91.5933 74.5848 92.0391 74.0469 92.0402C73.5089 92.0414 73.0475 91.5955 72.9067 91.0121ZM74.2376 91.0121C74.15 90.6505 73.9049 90.3776 73.6409 90.3787C73.3769 90.3798 73.2683 90.6438 73.357 91.0132C73.4457 91.3825 73.6897 91.6476 73.9537 91.6476C74.2177 91.6476 74.3297 91.3825 74.241 91.0098L74.2376 91.0121Z" fill="#94B0ED"/>
<path d="M80.0308 90.9999C79.8911 90.422 80.1417 89.9695 80.6786 89.9684C81.2154 89.9673 81.6768 90.412 81.8199 90.9966C81.9629 91.5811 81.7089 92.0269 81.171 92.028C80.6331 92.0292 80.1728 91.5833 80.0308 90.9999ZM81.3618 90.9999C81.2742 90.6383 81.029 90.3654 80.7651 90.3666C80.5011 90.3677 80.3924 90.6317 80.4811 91.001C80.5699 91.3703 80.8139 91.6354 81.0779 91.6354C81.3418 91.6354 81.4538 91.3648 81.3651 90.9977L81.3618 90.9999Z" fill="#2F539B"/>
<path d="M82.7048 90.9954C82.565 90.4176 82.8157 89.965 83.3525 89.9639C83.8893 89.9628 84.3507 90.4076 84.4938 90.9921C84.6369 91.5766 84.3829 92.0225 83.8461 92.0236C83.3093 92.0247 82.8467 91.5788 82.7048 90.9954ZM84.0357 90.9954C83.9492 90.6339 83.703 90.361 83.4401 90.3621C83.1773 90.3632 83.0664 90.6272 83.1562 90.9965C83.246 91.3659 83.4889 91.631 83.7529 91.631C84.0169 91.631 84.1278 91.3603 84.0391 90.9932L84.0357 90.9954Z" fill="#2F539B"/>
<path d="M72.2766 94.599C72.1357 94.0212 72.3875 93.5686 72.9243 93.5675C73.4611 93.5664 73.9225 94.0112 74.0645 94.5957C74.2065 95.1802 73.9536 95.6261 73.4168 95.6272C72.8799 95.6283 72.4174 95.1824 72.2766 94.599ZM73.6076 94.599C73.5199 94.2375 73.2748 93.9646 73.0108 93.9657C72.7469 93.9668 72.637 94.2308 72.7269 94.6001C72.8167 94.9695 73.0596 95.2346 73.3236 95.2346C73.5876 95.2346 73.6996 94.9639 73.6109 94.599H73.6076Z" fill="#94B0ED"/>
<path d="M75.1561 94.0278L74.8233 94.1143L74.6448 93.755L75.1816 93.5842H75.4833L75.9691 95.5895H75.5321L75.1561 94.0278Z" fill="#94B0ED"/>
<path d="M76.7254 94.5913C76.5856 94.0145 76.8363 93.5609 77.3731 93.5598C77.91 93.5587 78.3714 94.0034 78.5144 94.5891C78.6575 95.1747 78.4035 95.6194 77.8667 95.6194C77.3299 95.6194 76.8663 95.1747 76.7254 94.5913ZM78.0564 94.5913C77.9687 94.2297 77.7236 93.958 77.4596 93.958C77.1957 93.958 77.087 94.223 77.1768 94.5935C77.2667 94.9639 77.5096 95.2268 77.7735 95.2268C78.0375 95.2268 78.1484 94.9562 78.0652 94.5891L78.0564 94.5913Z" fill="#94B0ED"/>
<path d="M79.3962 94.5868C79.2554 94.009 79.5071 93.5564 80.0439 93.5553C80.5808 93.5542 81.0422 93.999 81.1841 94.5835C81.3261 95.168 81.0732 95.6139 80.5364 95.615C79.9996 95.6161 79.5415 95.1702 79.3962 94.5868ZM80.7272 94.5868C80.6396 94.2253 80.3944 93.9524 80.1305 93.9535C79.8665 93.9546 79.7567 94.2186 79.8465 94.5879C79.9364 94.9573 80.1793 95.2224 80.4432 95.2224C80.7072 95.2224 80.8237 94.9517 80.7349 94.5846L80.7272 94.5868Z" fill="#94B0ED"/>
<path d="M83.0145 79.8264C82.8747 79.2485 83.1254 78.796 83.6633 78.7949C84.2012 78.7938 84.6615 79.2385 84.8035 79.823C84.9455 80.4076 84.6926 80.8534 84.1558 80.8545C83.6189 80.8557 83.1564 80.4087 83.0145 79.8264ZM84.3454 79.8264C84.2589 79.4648 84.0127 79.1919 83.7498 79.1919C83.4869 79.1919 83.376 79.4581 83.4659 79.8275C83.5557 80.1968 83.7986 80.4619 84.0626 80.4608C84.3266 80.4597 84.4386 80.1902 84.3488 79.8242L84.3454 79.8264Z" fill="#94B0ED"/>
<path d="M85.6896 79.8219C85.5499 79.2441 85.8005 78.7915 86.3374 78.7904C86.8742 78.7893 87.3356 79.2341 87.4787 79.8186C87.6218 80.4031 87.3678 80.849 86.8298 80.8501C86.2919 80.8512 85.8294 80.402 85.6896 79.8219ZM87.0206 79.8219C86.933 79.4604 86.6879 79.1875 86.4239 79.1875C86.1599 79.1875 86.0512 79.4526 86.1411 79.823C86.2309 80.1935 86.4738 80.4575 86.7367 80.4564C86.9995 80.4553 87.1127 80.1857 87.0239 79.8197L87.0206 79.8219Z" fill="#94B0ED"/>
<path d="M78.9781 103.999C78.8383 103.421 79.089 102.969 79.6258 102.968C80.1626 102.966 80.624 103.411 80.7671 103.996C80.9102 104.58 80.6562 105.026 80.1194 105.027C79.5826 105.028 79.1189 104.581 78.9781 103.999ZM80.3091 103.999C80.2214 103.637 79.9763 103.365 79.7123 103.366C79.4484 103.367 79.3397 103.631 79.4295 104C79.5193 104.369 79.7623 104.635 80.0251 104.635C80.288 104.635 80.4011 104.36 80.3124 103.997L80.3091 103.999Z" fill="#2F539B"/>
<path d="M81.8586 103.428L81.5259 103.513L81.3473 103.155L81.883 102.984H82.1858L82.6716 104.989H82.228L81.8586 103.428Z" fill="#2F539B"/>
<path d="M73.5178 98.4045L73.1851 98.4899L73.0054 98.1316L73.5422 97.9597H73.8505L74.3352 99.9651H73.8982L73.5178 98.4045Z" fill="#94B0ED"/>
<path d="M75.0838 98.9679C74.944 98.3901 75.1947 97.9375 75.7315 97.9364C76.2684 97.9353 76.7298 98.3801 76.8728 98.9646C77.0159 99.5491 76.7619 99.995 76.2251 99.9961C75.6883 99.9972 75.2247 99.5514 75.0838 98.9679ZM76.4148 98.9679C76.3271 98.6064 76.082 98.3335 75.818 98.3346C75.5541 98.3357 75.4454 98.5997 75.5352 98.9691C75.625 99.3384 75.868 99.6035 76.1319 99.6035C76.3959 99.6035 76.5124 99.3328 76.4181 98.9657L76.4148 98.9679Z" fill="#94B0ED"/>
<path d="M77.7592 98.9635C77.6195 98.3857 77.8701 97.9331 78.4069 97.932C78.9438 97.9309 79.4052 98.3757 79.5483 98.9602C79.6913 99.5447 79.4373 99.9906 78.8994 99.9917C78.3615 99.9928 77.9001 99.5469 77.7592 98.9635ZM79.0902 98.9635C79.0026 98.6019 78.7574 98.3291 78.4935 98.3302C78.2295 98.3313 78.1208 98.5953 78.2095 98.9646C78.2983 99.334 78.5423 99.5991 78.8062 99.5991C79.0702 99.5991 79.1822 99.3284 79.0935 98.9613L79.0902 98.9635Z" fill="#94B0ED"/>
<path d="M80.6385 98.3923L80.3058 98.4777L80.1261 98.1195L80.6629 97.9486H80.9657L81.4504 99.954H81.0134L80.6385 98.3923Z" fill="#94B0ED"/>
<path d="M74.7379 103.44L74.4051 103.525L74.2266 103.167L74.7623 102.995H75.0651L75.5509 105.001H75.1072L74.7379 103.44Z" fill="#94B0ED"/>
<path d="M76.3028 104.003C76.163 103.426 76.4137 102.973 76.9516 102.972C77.4896 102.971 77.9499 103.416 78.0918 104C78.2338 104.585 77.9809 105.031 77.4441 105.032C76.9073 105.033 76.4448 104.587 76.3028 104.003ZM77.6338 104.003C77.5461 103.642 77.301 103.369 77.037 103.37C76.7731 103.371 76.6633 103.635 76.7531 104.005C76.8429 104.374 77.0858 104.639 77.3498 104.639C77.6138 104.639 77.7325 104.368 77.6382 104.001L77.6338 104.003Z" fill="#94B0ED"/>
<path d="M83.4269 103.991C83.2872 103.413 83.5378 102.961 84.0758 102.96C84.6137 102.959 85.074 103.403 85.216 103.988C85.3579 104.572 85.1051 105.018 84.5682 105.019C84.0314 105.021 83.5689 104.575 83.4269 103.991ZM84.7579 103.991C84.6703 103.63 84.4252 103.357 84.1612 103.358C83.8972 103.359 83.7874 103.623 83.8772 103.992C83.9671 104.362 84.21 104.627 84.474 104.627C84.7379 104.627 84.8511 104.359 84.7623 103.989L84.7579 103.991Z" fill="#94B0ED"/>
<path d="M86.1022 103.987C85.9625 103.409 86.2131 102.956 86.75 102.955C87.2868 102.954 87.7482 103.399 87.8913 103.983C88.0344 104.568 87.7804 105.014 87.2435 105.015C86.7067 105.016 86.2431 104.57 86.1022 103.987ZM87.4332 103.987C87.3456 103.625 87.1005 103.352 86.8365 103.354C86.5725 103.355 86.4638 103.619 86.5537 103.988C86.6435 104.357 86.8864 104.622 87.1493 104.622C87.4121 104.622 87.5253 104.352 87.4365 103.985L87.4332 103.987Z" fill="#94B0ED"/>
<path d="M80.0097 107.554C79.8699 106.977 80.1206 106.523 80.6574 106.522C81.1943 106.521 81.6557 106.966 81.7987 107.552C81.9418 108.137 81.6878 108.582 81.1499 108.582C80.612 108.582 80.1506 108.137 80.0097 107.554ZM81.3407 107.554C81.253 107.193 81.0079 106.921 80.7439 106.921C80.48 106.921 80.3713 107.186 80.4611 107.556C80.551 107.926 80.7939 108.189 81.0567 108.189C81.3196 108.189 81.4327 107.919 81.344 107.552L81.3407 107.554Z" fill="#2F539B"/>
<path d="M82.8889 106.983L82.5561 107.069L82.3765 106.711L82.9133 106.539H83.2161L83.7008 108.544H83.2638L82.8889 106.983Z" fill="#2F539B"/>
<path d="M77.3344 107.558C77.1947 106.982 77.4453 106.528 77.9821 106.527C78.519 106.526 78.9804 106.97 79.1235 107.556C79.2665 108.142 79.0125 108.586 78.4757 108.586C77.9389 108.586 77.4764 108.142 77.3344 107.558ZM78.6654 107.558C78.5789 107.198 78.3326 106.925 78.0698 106.925C77.8069 106.925 77.696 107.19 77.7858 107.56C77.8757 107.931 78.1186 108.194 78.3825 108.194C78.6465 108.194 78.7585 107.923 78.6687 107.556L78.6654 107.558Z" fill="#94B0ED"/>
<path d="M84.4584 107.547C84.3187 106.969 84.5693 106.517 85.1073 106.516C85.6452 106.515 86.1055 106.959 86.2475 107.544C86.3894 108.128 86.1366 108.574 85.5997 108.575C85.0629 108.576 84.6004 108.131 84.4584 107.547ZM85.7894 107.547C85.7018 107.187 85.4566 106.914 85.1927 106.914C84.9287 106.914 84.8189 107.179 84.9087 107.549C84.9986 107.92 85.2415 108.184 85.5054 108.183C85.7694 108.182 85.8826 107.909 85.7938 107.544L85.7894 107.547Z" fill="#94B0ED"/>
<path d="M87.1336 107.542C86.9938 106.965 87.2445 106.511 87.7813 106.511C88.3182 106.511 88.7796 106.955 88.9226 107.539C89.0657 108.124 88.8117 108.57 88.2738 108.57C87.7359 108.57 87.2711 108.131 87.1336 107.542ZM88.4646 107.542C88.3769 107.181 88.1318 106.908 87.8678 106.908C87.6039 106.908 87.4952 107.173 87.5839 107.544C87.6726 107.914 87.9166 108.177 88.1806 108.177C88.4446 108.177 88.5566 107.909 88.4679 107.539L88.4646 107.542Z" fill="#94B0ED"/>
<path d="M88.7773 103.982C88.6365 103.405 88.8882 102.952 89.4251 102.951C89.9619 102.95 90.4233 103.395 90.5653 103.979C90.7072 104.564 90.4543 105.009 89.9175 105.011C89.3807 105.012 88.9182 104.566 88.7773 103.982ZM90.1083 103.982C90.0207 103.621 89.7755 103.348 89.5116 103.349C89.2476 103.35 89.1378 103.614 89.2276 103.983C89.3175 104.353 89.5604 104.618 89.8244 104.618C90.0883 104.618 90.2003 104.347 90.1116 103.98L90.1083 103.982Z" fill="#94B0ED"/>
<path d="M91.4515 103.978C91.3117 103.4 91.5624 102.948 92.0992 102.946C92.636 102.945 93.0974 103.39 93.2405 103.975C93.3836 104.559 93.1296 105.005 92.5928 105.006C92.056 105.007 91.5968 104.561 91.4515 103.978ZM92.7824 103.978C92.6948 103.616 92.4497 103.344 92.1857 103.345C91.9218 103.346 91.8131 103.61 91.9029 103.979C91.9927 104.348 92.2356 104.613 92.4996 104.613C92.7636 104.613 92.8745 104.343 92.7858 103.976L92.7824 103.978Z" fill="#94B0ED"/>
<path d="M162.549 69.3993L162.216 69.4847L162.037 69.1265L162.574 68.9546H162.876L163.362 70.9599H162.925L162.549 69.3993Z" fill="#94B0ED"/>
<path d="M164.118 69.9628C163.978 69.3849 164.229 68.9324 164.766 68.9313C165.303 68.9302 165.764 69.3749 165.907 69.9594C166.05 70.544 165.796 70.9898 165.259 70.991C164.722 70.9921 164.259 70.5462 164.118 69.9628ZM165.449 69.9628C165.361 69.6012 165.116 69.3283 164.852 69.3295C164.588 69.3306 164.48 69.5945 164.569 69.9639C164.659 70.3332 164.902 70.5983 165.165 70.5972C165.428 70.5961 165.541 70.3277 165.452 69.9606L165.449 69.9628Z" fill="#94B0ED"/>
<path d="M166.797 69.9583C166.657 69.3805 166.908 68.9279 167.446 68.9268C167.983 68.9257 168.444 69.3705 168.586 69.955C168.728 70.5395 168.475 70.9854 167.938 70.9865C167.401 70.9876 166.934 70.5417 166.797 69.9583ZM168.128 69.9583C168.04 69.5967 167.795 69.3239 167.531 69.3239C167.267 69.3239 167.157 69.5901 167.247 69.9594C167.337 70.3288 167.58 70.5939 167.844 70.5928C168.108 70.5916 168.216 70.3232 168.128 69.9561V69.9583Z" fill="#94B0ED"/>
<path d="M169.467 69.9539C169.328 69.376 169.578 68.9235 170.115 68.9224C170.652 68.9213 171.113 69.3661 171.257 69.9506C171.4 70.5351 171.146 70.981 170.609 70.9821C170.072 70.9832 169.608 70.5362 169.467 69.9539ZM170.798 69.9539C170.711 69.5923 170.466 69.3195 170.202 69.3195C169.938 69.3195 169.829 69.5857 169.919 69.955C170.009 70.3244 170.252 70.5894 170.516 70.5883C170.78 70.5872 170.89 70.3177 170.802 69.9517L170.798 69.9539Z" fill="#94B0ED"/>
<path d="M172.348 69.3827L172.015 69.4681L171.837 69.1098L172.373 68.9379H172.675L173.161 70.9433H172.724L172.348 69.3827Z" fill="#94B0ED"/>
<path d="M159.669 74.7731C159.528 74.1953 159.78 73.7427 160.317 73.7416C160.854 73.7405 161.315 74.1853 161.457 74.7698C161.599 75.3543 161.346 75.8002 160.809 75.8013C160.273 75.8024 159.809 75.3554 159.669 74.7731ZM161 74.7731C160.913 74.4127 160.668 74.1398 160.404 74.1398C160.14 74.1398 160.03 74.4049 160.12 74.7753C160.209 75.1458 160.452 75.4098 160.716 75.4087C160.98 75.4076 161.092 75.1369 161.004 74.7698L161 74.7731Z" fill="#94B0ED"/>
<path d="M162.549 74.2008L162.216 74.2873L162.037 73.9291L162.574 73.7571H162.876L163.362 75.7625H162.925L162.549 74.2008Z" fill="#94B0ED"/>
<path d="M164.118 74.7654C163.978 74.1875 164.229 73.735 164.766 73.7339C165.303 73.7328 165.764 74.1775 165.907 74.7621C166.05 75.3466 165.796 75.7924 165.259 75.7935C164.722 75.7947 164.259 75.3477 164.118 74.7654ZM165.449 74.7654C165.361 74.4038 165.116 74.1309 164.852 74.1309C164.588 74.1309 164.48 74.3971 164.569 74.7665C164.659 75.1358 164.902 75.4009 165.165 75.3998C165.428 75.3987 165.541 75.1292 165.452 74.7632L165.449 74.7654Z" fill="#2F539B"/>
<path d="M166.797 74.7609C166.657 74.1831 166.908 73.7305 167.446 73.7294C167.983 73.7283 168.444 74.1731 168.586 74.7576C168.728 75.3421 168.475 75.788 167.938 75.7891C167.401 75.7902 166.934 75.3432 166.797 74.7609ZM168.128 74.7609C168.04 74.3993 167.795 74.1265 167.531 74.1265C167.267 74.1265 167.157 74.3916 167.247 74.762C167.337 75.1325 167.58 75.3965 167.844 75.3954C168.108 75.3942 168.216 75.1247 168.128 74.7587V74.7609Z" fill="#2F539B"/>
<path d="M169.467 74.7565C169.328 74.1786 169.578 73.7261 170.115 73.725C170.652 73.7239 171.113 74.1686 171.257 74.7532C171.4 75.3377 171.146 75.7836 170.609 75.7847C170.072 75.7858 169.608 75.3388 169.467 74.7565ZM170.798 74.7565C170.711 74.3949 170.466 74.1221 170.202 74.1221C169.938 74.1221 169.829 74.3871 169.919 74.7576C170.009 75.1281 170.252 75.392 170.516 75.3909C170.78 75.3898 170.89 75.1203 170.802 74.7543L170.798 74.7565Z" fill="#2F539B"/>
<path d="M172.348 74.1908L172.015 74.2762L171.837 73.918L172.373 73.746H172.675L173.161 75.7514H172.724L172.348 74.1908Z" fill="#2F539B"/>
<path d="M171.803 101.934L171.471 102.019L171.291 101.661L171.828 101.489H172.131L172.615 103.494H172.178L171.803 101.934Z" fill="#94B0ED"/>
<path d="M173.373 102.497C173.233 101.919 173.484 101.467 174.02 101.466C174.557 101.465 175.019 101.909 175.162 102.494C175.305 103.078 175.051 103.524 174.514 103.525C173.977 103.527 173.515 103.081 173.373 102.497ZM174.704 102.497C174.617 102.136 174.371 101.863 174.108 101.864C173.845 101.865 173.734 102.129 173.824 102.498C173.914 102.868 174.157 103.133 174.421 103.133C174.685 103.133 174.797 102.862 174.707 102.495L174.704 102.497Z" fill="#94B0ED"/>
<path d="M176.048 102.493C175.908 101.915 176.159 101.462 176.696 101.461C177.232 101.46 177.694 101.905 177.837 102.489C177.98 103.074 177.726 103.52 177.188 103.521C176.65 103.522 176.189 103.076 176.048 102.493ZM177.379 102.493C177.291 102.131 177.046 101.858 176.782 101.859C176.518 101.861 176.409 102.125 176.498 102.494C176.587 102.863 176.831 103.128 177.095 103.127C177.359 103.126 177.471 102.858 177.382 102.491L177.379 102.493Z" fill="#94B0ED"/>
<path d="M169.176 105.198L168.843 105.283L168.664 104.925L169.201 104.754H169.503L169.989 106.76H169.552L169.176 105.198Z" fill="#94B0ED"/>
<path d="M170.745 105.761C170.606 105.184 170.856 104.731 171.393 104.73C171.93 104.729 172.391 105.174 172.534 105.758C172.677 106.343 172.423 106.789 171.885 106.79C171.348 106.791 170.886 106.345 170.745 105.761ZM172.076 105.761C171.989 105.4 171.744 105.127 171.48 105.128C171.216 105.129 171.107 105.393 171.197 105.763C171.287 106.132 171.529 106.397 171.792 106.397C172.055 106.397 172.168 106.126 172.08 105.759L172.076 105.761Z" fill="#94B0ED"/>
<path d="M173.419 105.757C173.279 105.179 173.53 104.727 174.068 104.726C174.606 104.724 175.066 105.169 175.208 105.754C175.35 106.338 175.097 106.784 174.561 106.785C174.024 106.786 173.562 106.34 173.419 105.757ZM174.75 105.757C174.663 105.395 174.417 105.123 174.153 105.124C173.89 105.125 173.78 105.389 173.87 105.758C173.959 106.127 174.202 106.393 174.466 106.393C174.73 106.393 174.843 106.122 174.755 105.755L174.75 105.757Z" fill="#94B0ED"/>
<path d="M178.722 102.488C178.582 101.91 178.833 101.458 179.371 101.457C179.909 101.456 180.369 101.901 180.511 102.485C180.653 103.07 180.4 103.515 179.864 103.517C179.327 103.518 178.864 103.072 178.722 102.488ZM180.053 102.488C179.967 102.127 179.72 101.854 179.458 101.854C179.195 101.854 179.084 102.12 179.174 102.489C179.263 102.859 179.506 103.124 179.77 103.123C180.034 103.122 180.146 102.853 180.057 102.486L180.053 102.488Z" fill="#94B0ED"/>
<path d="M181.603 101.919L181.27 102.005L181.091 101.647L181.628 101.475H181.93L182.416 103.48H181.979L181.603 101.919Z" fill="#94B0ED"/>
<path d="M217.67 79.3306C218.668 79.2374 220.948 79.5047 222.439 81.5411C223.93 83.5775 222.898 85.9777 226.628 87.8288C230.358 89.68 229.822 92.0125 229.076 94.9395C228.33 97.8666 225.203 101.405 221.473 101.232C217.743 101.059 211.364 93.3801 211.594 90.8058C211.823 88.2315 212.931 87.922 212.053 86.2206C210.676 83.552 213.23 79.7521 217.67 79.3306Z" fill="#163560"/>
<path d="M219.125 91.5456C219.144 91.5189 219.154 91.5034 219.152 91.5023C218.739 91.3548 218.708 90.7514 219.086 88.2403L218.888 88.2492L215.56 88.4089C215.56 88.4089 215.482 89.4371 215.338 90.3965C215.311 90.5873 215.281 90.7758 215.247 90.9511C212.743 93.4477 218.137 94.5757 219.125 91.5456Z" fill="#FFB19C"/>
<path d="M212.319 159.109H219.513C219.513 159.109 219.686 158.013 219.31 157.181C218.95 156.383 218.39 155.89 218.339 155.279C217.882 155.749 217.319 156.055 216.279 155.912C216.151 156.119 215.456 157.224 215.031 157.531C214.561 157.868 212.465 157.748 212.319 159.109Z" fill="#2C3A64"/>
<path d="M220.763 129.702C220.098 131.356 219.577 132.859 219.739 134.184C219.739 134.187 219.739 134.189 219.739 134.192C219.758 134.338 219.785 134.482 219.82 134.625C222.181 144.063 218.834 156.355 218.834 156.355C218.332 156.471 217.823 156.558 217.31 156.617C216.176 156.718 216.01 156.38 216.01 156.38C216.01 156.38 214.885 146.357 211.241 127.196C210.715 124.423 210.508 122.897 210.318 120.436C210.261 119.7 210.207 118.884 210.145 117.92C209.98 115.338 210.367 110.991 212.309 109.85C213.191 109.328 214.391 109.472 216.005 110.737C216.132 110.838 216.253 110.959 216.395 111.06C226.308 118.2 222.808 124.657 220.763 129.702Z" fill="#2F539B"/>
<path d="M219.739 134.184C219.628 133.796 216.063 121.339 216.003 120.393C215.873 118.358 220.586 123.978 220.763 129.702C220.093 131.356 219.577 132.864 219.739 134.184Z" fill="#233862"/>
<path d="M244.966 143.969L241.971 137.425C241.971 137.425 240.903 137.725 240.307 138.412C239.732 139.078 239.315 138.955 238.002 138.044C238.496 138.807 238.563 139.256 238.869 140.262C239.109 140.291 240.481 141.619 241.887 141.985C242.44 142.131 243.667 144.399 244.966 143.969Z" fill="#2C3A64"/>
<path d="M213.574 112.72C213.574 112.72 220.02 135.125 222.382 136.573C224.745 138.022 236.423 140.885 239.871 141.573C239.941 140.949 239.921 140.318 239.814 139.699C239.774 139.489 239.418 138.737 239.418 138.737C239.418 138.737 233.285 132.602 227.293 131.742C226.038 131.562 227.796 111.966 219.284 111.198C211.508 110.496 213.574 112.72 213.574 112.72Z" fill="#2F539B"/>
<path d="M204.017 77.4528C204.017 77.4528 204.162 76.7352 204.325 76.1862C204.396 75.9444 203.895 74.3505 203.548 74.1542C203.201 73.9579 202.3 75.0315 202.55 75.8556C202.681 76.2782 202.896 77.6558 202.896 77.6558L204.017 77.4528Z" fill="#FFB19C"/>
<path d="M233.789 78.7849C233.832 78.8758 233.894 79.0389 233.949 79.1919C233.949 79.1498 233.949 79.1088 233.949 79.0688C233.949 78.7638 235.089 77.1067 235.556 77.0025C236.023 76.8982 236.684 78.4521 236.099 79.3095C235.8 79.7532 234.894 81.3226 234.894 81.3226L233.89 80.7159C233.875 80.439 233.778 80.1727 233.613 79.9506C233.476 79.7776 233.472 78.9646 233.423 78.6107C233.421 78.6107 233.621 78.4499 233.789 78.7849Z" fill="#FFB19C"/>
<path d="M215.558 88.4089C215.558 88.4089 215.48 89.4371 215.336 90.3965C217.154 90.6183 218.356 89.1066 218.885 88.2492L215.558 88.4089Z" fill="#FF9989"/>
<path d="M219.512 87.8333C219.512 87.8333 220.785 86.3581 221.24 85.0027C221.564 84.0356 221.606 80.2756 217.824 80.2556C217.063 80.248 216.31 80.4114 215.621 80.7337C214.734 81.1574 213.403 82.1567 214.22 85.5651L214.395 86.7008L219.512 87.8333Z" fill="#163560"/>
<path d="M214.672 89.2197C214.672 89.2197 219.312 89.9883 219.747 87.0902C220.182 84.192 221.073 82.3408 218.128 81.7274C215.183 81.1141 214.44 82.1334 214.061 83.0651C213.681 83.9968 213.475 88.9424 214.672 89.2197Z" fill="#FFB19C"/>
<path d="M215.555 81.3226C215.555 81.3226 216.788 84.9306 218.668 85.7237C220.548 86.5167 221.474 86.1197 221.474 86.1197C220.635 85.1293 220.167 83.8781 220.15 82.5804C220.15 82.5804 216.756 79.8475 215.555 81.3226Z" fill="#163560"/>
<path d="M216.294 81.6642C216.294 81.6642 215.439 81.886 214.679 82.8077C214.18 83.41 214.005 84.2496 213.781 85.0748C213.781 85.0748 213.165 82.6214 214.438 81.4746C215.787 80.2578 216.294 81.6642 216.294 81.6642Z" fill="#163560"/>
<path d="M235.076 81.3359C235.076 81.3359 234.057 89.6545 231.908 91.6509C230.416 93.0318 225.136 95.2601 223.875 97.3076C223.724 97.5527 223.542 98.247 223.396 99.2774C222.969 102.295 222.864 108.188 224.829 114.106C224.92 114.38 225.016 114.654 225.116 114.927C225.182 115.1 225.212 115.283 225.206 115.468C225.199 115.652 225.157 115.833 225.08 116.001C225.003 116.168 224.894 116.319 224.758 116.444C224.622 116.569 224.463 116.666 224.29 116.729C223.025 117.178 221.724 117.518 220.401 117.746C220.096 117.799 219.78 117.846 219.46 117.887C215.031 118.449 212.034 117.41 210.511 116.641C210.159 116.463 209.867 116.187 209.67 115.845C209.473 115.504 209.38 115.112 209.402 114.719C209.493 113.076 210.316 111.451 210.686 107.502C210.967 104.507 208.922 100.279 209.032 98.684C209.075 98.054 209.386 95.2545 209.069 94.8209C206.962 91.9282 203.42 89.1576 202.876 86.5167C202.248 83.471 202.654 77.3951 202.654 77.3951C202.828 77.3341 203.302 77.1467 203.638 77.1467C204.235 77.1467 204.655 77.7013 204.655 77.7013C204.655 77.7013 206.235 83.6207 206.319 84.0234C206.739 86.1463 210.777 89.223 212 89.8397C213.339 90.5174 214.41 90.8801 215.253 90.9588C215.253 90.9588 214.255 92.6791 215.73 92.9176C217.504 93.2048 218.873 91.1662 218.873 91.1662C218.873 91.1662 219.95 91.469 221.89 91.1829C223.499 90.9466 229.228 89.0101 230.055 87.5404C230.659 86.4712 233.839 80.544 233.839 80.544C233.839 80.544 234.134 80.3721 234.608 80.6194C234.742 80.6882 234.855 80.7903 234.937 80.9159C235.019 81.0415 235.067 81.1862 235.076 81.3359Z" fill="#AEC3FF"/>
<path d="M216.019 87.6458C216.019 87.6458 215.821 88.0462 215.553 88.054C215.286 88.0617 214.608 87.9963 214.562 87.9275C214.498 87.7685 214.445 87.6055 214.403 87.4395C214.403 87.4395 215.526 87.3952 216.019 87.6458Z" fill="white"/>
<path d="M224.829 114.11C224.829 114.11 220.845 113.427 220.581 110.592C220.299 107.57 223.393 99.2785 223.393 99.2785C222.969 102.3 222.864 108.193 224.829 114.11Z" fill="#94B0ED"/>
<path d="M215.12 44.3416L214.705 42.8187C214.487 42.0207 214.036 41.3059 213.409 40.766C212.782 40.2261 212.008 39.8857 211.187 39.7886L200.36 38.5097L199.549 45.3797L196.085 74.7099L240.872 79.9994L244.336 50.6704L218.992 47.6757C218.088 47.5689 217.236 47.1944 216.546 46.6004C215.856 46.0064 215.36 45.2198 215.12 44.3416Z" fill="#56CCF2"/>
<path d="M204.515 61.3248L204.824 58.7149L214.45 55.7868L214.135 58.4488L207.432 60.3265L213.514 63.7105L213.194 66.4146L204.515 61.3248Z" fill="white"/>
<path d="M224.329 53.7826L226.769 54.071L216.323 70.5972L213.883 70.3088L224.329 53.7826Z" fill="white"/>
<path d="M236.099 62.4062L235.791 65.0149L226.166 67.943L226.481 65.2811L233.182 63.4077L227.102 60.0249L227.421 57.3208L236.099 62.4062Z" fill="white"/>
<path d="M233.532 79.7288C233.532 79.7288 233.4 78.5753 233.285 78.3601C233.17 78.1449 233.457 78.0828 233.701 78.5753C233.945 79.0677 234.433 78.9202 234.677 79.4082C234.921 79.8963 234.706 80.0249 234.404 79.9961C234.103 79.9672 233.532 79.7288 233.532 79.7288Z" fill="#FFB19C"/>
<path d="M204.098 77.0746C204.098 77.0746 204.755 76.3636 204.751 76.0464C204.748 75.7292 205.211 74.9373 205.084 74.7986C204.958 74.66 204.726 74.884 204.604 75.0992C204.482 75.3144 203.98 75.3011 203.864 75.8889C203.749 76.4768 204.098 77.0746 204.098 77.0746Z" fill="#FFB19C"/>
<path d="M100.118 73.4322L117.125 80.8811V74.2529L108.264 70.6094L117.125 66.9659V60.3986L100.118 67.8487V73.4322Z" fill="#003F54"/>
<path d="M132.76 55.809L118.065 86.5267H124.277L138.972 55.809H132.76Z" fill="#003F54"/>
<path d="M140.11 60.3986V67.028L148.971 70.6715L140.11 74.315V80.8811L157.116 73.4322V67.8487L140.11 60.3986Z" fill="#003F54"/>
<path d="M124.277 84.772H118.065V86.5256H124.277V84.772Z" fill="#003F54"/>
<path d="M138.971 54.0555H136.07V55.809H138.971V54.0555Z" fill="#2C3A64"/>
<path d="M100.118 71.6786L117.125 79.1276V72.4994L108.264 68.8559L117.125 65.2112V58.6451L100.118 66.0941V71.6786Z" fill="#2F539B"/>
<path d="M132.76 54.0544L118.065 84.772H124.277L138.972 54.0544H132.76Z" fill="#2F539B"/>
<path d="M140.11 58.6451V65.2733L148.971 68.918L140.11 72.5615V79.1276L157.116 71.6786V66.0941L140.11 58.6451Z" fill="#2F539B"/>
<path d="M195.497 120.556H194.461L185.984 88.2093L175.086 46.6275H53.3869L71.8219 120.556L70.5065 120.57L51.8485 45.6238L175.943 45.5162L176.051 45.9299L186.945 87.7357L195.497 120.556Z" fill="#94B0ED"/>
<path d="M195.684 121.277L194.685 121.411L185.984 88.2093L186.945 87.7357L195.684 121.277Z" fill="#AEC3FF"/>
<path d="M70.7771 64.0433C70.6729 64.1582 70.604 64.3007 70.5786 64.4537C70.5533 64.6067 70.5725 64.7638 70.6341 64.9062C70.8415 65.4807 71.5291 66.1263 72.3277 66.7629C72.4286 66.8461 72.5196 66.9204 72.5995 66.9847L72.6605 67.0391L72.707 67.0812C73.4513 67.7678 73.1707 67.9242 74.5083 69.3173C76.0334 70.9033 77.0826 70.9322 77.381 70.7869C77.6338 70.6638 77.1203 69.823 76.5524 68.8769L76.4692 68.7394L76.2474 68.3601C75.5819 67.221 75.7516 66.6875 75.9147 64.9938C76.0422 63.6174 78.0553 57.3041 78.0553 57.3041L75.1338 56.8006C75.1338 56.8006 74.2543 61.8283 73.2849 62.6025C72.7658 63.0151 72.1857 63.0196 71.6877 63.3257C71.6522 63.3467 71.6179 63.3689 71.5835 63.3911C71.2866 63.5713 71.0154 63.7907 70.7771 64.0433Z" fill="#FFB19C"/>
<path d="M70.7771 64.0433C70.6729 64.1582 70.604 64.3007 70.5786 64.4537C70.5533 64.6067 70.5725 64.7638 70.6341 64.9062C70.888 65.4796 71.558 66.1185 72.3299 66.7574C72.4309 66.8416 72.5196 66.9182 72.5995 66.9903L72.6605 67.0446L72.707 67.0868C73.4513 67.7733 73.1707 67.9297 74.5083 69.3228C76.0334 70.9089 77.0826 70.9377 77.381 70.7924C77.6338 70.6693 77.1203 69.8286 76.5524 68.8825C75.4864 68.4678 74.5486 67.7791 73.8339 66.886C72.9156 65.7137 72.3033 64.2085 71.6789 63.3368C71.6434 63.3578 71.609 63.38 71.5746 63.4022C71.2815 63.5796 71.0134 63.7952 70.7771 64.0433Z" fill="#2C3A64"/>
<path d="M94.3374 62.2188C94.5182 63.1205 95.8037 62.9708 97.2401 62.6192C98.6764 62.2676 98.3348 62.6857 100.379 62.4594C102.423 62.2332 103.041 61.4712 103.105 61.1673C103.161 60.8967 102.151 60.8024 101.068 60.677L100.657 60.6282C99.4373 60.4752 98.5389 59.6855 97.4275 59.0366C96.3749 58.4233 94.8044 55.9211 94.8044 55.9211L92.0005 56.1429C92.0005 56.1429 93.4723 58.3767 94.0413 59.3483C94.3741 59.9195 94.3585 60.6793 94.3164 61.2582C94.2806 61.5779 94.2877 61.901 94.3374 62.2188Z" fill="#FFB19C"/>
<path d="M97.2402 62.6191C98.6766 62.2687 98.335 62.6857 100.379 62.4594C102.423 62.2332 103.041 61.4712 103.105 61.1673C103.161 60.8966 102.152 60.8024 101.068 60.677L101.058 60.6981C100.182 61.2602 99.17 61.5745 98.1298 61.6076C96.7433 61.642 95.2737 61.2438 94.3165 61.2593C94.2808 61.5786 94.2879 61.9013 94.3376 62.2187C94.5184 63.1205 95.8039 62.9707 97.2402 62.6191Z" fill="#2C3A64"/>
<path d="M83.5943 44.2928L80.9734 51.3425L77.5517 60.5484C76.9411 60.5939 76.3271 60.5377 75.7349 60.382C74.9164 60.1458 73.9769 59.5269 73.9769 59.5269C73.9769 59.5269 74.9264 49.64 76.6988 43.9645C77.1535 42.5082 77.6626 41.3292 78.2238 40.6659C80.9712 37.4239 83.5943 44.2928 83.5943 44.2928Z" fill="#2C3A64"/>
<path d="M80.9303 33.0938C79.2133 32.5392 74.3165 33.2513 69.3952 34.214L68.3648 32.5148L57.7403 31.6852C57.7403 31.6852 54.2332 39.4603 56.1532 44.4148C56.4349 45.1424 56.9961 45.6093 57.9511 45.6249H58.1064H66.4837C71.7677 45.6249 77.6661 41.9924 78.4292 41.8394C79.6792 41.5898 80.1783 44.0876 81.4239 46.7107C82.6694 49.3338 93.1641 58.3268 93.1641 58.3268C93.1641 58.3268 94.7768 58.3423 95.4434 58.0927C96.1599 57.8243 96.4217 57.4749 96.4217 57.4749C96.4217 57.4749 84.8023 34.3427 80.9303 33.0938Z" fill="#2F539B"/>
<path d="M64.8465 0.168901C63.3581 -0.213753 61.3195 0.168902 60.9823 0.201067C56.9395 0.599249 55.5808 5.10902 56.193 8.60726C56.7576 11.8371 55.1194 12.7299 53.2216 15.281C49.4162 20.3941 51.9029 24.7087 54.9064 25.8178C56.7077 26.4833 59.2099 24.8018 59.2099 24.8018C59.2554 24.8207 67.0704 19.682 70.2736 16.7861C75.6097 14.6987 68.6376 1.14495 64.8465 0.168901Z" fill="#2C3A64"/>
<path d="M65.4433 14.9626C65.5542 15.3364 63.7796 16.0241 62.432 15.7712C61.162 15.535 59.7379 14.0476 60.0318 13.9078C60.5176 13.6771 60.8448 13.1026 60.5786 9.99812L60.8204 10.0247L64.8843 10.4895C64.8843 10.4895 64.8965 11.755 64.9952 12.9407C65.0695 13.9334 65.2702 14.3504 65.4433 14.9626Z" fill="#FFB19C"/>
<path d="M64.8843 10.4873C64.8843 10.4873 64.8965 11.7528 64.9952 12.9385C62.7525 13.0582 61.4027 11.115 60.8248 10.0225L64.8843 10.4873Z" fill="#FF9989"/>
<path d="M65.7228 11.5476C65.7228 11.5476 60.4366 12.0689 60.1627 8.77474C59.8887 5.48059 59.0214 3.32442 62.3809 2.85193C65.7405 2.37943 66.5058 3.58285 66.8652 4.66094C67.2246 5.73902 67.0915 11.3269 65.7228 11.5476Z" fill="#FFB19C"/>
<path d="M65.1572 2.32951C65.1572 2.32951 64.4917 6.35681 61.4804 7.31289C59.2843 8.01054 58.2894 7.55025 58.2894 7.55025C58.9911 6.54466 59.4788 5.40572 59.7224 4.20396C59.7757 3.92177 59.9035 3.65895 60.0924 3.44269C60.2814 3.22643 60.5247 3.0646 60.7972 2.97392C62.3578 2.45596 64.2488 1.05178 65.1572 2.32951Z" fill="#2C3A64"/>
<path d="M64.16 3.18799C64.16 3.18799 65.1583 3.40982 66.04 4.69531C66.5225 5.39851 67.0804 7.16981 66.985 7.95286C66.985 7.95286 67.9112 4.22504 66.5613 2.83861C65.1305 1.36789 64.16 3.18799 64.16 3.18799Z" fill="#2C3A64"/>
<path d="M55.9247 25.7912C56.019 26.1916 56.0999 26.5598 56.1654 26.9003C56.2763 27.4482 56.3473 27.9207 56.3994 28.3422C56.5602 29.6432 56.5103 30.413 56.6212 31.2559C56.6927 31.7978 56.8251 32.3299 57.0161 32.842C57.2379 33.4465 62.98 33.9844 66.2486 33.7681C67.2856 33.7005 68.0765 33.5541 68.356 33.3123C69.5217 32.2996 69.4063 34.5323 69.566 23.8701C69.6437 18.6716 65.155 14.042 65.155 14.042C65.155 14.042 64.7967 16.2603 60.3457 13.6206C60.1882 13.5274 58.4347 16.1228 56.7477 19.3193C54.8899 22.8464 55.4001 23.5929 55.9247 25.7912Z" fill="#AEC3FF"/>
<path d="M80.9734 51.3425L77.5517 60.5484C76.9411 60.5939 76.3271 60.5377 75.7349 60.382C74.9164 60.1458 73.9769 59.5268 73.9769 59.5268C73.9769 59.5268 74.9264 49.64 76.6988 43.9645L80.9734 51.3425Z" fill="#2B478B"/>
<path d="M65.1571 14.0376C65.1571 14.0376 69.7368 14.814 70.2736 16.7861C70.8104 18.7581 74.5271 29.7852 74.5271 29.7852C74.5271 29.7852 71.6489 30.7679 70.573 29.6921C69.4972 28.6162 66.8308 19.7098 66.8308 19.7098L65.1571 14.0376Z" fill="#AEC3FF"/>
<path d="M83.8263 27.2508L84.911 26.8205C84.911 26.8205 85.5632 26.6763 85.9159 26.7872C86.2686 26.8981 87.1504 26.8859 87.1548 27.0312C87.1593 27.1765 86.15 27.6257 86.15 27.6257L86.1178 27.6135C86.5015 28.482 88.4193 28.9777 88.5124 29.2961C88.6233 29.682 87.736 29.8817 87.2458 30.0026C86.7555 30.1235 85.5688 30.1135 84.9809 29.4924C84.5528 29.0387 83.8263 28.4165 83.8263 28.4165V27.2508Z" fill="#FFB27D"/>
<path d="M64.5027 9.60327C64.5027 9.60327 64.7245 10.1456 65.3101 10.1456C65.8958 10.1456 66.0533 10.058 66.1642 9.9338C66.2522 9.82209 66.3267 9.70035 66.386 9.57111C66.386 9.57111 65.4144 9.38033 64.5027 9.60327Z" fill="white"/>
<path d="M73.2505 25.9742L84.342 26.8205C84.342 26.8205 84.5738 27.8952 83.8584 29.1153C83.8584 29.1153 73.8561 31.0707 71.2452 30.0725C68.6343 29.0742 68.9293 24.3637 68.9293 24.3637L73.2505 25.9742Z" fill="#F99746"/>
<path d="M56.3993 28.3378C56.5601 29.6388 56.5102 30.4085 56.6211 31.2515C60.7793 31.2648 66.3383 28.035 66.3383 28.035L56.3993 28.3378Z" fill="#2F539B"/>
<path d="M66.3385 25.3132C66.3385 25.3132 59.8611 25.1202 58.7686 21.4378C57.5696 17.3928 56.2253 23.1015 56.2253 23.1015L56.9407 26.7451H64.0481L66.3385 25.3132Z" fill="#2F539B"/>
<path d="M77.6316 15.322L77.2822 14.4547C77.0986 14.0004 76.7834 13.6113 76.3771 13.3374C75.9707 13.0635 75.4919 12.9173 75.0019 12.9174H68.5444V34.5091H95.257V17.0146H80.1416C79.6022 17.0146 79.0752 16.8535 78.628 16.5519C78.1808 16.2503 77.8338 15.8221 77.6316 15.322Z" fill="#56CCF2"/>
<path d="M72.574 26.0474V24.4946L78.0332 22.1044V23.6938L74.2199 25.2621L78.0332 26.8304V28.4387L72.574 26.0474Z" fill="white"/>
<path d="M83.7053 20.2388H85.1638L80.1727 30.6825H78.7186L83.7053 20.2388Z" fill="white"/>
<path d="M91.2284 24.4902V26.043L85.7692 28.4343V26.8482L89.5813 25.2777L85.7692 23.7105V22.1L91.2284 24.4902Z" fill="white"/>
<path d="M66.3385 26.165L66.8066 25.4285C67.123 25.3077 67.4216 25.1442 67.6939 24.9427C68.3128 24.5079 68.2307 23.8569 68.5401 23.9267V25.3564H68.5069C69.8378 25.7102 71.3906 25.3254 71.4184 25.6559C71.5038 26.5654 70.8006 26.9747 70.2105 27.2597C69.7602 27.4815 69.2478 27.8043 68.4359 27.5503C67.8403 27.3651 66.9031 27.1765 66.9031 27.1765L66.3385 26.165Z" fill="#FFB19C"/>
<path d="M60.3468 13.6161C60.3468 13.6161 56.142 13.8912 55.0905 15.5316C54.0391 17.172 52.7347 25.4995 53.2815 28.3589C53.8283 31.2182 67.2944 27.812 67.2944 27.812L66.863 25.3309C66.863 25.3309 59.0912 25.3753 58.6487 24.3637C58.0619 23.0172 60.3468 13.6161 60.3468 13.6161Z" fill="#AEC3FF"/>
<path d="M80.6451 17.0057C80.6097 17.1166 81.2774 18.2158 82.2323 18.025C82.8279 17.9052 83.6021 16.623 82.9222 16.3402C81.7876 15.8688 80.7416 16.714 80.6451 17.0057Z" fill="#FFB19C"/>
</svg>
