<svg width="193" height="160" viewBox="0 0 193 160" fill="none" xmlns="http://www.w3.org/2000/svg">
<path fill-rule="evenodd" clip-rule="evenodd" d="M23.0174 31.9091H69.3973C70.8559 31.9122 72.2539 32.493 73.2854 33.5243C74.3169 34.5556 74.8979 35.9535 74.9014 37.4121V85.2305C74.8965 86.6877 74.3155 88.0837 73.2852 89.114C72.2548 90.1444 70.8588 90.7254 69.4016 90.7303H23.0174C21.5602 90.7257 20.164 90.1448 19.1336 89.1144C18.1032 88.084 17.5223 86.6877 17.5177 85.2305V37.4121C17.5211 35.9542 18.1016 34.557 19.1321 33.5258C20.1627 32.4947 21.5596 31.9134 23.0174 31.9091Z" fill="#2F539B"/>
<path fill-rule="evenodd" clip-rule="evenodd" d="M43.6193 36.8255L48.7958 40.0237L43.6193 43.2208V36.8255Z" fill="#56CCF2"/>
<path fill-rule="evenodd" clip-rule="evenodd" d="M55.2965 37.0334L60.1368 40.0237L55.2965 43.013V37.0334Z" fill="white"/>
<path d="M54.773 37.0345H54.0004V43.0108H54.773V37.0345Z" fill="white"/>
<path fill-rule="evenodd" clip-rule="evenodd" d="M37.1192 37.0334L32.2789 40.0237L37.1192 43.013V37.0334Z" fill="white"/>
<path d="M38.4153 37.0345H37.6427V43.0108H38.4153V37.0345Z" fill="white"/>
<path fill-rule="evenodd" clip-rule="evenodd" d="M27.8175 37.0334L22.9772 40.0237L27.8175 43.013V37.0334Z" fill="white"/>
<path d="M22.4917 37.0345H21.7191V43.0108H22.4917V37.0345Z" fill="white"/>
<path fill-rule="evenodd" clip-rule="evenodd" d="M64.5972 37.0334L69.4385 40.0237L64.5972 43.013V37.0334Z" fill="white"/>
<path d="M70.6956 37.0345H69.923V43.0108H70.6956V37.0345Z" fill="white"/>
<path d="M39.8476 54.4194H39.15V90.7292H39.8476V54.4194Z" fill="#6BB6FF"/>
<path d="M54.1083 54.4194H53.4108V90.7292H54.1083V54.4194Z" fill="#6BB6FF"/>
<path d="M68.3689 54.4194H67.6714V90.7292H68.3689V54.4194Z" fill="#6BB6FF"/>
<path d="M25.5866 56.1769H24.889V90.7292H25.5866V56.1769Z" fill="#56CCF2"/>
<path fill-rule="evenodd" clip-rule="evenodd" d="M22.1687 54.2258L25.2385 56.2911L28.3072 54.2258H22.1687Z" fill="#56CCF2"/>
<path fill-rule="evenodd" clip-rule="evenodd" d="M23.5211 52.1234C23.5211 52.8851 23.9194 53.3367 24.7421 53.3367H25.7791C26.5409 53.3367 26.9555 52.8753 26.9555 52.1234V49.9263C26.9555 49.2734 26.7019 48.713 25.7856 48.713H24.7475C23.9575 48.713 23.5211 49.1689 23.5211 49.9894V52.1234ZM24.7475 51.8644V50.1798C24.7475 50.0971 24.7355 49.8131 25.0642 49.8131H25.4244C25.5952 49.8131 25.728 49.8882 25.728 50.1798V51.8698C25.728 52.2104 25.5832 52.2365 25.3743 52.2365H25.1088C24.9695 52.2365 24.7475 52.2169 24.7475 51.8644Z" fill="white"/>
<path fill-rule="evenodd" clip-rule="evenodd" d="M38.5121 50.0025L39.2586 49.8762V53.3367H40.4861V48.713H39.2716L38.5121 49.2255V50.0025Z" fill="white"/>
<path fill-rule="evenodd" clip-rule="evenodd" d="M52.0778 49.7554H53.4924C54.0049 49.7554 54.2139 49.8001 54.2139 50.1842C54.2139 50.6576 52.6382 51.9329 52.1256 52.2735V53.3356H55.4403V52.2365H54.117C54.5088 51.8829 55.4446 51.0395 55.4446 50.169C55.4446 49.2984 54.9898 48.652 54.0028 48.652C53.3566 48.6381 52.711 48.7017 52.0799 48.8414L52.0778 49.7554Z" fill="white"/>
<path fill-rule="evenodd" clip-rule="evenodd" d="M66.385 49.8011H67.8464C68.1729 49.8011 68.4406 49.8011 68.4406 50.1276V50.1853C68.4406 50.4758 68.2828 50.4758 67.8464 50.4943L66.8159 50.5574V51.5575L67.8464 51.6021C68.2513 51.6206 68.4286 51.6337 68.4286 51.9286V51.9852C68.4286 52.2833 68.3024 52.2888 67.8084 52.2888H66.4296L66.4231 53.2192C66.9802 53.415 67.6952 53.3965 68.4156 53.3965C69.1871 53.3965 69.6561 52.9721 69.6561 52.2071V52.0232C69.6561 51.5433 69.5223 51.1755 69.124 51.0439C69.5103 50.9046 69.6561 50.5825 69.6561 50.12V49.8741C69.6561 49.121 69.1555 48.7162 68.4591 48.7032C67.7191 48.6912 66.9356 48.6847 66.3839 48.8805L66.385 49.8011Z" fill="white"/>
<path style="mix-blend-mode:multiply" opacity="0.5" fill-rule="evenodd" clip-rule="evenodd" d="M46.2819 31.9091H69.3962C70.855 31.912 72.2532 32.4926 73.285 33.5239C74.3167 34.5552 74.8979 35.9533 74.9013 37.4121V85.2305C74.8965 86.6877 74.3155 88.0837 73.2851 89.114C72.2548 90.1444 70.8587 90.7254 69.4016 90.7303H65.8182V42.2121H46.2819V31.9091Z" fill="#90FDFD"/>
<path d="M144.666 2.52681H78.7829C74.115 2.52681 70.3309 6.31089 70.3309 10.9788V141.505C70.3309 146.173 74.115 149.957 78.7829 149.957H144.666C149.334 149.957 153.118 146.173 153.118 141.505V10.9788C153.118 6.31089 149.334 2.52681 144.666 2.52681Z" fill="#163560"/>
<path d="M144.02 3.36472H79.4294C74.8529 3.36472 71.1428 7.07475 71.1428 11.6513V140.833C71.1428 145.409 74.8529 149.119 79.4294 149.119H144.02C148.597 149.119 152.307 145.409 152.307 140.833V11.6513C152.307 7.07475 148.597 3.36472 144.02 3.36472Z" fill="white"/>
<path d="M123.207 9.25725H100.241C99.8978 9.25725 99.6196 9.53544 99.6196 9.8786V10.9516C99.6196 11.2947 99.8978 11.5729 100.241 11.5729H123.207C123.55 11.5729 123.829 11.2947 123.829 10.9516V9.8786C123.829 9.53544 123.55 9.25725 123.207 9.25725Z" fill="#2F539B"/>
<path fill-rule="evenodd" clip-rule="evenodd" d="M145.495 8.98083C145.778 8.98084 146.056 9.06505 146.292 9.22281C146.528 9.38057 146.712 9.6048 146.821 9.86714C146.929 10.1295 146.958 10.4181 146.902 10.6966C146.847 10.975 146.71 11.2308 146.509 11.4315C146.308 11.6322 146.052 11.7688 145.774 11.824C145.495 11.8793 145.207 11.8507 144.945 11.7419C144.682 11.6331 144.458 11.449 144.301 11.2128C144.143 10.9766 144.059 10.699 144.059 10.4151C144.059 10.0346 144.211 9.66979 144.48 9.40085C144.749 9.13191 145.114 8.98083 145.495 8.98083Z" fill="#2F539B"/>
<path fill-rule="evenodd" clip-rule="evenodd" d="M98.5858 50.2005H124.864C125.102 50.2017 125.33 50.297 125.499 50.4657C125.668 50.6345 125.763 50.863 125.763 51.1015V52.6587C125.763 52.8973 125.668 53.1258 125.499 53.2945C125.33 53.4633 125.102 53.5586 124.864 53.5598H98.5858C98.3472 53.5586 98.1187 53.4633 97.95 53.2946C97.7813 53.1259 97.686 52.8974 97.6848 52.6587V51.1015C97.6854 50.8627 97.7805 50.6339 97.9494 50.4651C98.1182 50.2962 98.3471 50.2011 98.5858 50.2005Z" fill="#56CCF2"/>
<path fill-rule="evenodd" clip-rule="evenodd" d="M94.1373 82.9453C94.1498 83.7128 94.0768 84.4792 93.9197 85.2305C93.6941 86.2041 93.1587 87.0935 92.3135 87.8988C91.1143 89.0349 89.5118 89.6025 87.5059 89.6018C85.4593 89.6018 83.8633 89.0232 82.7178 87.8661C82.0971 87.233 81.6653 86.4394 81.4708 85.5744C81.3119 84.9269 81.2335 84.0509 81.2335 82.9508V74.4128H85.0759V82.4143C85.0759 83.0585 85.0868 83.5351 85.1086 83.854C85.1793 84.8573 85.6385 85.5559 86.4851 85.9564C86.8452 86.1251 87.2389 86.2099 87.6365 86.2045C88.5796 86.2045 89.2876 85.8762 89.7606 85.2197C90.1161 84.7343 90.2938 83.7992 90.2938 82.4143V74.4128H94.1362V82.9453H94.1373ZM101.091 89.2188H97.2495V74.4074H101.091V89.2188ZM124.508 82.9453C124.52 83.7128 124.447 84.4791 124.29 85.2305C124.064 86.2041 123.528 87.0935 122.684 87.8988C121.485 89.0349 119.882 89.6025 117.875 89.6018C115.829 89.6018 114.233 89.0232 113.087 87.8661C112.467 87.2328 112.035 86.4393 111.84 85.5744C111.681 84.9269 111.604 84.0509 111.604 82.9508V74.4128H115.445V82.4143C115.445 83.0585 115.456 83.5351 115.479 83.854C115.549 84.8573 116.008 85.5559 116.856 85.9564C117.216 86.1252 117.609 86.21 118.007 86.2045C118.946 86.2045 119.654 85.8762 120.131 85.2197C120.486 84.7343 120.663 83.7992 120.664 82.4143V74.4128H124.506V82.9453H124.508ZM141.832 89.2188H137.191L134.027 84.4002L130.715 89.2188H126.066L131.833 81.3207L127.104 74.4074H131.841L134.044 78.2487L136.342 74.4074H141.072L136.253 81.3207L141.832 89.2188Z" fill="#003F54"/>
<path fill-rule="evenodd" clip-rule="evenodd" d="M110.979 74.7142L104.475 89.2884H101.618L108.262 74.7142H110.979Z" fill="#003F54"/>
<path fill-rule="evenodd" clip-rule="evenodd" d="M76.2691 68.8521H147.237V95.1516H75.8295V68.8521H76.2691ZM146.359 69.7303H76.7087V94.2723H146.359V69.7303Z" fill="#2F539B"/>
<path fill-rule="evenodd" clip-rule="evenodd" d="M74.3311 66.9141H78.8014V71.8229H73.8926V66.9141H74.3311ZM77.9222 67.7933H74.7664V70.9491H77.9222V67.7933Z" fill="#2F539B"/>
<path fill-rule="evenodd" clip-rule="evenodd" d="M74.3311 92.1797H78.8014V97.0918H73.8926V92.1819L74.3311 92.1797ZM77.9222 93.059H74.7664V96.2148H77.9222V93.059Z" fill="#2F539B"/>
<path fill-rule="evenodd" clip-rule="evenodd" d="M144.706 66.9141H149.175V71.8229H144.266V66.9141H144.706ZM148.297 67.7933H145.141V70.9491H148.297V67.7933Z" fill="white"/>
<path fill-rule="evenodd" clip-rule="evenodd" d="M144.706 92.1797H149.175V97.0918H144.266V92.1819L144.706 92.1797ZM148.297 93.059H145.141V96.2148H148.297V93.059Z" fill="#2F539B"/>
<path fill-rule="evenodd" clip-rule="evenodd" d="M89.5244 112.218H133.923C135.756 112.223 137.513 112.954 138.809 114.25C140.105 115.547 140.836 117.303 140.841 119.136C140.836 120.97 140.105 122.726 138.809 124.023C137.513 125.319 135.756 126.05 133.923 126.055H89.5244C87.6912 126.05 85.9345 125.319 84.6382 124.023C83.3419 122.726 82.6112 120.97 82.6057 119.136C82.6112 117.303 83.3419 115.547 84.6382 114.25C85.9345 112.954 87.6912 112.223 89.5244 112.218Z" fill="#56CCF2"/>
<path d="M188.903 98.2595H160.846C159.091 98.2595 157.668 99.6821 157.668 101.437V118.023C157.668 119.778 159.091 121.201 160.846 121.201H188.903C190.658 121.201 192.08 119.778 192.08 118.023V101.437C192.08 99.6821 190.658 98.2595 188.903 98.2595Z" fill="#2F539B"/>
<path fill-rule="evenodd" clip-rule="evenodd" d="M188.034 108.862L179.559 103.907L180.281 101.754L190.577 107.774L189.702 110.382L174.942 117.707V117.677L175.959 114.644L188.034 108.862Z" fill="white"/>
<path fill-rule="evenodd" clip-rule="evenodd" d="M170.797 118.18L176.463 101.282L178.903 101.28L173.236 118.18H170.797Z" fill="white"/>
<path fill-rule="evenodd" clip-rule="evenodd" d="M161.714 110.598L170.189 115.554L169.468 117.707L159.171 111.687L160.046 109.079L174.806 101.754V101.783L173.79 104.816L161.714 110.598Z" fill="white"/>
<path style="mix-blend-mode:multiply" opacity="0.5" fill-rule="evenodd" clip-rule="evenodd" d="M74.4661 3.72488H83.8626C84.8024 3.72832 85.7027 4.10318 86.3673 4.76773C87.0318 5.43227 87.4067 6.33259 87.4101 7.27239V38.5471C87.4061 39.4867 87.0311 40.3867 86.3666 41.0511C85.7022 41.7155 84.8022 42.0906 83.8626 42.0946H70.3309V10.9788C70.3349 9.51548 70.7179 8.07817 71.4426 6.80691C72.1673 5.53566 73.2089 4.47383 74.4661 3.72488Z" fill="#8897BA"/>
<path fill-rule="evenodd" clip-rule="evenodd" d="M52.9558 0H80.6101C81.55 0.00315545 82.4505 0.377923 83.1151 1.04253C83.7797 1.70713 84.1544 2.60762 84.1576 3.54751V34.8222C84.1539 35.7619 83.7789 36.662 83.1144 37.3265C82.45 37.991 81.5498 38.366 80.6101 38.3697H52.9558C52.016 38.3662 51.1157 37.9914 50.4512 37.3268C49.7866 36.6623 49.4118 35.762 49.4083 34.8222V3.54751C49.4112 2.60753 49.7859 1.70688 50.4505 1.04221C51.1152 0.377546 52.0159 0.00287017 52.9558 0Z" fill="#56CCF2"/>
<path fill-rule="evenodd" clip-rule="evenodd" d="M59.1389 4.32993H79.8516C80.0397 4.33079 80.2198 4.40596 80.3527 4.53907C80.4856 4.67218 80.5605 4.85242 80.5611 5.04052V6.268C80.5603 6.4559 80.4852 6.63587 80.3524 6.76874C80.2195 6.90161 80.0395 6.97664 79.8516 6.9775H59.1389C58.951 6.97693 58.7708 6.90199 58.6379 6.76905C58.505 6.63612 58.43 6.45599 58.4294 6.268V5.04052C58.4297 4.85233 58.5045 4.67193 58.6375 4.53876C58.7705 4.40559 58.9508 4.3305 59.1389 4.32993Z" fill="#2F539B"/>
<path d="M56.5218 3.49094H53.4041C53.1829 3.49094 53.0037 3.67023 53.0037 3.89139V7.41822C53.0037 7.63939 53.1829 7.81868 53.4041 7.81868H56.5218C56.743 7.81868 56.9222 7.63939 56.9222 7.41822V3.89139C56.9222 3.67023 56.743 3.49094 56.5218 3.49094Z" fill="#2F539B"/>
<path fill-rule="evenodd" clip-rule="evenodd" d="M53.7143 10.1039H79.6992C79.8872 10.105 80.0672 10.1803 80.2 10.3133C80.3329 10.4464 80.4079 10.6264 80.4087 10.8144V12.0419C80.4076 12.2297 80.3325 12.4095 80.1996 12.5424C80.0668 12.6752 79.887 12.7503 79.6992 12.7514H53.7143C53.5262 12.7506 53.3462 12.6756 53.2131 12.5427C53.0801 12.4099 53.0048 12.2299 53.0037 12.0419V10.8144C53.0042 10.6262 53.0793 10.4457 53.2124 10.3126C53.3456 10.1795 53.526 10.1044 53.7143 10.1039Z" fill="#2F539B"/>
<path fill-rule="evenodd" clip-rule="evenodd" d="M53.7143 15.3359H79.6992C79.8873 15.3368 80.0674 15.412 80.2003 15.5451C80.3332 15.6782 80.4081 15.8584 80.4087 16.0465V17.2729C80.4079 17.4609 80.3329 17.641 80.2 17.774C80.0672 17.9071 79.8872 17.9824 79.6992 17.9835H53.7143C53.5261 17.9826 53.3458 17.9075 53.2127 17.7744C53.0797 17.6413 53.0045 17.4611 53.0037 17.2729V16.0465C53.0039 15.8581 53.0789 15.6776 53.2121 15.5444C53.3453 15.4112 53.5259 15.3362 53.7143 15.3359Z" fill="#2F539B"/>
<path fill-rule="evenodd" clip-rule="evenodd" d="M59.1389 21.2263H79.8516C80.0396 21.2269 80.2197 21.3018 80.3527 21.4347C80.4856 21.5677 80.5605 21.7478 80.5611 21.9358V23.1633C80.5603 23.3513 80.4853 23.5314 80.3524 23.6644C80.2196 23.7975 80.0396 23.8727 79.8516 23.8739H59.1389C58.9509 23.873 58.7707 23.7978 58.6378 23.6647C58.5049 23.5316 58.43 23.3514 58.4294 23.1633V21.9358C58.4297 21.7477 58.5046 21.5674 58.6376 21.4344C58.7706 21.3014 58.9509 21.2266 59.1389 21.2263Z" fill="#2F539B"/>
<path d="M56.5218 20.3862H53.4041C53.1829 20.3862 53.0037 20.5655 53.0037 20.7867V24.3135C53.0037 24.5347 53.1829 24.714 53.4041 24.714H56.5218C56.743 24.714 56.9222 24.5347 56.9222 24.3135V20.7867C56.9222 20.5655 56.743 20.3862 56.5218 20.3862Z" fill="#2F539B"/>
<path fill-rule="evenodd" clip-rule="evenodd" d="M53.7143 27.0002H79.6992C79.8871 27.0011 80.0671 27.0761 80.2 27.209C80.3328 27.3419 80.4079 27.5218 80.4087 27.7097V28.9372C80.4079 29.1252 80.3329 29.3053 80.2 29.4384C80.0672 29.5714 79.8872 29.6467 79.6992 29.6478H53.7143C53.5261 29.647 53.3458 29.5718 53.2127 29.4387C53.0797 29.3057 53.0045 29.1254 53.0037 28.9372V27.7097C53.0042 27.5216 53.0793 27.3413 53.2125 27.2083C53.3457 27.0753 53.5261 27.0005 53.7143 27.0002Z" fill="#2F539B"/>
<path fill-rule="evenodd" clip-rule="evenodd" d="M53.7143 32.2355H79.6992C79.8872 32.2367 80.0672 32.3119 80.2 32.445C80.3329 32.578 80.4079 32.7581 80.4087 32.9461V34.1736C80.4076 34.3614 80.3325 34.5412 80.1996 34.674C80.0668 34.8068 79.887 34.882 79.6992 34.8831H53.7143C53.5262 34.8822 53.3462 34.8072 53.2131 34.6744C53.0801 34.5416 53.0048 34.3616 53.0037 34.1736V32.9418C53.0054 32.7542 53.0809 32.5749 53.2139 32.4427C53.347 32.3105 53.5267 32.2361 53.7143 32.2355Z" fill="#2F539B"/>
<path style="mix-blend-mode:multiply" opacity="0.5" fill-rule="evenodd" clip-rule="evenodd" d="M139.969 30.2474H153.119V90.0186H139.969C136.435 90.0186 133.541 87.4265 133.541 84.2577V36.0083C133.541 32.8395 136.433 30.2474 139.969 30.2474Z" fill="#8897BA"/>
<path fill-rule="evenodd" clip-rule="evenodd" d="M143.923 28.503H186.788C188.245 28.5076 189.641 29.0884 190.671 30.1186C191.701 31.1488 192.282 32.5447 192.287 34.0017V80.0627C192.282 81.5197 191.701 82.9157 190.671 83.9461C189.641 84.9765 188.245 85.5575 186.788 85.5624H143.923C142.466 85.5578 141.07 84.9769 140.039 83.9465C139.009 82.9161 138.428 81.5199 138.423 80.0627V34.0017C138.428 32.5445 139.009 31.1482 140.039 30.1179C141.07 29.0876 142.466 28.507 143.923 28.503Z" fill="#56CCF2"/>
<path fill-rule="evenodd" clip-rule="evenodd" d="M166.446 53.5848C166.698 53.6913 166.921 53.8553 167.098 54.0636C167.304 54.2861 167.47 54.5413 167.591 54.8188L169.991 61.4742C170.093 61.7555 170.278 61.9996 170.521 62.1743C170.764 62.349 171.054 62.4463 171.353 62.4535L178.232 62.6037C178.746 62.6099 179.243 62.7863 179.646 63.1054C180.006 63.3956 180.275 63.7833 180.42 64.2222C180.565 64.6611 180.581 65.1324 180.465 65.5799C180.33 66.0779 180.034 66.5171 179.624 66.8292L174.044 71.1591C173.807 71.3426 173.632 71.5939 173.541 71.8796C173.45 72.1653 173.448 72.4719 173.535 72.7587L175.516 79.3554C175.668 79.8464 175.653 80.374 175.474 80.856C175.31 81.2884 175.023 81.6641 174.65 81.9378C174.277 82.2116 173.833 82.3717 173.371 82.399C172.857 82.4251 172.35 82.28 171.928 81.9866L166.071 78.0071C165.823 77.8383 165.529 77.7488 165.229 77.7503C164.928 77.7519 164.636 77.8444 164.389 78.0158L158.741 81.9333C158.321 82.2313 157.815 82.3814 157.3 82.3599C156.838 82.3367 156.393 82.1806 156.017 81.9104C155.641 81.6401 155.352 81.2672 155.183 80.8364C154.999 80.3557 154.979 79.8276 155.127 79.3347L157.097 72.5476C157.18 72.2595 157.174 71.953 157.08 71.6684C156.985 71.3837 156.808 71.1342 156.569 70.9523L151.092 66.7813C150.68 66.4742 150.381 66.0385 150.243 65.5429C150.124 65.0965 150.135 64.6251 150.275 64.1848C150.416 63.7445 150.68 63.354 151.037 63.0597C151.438 62.7358 151.936 62.5544 152.451 62.5439L159.525 62.3186L159.552 63.1892L152.479 63.4144C152.156 63.42 151.845 63.5325 151.593 63.7343C151.367 63.9204 151.2 64.1674 151.111 64.4458C151.022 64.7242 151.015 65.0223 151.091 65.3046C151.179 65.6152 151.368 65.8878 151.628 66.0794L157.105 70.2504C157.484 70.5391 157.767 70.9358 157.916 71.3884C158.066 71.841 158.074 72.3283 157.941 72.7859L155.972 79.573C155.878 79.8819 155.888 80.2132 156.002 80.5154C156.111 80.7865 156.294 81.0211 156.531 81.1915C156.768 81.3619 157.049 81.4611 157.341 81.4773C157.664 81.4892 157.981 81.3935 158.244 81.2053L163.894 77.2878C164.286 77.0163 164.751 76.8698 165.228 76.8677C165.705 76.8656 166.171 77.0078 166.565 77.2758L172.422 81.2553C172.687 81.4402 173.006 81.5324 173.329 81.5176C173.621 81.4976 173.901 81.3948 174.136 81.2214C174.371 81.0479 174.552 80.8109 174.657 80.5382C174.768 80.2343 174.775 79.9022 174.678 79.5937L172.697 72.997C172.561 72.5404 172.566 72.0532 172.711 71.5994C172.857 71.1455 173.136 70.7462 173.512 70.4539L179.091 66.1229C179.349 65.9294 179.535 65.6557 179.62 65.3449C179.692 65.0619 179.682 64.7643 179.59 64.4871C179.499 64.2098 179.33 63.9645 179.103 63.7801C178.85 63.5806 178.537 63.4705 178.214 63.4667L171.336 63.3165C170.859 63.306 170.397 63.1512 170.009 62.8727C169.622 62.5941 169.329 62.2048 169.167 61.756L166.768 55.105C166.687 54.9344 166.579 54.7778 166.449 54.6414C166.367 54.5393 166.265 54.4558 166.149 54.3966L166.446 53.5848Z" fill="white"/>
<path fill-rule="evenodd" clip-rule="evenodd" d="M163.302 49.836H167.461V51.5673C171.376 51.0649 175.019 49.2982 177.838 46.5356C180.657 43.773 182.497 40.1656 183.078 36.2618H181.347V31.661H185.946V36.2618H183.965C183.377 40.4001 181.442 44.2293 178.459 47.1564C175.475 50.0835 171.61 51.9451 167.461 52.4531V52.8883H182.798V51.3431H186.664V55.2095H182.798V53.6588H167.461V54.4347H162.862V53.6588H147.913V55.2051H144.046V51.3388H147.913V52.884H162.862V52.4487C158.714 51.9414 154.849 50.0804 151.865 47.1541C148.882 44.2278 146.946 40.3994 146.359 36.2618H144.377V31.661H148.977V36.2618H147.246C147.826 40.1662 149.665 43.7742 152.484 46.5373C155.303 49.3004 158.947 51.0673 162.862 51.5695V49.836H163.302ZM185.788 52.2169H183.677V54.3258H185.788V52.2169ZM147.037 52.2169H144.927V54.3258H147.037V52.2169ZM185.069 32.5402H182.228V35.3815H185.069V32.5402ZM148.1 32.5402H145.259V35.3815H148.1V32.5402ZM166.584 50.713H163.743V53.5543H166.584V50.713Z" fill="white"/>
<path fill-rule="evenodd" clip-rule="evenodd" d="M165.355 33.2639L169.538 38.3566C168.437 41.9477 166.482 45.9294 166.482 49.7163H165.639V40.8464C166.365 40.7049 166.915 40.0303 166.915 39.2141C166.915 38.3011 166.217 37.5601 165.355 37.5601C164.494 37.5601 163.796 38.3011 163.796 39.2141C163.796 40.0248 164.347 40.6995 165.072 40.8464V49.7163H164.229C164.229 45.9294 162.24 41.6756 161.172 38.3566L165.355 33.2639Z" fill="#2F539B"/>
<path d="M167.649 33.0168H163.061V35.7896H167.649V33.0168Z" fill="#2F539B"/>
<path fill-rule="evenodd" clip-rule="evenodd" d="M45.7553 124.327C49.5281 125.089 55.0137 125.663 58.4872 124.966C51.4411 117.104 41.5527 120.239 40.2752 121.579C39.9541 122.67 41.6028 123.486 45.7553 124.327Z" fill="#2E388E"/>
<path fill-rule="evenodd" clip-rule="evenodd" d="M41.0965 147.232C40.5405 148.789 40.2042 150.664 40.2118 152.117C40.2118 152.843 40.3577 153.376 41.1749 153.497C41.5014 153.546 41.7897 153.688 41.8713 153.832C42.0759 154.198 41.7832 154.894 41.0704 154.974C39.622 155.136 37.0115 154.974 35.9233 154.827C34.7796 154.676 35.685 153.709 36.1464 151.174C36.2552 150.597 36.3324 150.075 36.1464 149.716C35.7949 149.011 35.7894 148.327 36.302 147.399C36.7253 146.637 37.3804 146.324 38.0725 145.699C39.523 144.392 41.6221 145.763 41.0965 147.232Z" fill="#143D7A"/>
<path fill-rule="evenodd" clip-rule="evenodd" d="M54.4434 96.0711C52.3088 98.2183 50.6474 100.789 49.5661 103.617C48.6825 105.867 47.7978 108.126 46.7901 111.966C43.8585 123.136 41.1446 134.875 38.0573 145.849C38.0323 146.812 40.1543 147.635 41.039 147.046C46.8358 134.819 53.5902 122.208 58.6351 109.694C60.4469 105.199 60.966 102.311 61.8997 96.6577L56.9821 96.2137L54.4434 96.0711Z" fill="url(#paint0_linear_105_15431)"/>
<path fill-rule="evenodd" clip-rule="evenodd" d="M41.0497 147.04C46.8465 134.813 53.5901 122.216 58.6349 109.702C60.4468 105.207 60.9658 102.318 61.8995 96.6653L59.179 96.4193L56.0864 100.956C54.6271 105.635 53.713 109.805 52.3865 114.034C51.5541 116.697 48.3602 118.837 45.8476 120.061L44.5994 120.67L44.1761 122.383C44.9498 123.373 47.5365 124.205 48.7911 124.528C46.4537 130.614 42.4894 140.695 40.609 147.213C40.7676 147.191 40.9187 147.132 41.0497 147.04Z" fill="url(#paint1_linear_105_15431)"/>
<path fill-rule="evenodd" clip-rule="evenodd" d="M56.0267 150.516C55.6871 151.291 55.2334 151.94 55.1006 152.57C54.8057 153.965 55.4271 155.366 56.9647 155.381L67.0141 155.477C66.827 152.077 61.9192 153.551 60.0497 150.596C59.3174 149.434 56.5283 149.366 56.0267 150.516Z" fill="#143D7A"/>
<path fill-rule="evenodd" clip-rule="evenodd" d="M68.9674 96.2583C69.6997 99.1192 70.382 102.466 69.6714 106.572C68.7552 111.858 67.8041 117.716 66.3329 123.557C63.8986 133.222 62.139 140.732 59.9125 150.68C59.6949 151.616 56.6839 151.841 56.192 150.495C57.1311 137.663 58.2095 121.831 57.1115 109.429C54.2822 105.307 54.6925 102.138 58.3749 96.5532L65.2414 95.8883L68.9674 96.2583Z" fill="url(#paint2_linear_105_15431)"/>
<path fill-rule="evenodd" clip-rule="evenodd" d="M68.9674 96.2583C69.6997 99.1192 70.382 102.466 69.6714 106.572C68.7552 111.858 67.8041 117.716 66.3329 123.557C63.8986 133.222 62.139 140.732 59.9125 150.68C59.8997 150.733 59.8788 150.784 59.8505 150.831C60.4697 142.927 61.1835 135.151 63.1847 126.703C60.7537 126.92 59.4718 126.903 57.5109 126.569C57.6513 120.565 57.5773 114.689 57.1115 109.429C54.2822 105.307 54.6925 102.138 58.3749 96.5532L65.2414 95.8883L68.9674 96.2583Z" fill="url(#paint3_linear_105_15431)"/>
<path fill-rule="evenodd" clip-rule="evenodd" d="M85.6169 78.3205C86.666 77.3118 87.0316 77.1844 87.5975 75.8481C88.1144 74.6294 89.0404 73.9982 89.9621 73.3126C90.9012 72.6173 91.2625 71.9208 92.0536 71.1624C93.1059 70.1547 93.4802 71.0873 92.7457 72.095L91.4518 73.8698C92.2212 75.6479 93.1222 75.7056 92.478 76.8188C92.0808 77.5054 91.1722 78.3934 90.59 78.7286C89.0959 79.5926 89.5138 78.5044 87.4821 80.3968C86.3373 79.6165 86.2514 79.5491 85.6169 78.3205Z" fill="url(#paint4_linear_105_15431)"/>
<path fill-rule="evenodd" clip-rule="evenodd" d="M33.8853 75.3214L35.3228 76.7992C33.7526 76.6284 32.7536 75.1506 31.4891 73.8905C30.5489 72.9546 29.4672 73.3366 28.2419 73.4443C28.9591 75.3682 29.6142 76.4118 30.5554 77.451C32.956 80.0997 33.955 79.3369 35.5339 80.498C35.9692 80.8179 36.6123 81.5296 37.2892 82.3838L39.6647 80.1313C39.0803 79.6057 38.5874 78.993 38.101 78.4293C35.8517 75.8177 36.1673 75.5369 34.5263 74.5989C32.8853 73.6609 32.5838 73.984 33.8853 75.3214Z" fill="url(#paint5_linear_105_15431)"/>
<path fill-rule="evenodd" clip-rule="evenodd" d="M70.2223 80.8886C68.0948 94.75 72.3791 106.108 68.2004 123.966C56.9507 128.777 47.3637 117.849 40.2676 121.579C42.9881 117.458 51.3116 95.7359 52.8634 89.9261C48.4562 93.6423 44.74 91.4778 41.3471 87.8215C39.9933 86.3633 36.9464 82.3599 35.8647 81.1955C35.7722 80.3184 37.7245 78.3042 38.817 78.6774C41.5375 81.8332 45.3462 85.2969 47.6618 85.0858C49.9775 84.8747 50.3671 82.4437 51.1027 80.7472C54.7841 72.2593 57.1672 72.6695 61.9433 71.5117C68.1852 69.9958 70.9894 75.9004 70.2223 80.8886Z" fill="#AEC3FF"/>
<path fill-rule="evenodd" clip-rule="evenodd" d="M65.4122 82.5101C67.6887 87.5157 71.7618 90.5627 74.8534 91.036C80.5969 91.9066 85.3077 83.5656 88.7257 79.8875C89.1283 78.623 87.5287 76.5914 86.3545 77.1181C83.634 80.2738 79.0506 83.9824 76.736 83.7713C74.4214 83.5602 73.5987 81.6841 72.8642 79.9887C69.1828 71.5008 66.9879 71.9111 62.2075 70.7532C60.1748 71.8262 63.4829 78.2661 65.4122 82.5101Z" fill="#AEC3FF"/>
<path style="mix-blend-mode:multiply" opacity="0.5" fill-rule="evenodd" clip-rule="evenodd" d="M48.6934 85.8595C53.0244 74.5727 57.2378 69.3527 62.4546 70.7401L64.1413 71.1896C62.8932 73.1069 62.7811 73.8491 63.1696 75.4781C64.1566 79.6209 64.7105 83.2043 63.5341 85.4013C60.7973 90.5093 51.6293 90.2112 48.6934 85.8595Z" fill="#94B0ED"/>
<path fill-rule="evenodd" clip-rule="evenodd" d="M65.3688 61.2576C65.6343 62.4231 66.8553 67.3232 66.1306 68.1448C65.7638 68.5638 64.4983 68.4288 63.5113 68.3059L60.7299 63.7093L62.1597 61.0444L64.2643 60.6776L65.3688 61.2576Z" fill="url(#paint6_linear_105_15431)"/>
<path fill-rule="evenodd" clip-rule="evenodd" d="M65.3689 61.2576C65.42 61.4818 65.5071 61.8442 65.6083 62.2882C65.173 62.6353 64.3394 62.8791 63.31 62.841C63.3437 65.0946 64.273 66.4701 64.4787 68.4071C64.1523 68.3831 63.8258 68.344 63.5157 68.3059L60.7343 63.7093L62.1641 61.0444L64.2687 60.6776L65.3689 61.2576Z" fill="#FFA698"/>
<path fill-rule="evenodd" clip-rule="evenodd" d="M59.8724 57.9169C56.8657 56.6872 55.3161 58.0257 54.1256 60.2021C52.8622 62.5047 52.7251 63.6778 51.8665 64.5385C50.4116 65.9967 48.5138 65.6986 44.6311 65.9532C37.7875 66.4059 37.4273 72.8491 39.398 77.4478C41.7344 82.9029 48.43 86.5636 53.7273 87.2861C60.2837 88.1795 62.2664 85.0597 62.4329 81.2793C62.5874 77.8624 59.7124 74.8949 61.9454 72.4649C63.0999 71.2059 64.2621 71.1787 64.2219 68.8739C64.1925 67.1328 62.607 64.9074 62.9422 62.4264C63.3501 62.4389 63.7575 62.3905 64.1511 62.2827C68.0773 61.1456 66.506 55.1213 62.2163 56.4478C61.3795 56.7068 60.4839 57.2226 59.8724 57.9169Z" fill="#163560"/>
<path fill-rule="evenodd" clip-rule="evenodd" d="M45.0381 83.8616C47.7586 85.7039 50.9372 86.8987 53.7273 87.2785C60.2837 88.1719 62.2664 85.0521 62.4329 81.2717C62.5874 77.8548 59.7124 74.8873 61.9453 72.4573C63.0999 71.1983 64.2621 71.1711 64.2218 68.8663C64.1925 67.1252 62.607 64.8998 62.9421 62.4187C63.35 62.4313 63.7575 62.3829 64.1511 62.2751C65.9129 61.7647 66.5669 60.2706 66.3656 58.9017C65.47 61.0063 64.014 61.5569 61.6689 61.5264C61.176 64.7518 61.9345 66.9206 61.0367 68.7771C59.6025 71.7424 57.8254 70.2886 57.0659 73.9166C56.2726 77.7079 57.8091 79.968 56.1594 82.8528C54.2257 86.2469 48.2787 84.7256 45.0381 83.8616Z" fill="#041B3D"/>
<g style="mix-blend-mode:multiply" opacity="0.35">
<path fill-rule="evenodd" clip-rule="evenodd" d="M91.4191 159.96C141.911 159.96 182.838 158.129 182.838 155.869C182.838 153.61 141.908 151.779 91.4191 151.779C40.9302 151.779 0 153.61 0 155.869C0 158.129 40.9302 159.96 91.4191 159.96Z" fill="#B6D1FF"/>
</g>
<g style="mix-blend-mode:multiply" opacity="0.35">
<path fill-rule="evenodd" clip-rule="evenodd" d="M79.832 157.501C120.578 157.501 153.611 156.771 153.611 155.868C153.611 154.966 120.582 154.236 79.832 154.236C39.0824 154.236 6.05249 154.966 6.05249 155.868C6.05249 156.771 39.0857 157.501 79.832 157.501Z" fill="#B6D1FF"/>
</g>
<path d="M111.12 19.713C111.419 18.7917 112.722 18.7917 113.022 19.713L115.726 28.0349C115.86 28.4469 116.243 28.7258 116.677 28.7258H125.427C126.396 28.7258 126.798 29.9655 126.015 30.5349L118.936 35.6781C118.585 35.9327 118.438 36.3841 118.572 36.7961L121.276 45.118C121.576 46.0393 120.521 46.8054 119.737 46.236L112.658 41.0928C112.308 40.8382 111.833 40.8382 111.483 41.0928L104.404 46.236C103.62 46.8054 102.566 46.0393 102.865 45.118L105.569 36.7961C105.703 36.3841 105.556 35.9327 105.206 35.6781L98.1266 30.5349C97.3429 29.9655 97.7457 28.7258 98.7144 28.7258H107.465C107.898 28.7258 108.282 28.4469 108.416 28.0349L111.12 19.713Z" fill="#003F54"/>
<defs>
<linearGradient id="paint0_linear_105_15431" x1="36.7417" y1="138.344" x2="48.5366" y2="119.852" gradientUnits="userSpaceOnUse">
<stop stop-color="#FFB89E"/>
<stop offset="1" stop-color="#FFA799"/>
</linearGradient>
<linearGradient id="paint1_linear_105_15431" x1="55.514" y1="105.921" x2="40.9366" y2="140.696" gradientUnits="userSpaceOnUse">
<stop stop-color="#FF8A78"/>
<stop offset="1" stop-color="#FFA799"/>
</linearGradient>
<linearGradient id="paint2_linear_105_15431" x1="46.3406" y1="137.315" x2="60.4882" y2="122.241" gradientUnits="userSpaceOnUse">
<stop stop-color="#FFB89E"/>
<stop offset="1" stop-color="#FFA799"/>
</linearGradient>
<linearGradient id="paint3_linear_105_15431" x1="67.4461" y1="107.508" x2="50.0491" y2="140.886" gradientUnits="userSpaceOnUse">
<stop stop-color="#FF8A78"/>
<stop offset="1" stop-color="#FFA799"/>
</linearGradient>
<linearGradient id="paint4_linear_105_15431" x1="90.7554" y1="72.8251" x2="88.7836" y2="78.3684" gradientUnits="userSpaceOnUse">
<stop stop-color="#FFB89E"/>
<stop offset="1" stop-color="#FFA799"/>
</linearGradient>
<linearGradient id="paint5_linear_105_15431" x1="33.9158" y1="76.1158" x2="34.2259" y2="81.6808" gradientUnits="userSpaceOnUse">
<stop stop-color="#FFB89E"/>
<stop offset="1" stop-color="#FFA799"/>
</linearGradient>
<linearGradient id="paint6_linear_105_15431" x1="63.3622" y1="63.2937" x2="63.8018" y2="67.851" gradientUnits="userSpaceOnUse">
<stop stop-color="#FFB89E"/>
<stop offset="1" stop-color="#FFA799"/>
</linearGradient>
</defs>
</svg>
