<svg width="212" height="160" viewBox="0 0 212 160" fill="none" xmlns="http://www.w3.org/2000/svg">
<path d="M166.115 158.574H40.2417V159.96H166.115V158.574Z" fill="#2F539B"/>
<path d="M116.386 118.909H95.0875L81.402 154.999H130.072L116.386 118.909Z" fill="#D2E0FF"/>
<path d="M132.817 159.95H78.6515L76.3057 154.931H135.168L132.817 159.95Z" fill="#DFEBFD"/>
<g style="mix-blend-mode:multiply">
<path d="M90.51 130.98L125.998 144.261L119.485 127.083H91.9839L90.51 130.98Z" fill="#A5ACBA"/>
</g>
<path d="M176.407 21.7972H35.0623C33.1505 21.7972 31.6007 23.347 31.6007 25.2588V127.456C31.6007 129.368 33.1505 130.918 35.0623 130.918H176.407C178.318 130.918 179.868 129.368 179.868 127.456V25.2588C179.868 23.347 178.318 21.7972 176.407 21.7972Z" fill="#D2E0FF"/>
<path d="M108.046 26.0736C108.046 26.5303 107.911 26.9768 107.657 27.3566C107.403 27.7364 107.043 28.0324 106.621 28.2072C106.199 28.382 105.734 28.4278 105.286 28.3386C104.838 28.2495 104.427 28.0296 104.104 27.7066C103.781 27.3836 103.561 26.9721 103.472 26.5241C103.383 26.0761 103.428 25.6118 103.603 25.1898C103.778 24.7678 104.074 24.4071 104.454 24.1533C104.834 23.8996 105.28 23.7641 105.737 23.7641C106.349 23.7641 106.937 24.0074 107.37 24.4405C107.803 24.8736 108.046 25.4611 108.046 26.0736Z" fill="#2C3A64"/>
<path d="M171.559 118.914V30.1164L39.9201 30.1164V118.914L171.559 118.914Z" fill="white"/>
<g style="mix-blend-mode:multiply">
<path d="M128.837 40.8282H50.3203C49.8653 40.8275 49.4146 40.9165 48.994 41.0902C48.5734 41.2638 48.1912 41.5187 47.8692 41.8402C47.5472 42.1617 47.2918 42.5435 47.1175 42.9639C46.9432 43.3842 46.8535 43.8347 46.8535 44.2898V122.137H132.304V44.2898C132.304 43.8347 132.214 43.3842 132.04 42.9639C131.865 42.5435 131.61 42.1617 131.288 41.8402C130.966 41.5187 130.584 41.2638 130.163 41.0902C129.743 40.9165 129.292 40.8275 128.837 40.8282Z" fill="#8897BA"/>
</g>
<path d="M128.832 37.159C128.832 36.7039 128.742 36.2534 128.568 35.8331C128.393 35.4127 128.138 35.0309 127.816 34.7094C127.494 34.3879 127.112 34.133 126.691 33.9594C126.27 33.7857 125.82 33.6967 125.365 33.6974H46.8483C46.3932 33.6967 45.9425 33.7857 45.522 33.9594C45.1014 34.133 44.7192 34.3879 44.3972 34.7094C44.0752 35.0309 43.8198 35.4127 43.6455 35.8331C43.4712 36.2534 43.3815 36.7039 43.3815 37.159V39.2349H128.832V37.159Z" fill="#2C3A64"/>
<path d="M128.832 39.2349H43.3815V114.985H128.832V39.2349Z" fill="#DFEBFD"/>
<path d="M122.708 45.0111H100.018V48.5609H122.708V45.0111Z" fill="#AEC3FF"/>
<path d="M122.708 51.3323H100.018V54.8821H122.708V51.3323Z" fill="#AEC3FF"/>
<path d="M122.708 57.6535H100.018V61.2033H122.708V57.6535Z" fill="#AEC3FF"/>
<path d="M122.708 63.9747H100.018V67.5245H122.708V63.9747Z" fill="#AEC3FF"/>
<path d="M122.708 70.2958H100.018V73.8456H122.708V70.2958Z" fill="#AEC3FF"/>
<path d="M124.156 78.2466H99.2135V112.541H124.156V78.2466Z" stroke="#56CCF2" stroke-width="0.67" stroke-miterlimit="10" stroke-dasharray="2.67 2.67"/>
<path d="M122.391 80.006H100.973V110.787H122.391V80.006Z" fill="white"/>
<path d="M120.196 81.8172H103.168V108.97H120.196V81.8172Z" fill="#56CCF2"/>
<path d="M94.88 77.9197H47.767V81.4695H94.88V77.9197Z" fill="#AEC3FF"/>
<path d="M94.88 84.8792H47.767V88.429H94.88V84.8792Z" fill="#AEC3FF"/>
<path d="M75.958 91.8335H47.767V95.3833H75.958V91.8335Z" fill="#AEC3FF"/>
<path d="M70.0416 98.793H47.767V102.343H70.0416V98.793Z" fill="#AEC3FF"/>
<path d="M82.5801 105.753H76.7623V109.302H82.5801V105.753Z" fill="#2F539B"/>
<path d="M74.2505 105.753H47.767V109.302H74.2505V105.753Z" fill="#AEC3FF"/>
<path d="M89.5759 91.8335H78.1583V95.3833H89.5759V91.8335Z" fill="#56CCF2"/>
<path d="M94.8799 98.793H73.3993V102.343H94.8799V98.793Z" fill="#AEC3FF"/>
<path d="M94.8852 105.753H85.8239V109.302H94.8852V105.753Z" fill="#AEC3FF"/>
<path d="M91.6518 47.8967H50.9949V71.6244H91.6518V47.8967Z" fill="#2F539B"/>
<path d="M75.4286 56.8179L70.8149 66.5851L63.6062 51.3323L54.0259 71.6244H73.1918H82.4698L75.4286 56.8179Z" fill="#56CCF2"/>
<path d="M85.0453 50.4916C84.3371 50.4916 83.6447 50.7016 83.0558 51.0951C82.467 51.4885 82.008 52.0478 81.7369 52.7022C81.4659 53.3565 81.395 54.0765 81.5332 54.7711C81.6713 55.4658 82.0124 56.1038 82.5132 56.6046C83.014 57.1055 83.6521 57.4465 84.3467 57.5847C85.0413 57.7229 85.7614 57.6519 86.4157 57.3809C87.07 57.1099 87.6293 56.6509 88.0228 56.062C88.4163 55.4731 88.6263 54.7808 88.6263 54.0725C88.6263 53.6023 88.5337 53.1366 88.3537 52.7022C88.1737 52.2677 87.91 51.8729 87.5774 51.5404C87.2449 51.2079 86.8502 50.9441 86.4157 50.7641C85.9812 50.5842 85.5156 50.4916 85.0453 50.4916Z" fill="#56CCF2"/>
<path d="M94.88 45.0111H47.767V74.5151H94.88V45.0111Z" stroke="#56CCF2" stroke-width="0.67" stroke-miterlimit="10" stroke-dasharray="2.67 2.67"/>
<path d="M165.721 36.4635H134.66V67.5245H165.721V36.4635Z" stroke="#56CCF2" stroke-width="0.67" stroke-miterlimit="10" stroke-dasharray="2.67 2.67"/>
<path d="M162.949 39.2349H137.431V64.7531H162.949V39.2349Z" fill="#56CCF2"/>
<path d="M155.703 57.5085C158.747 54.4643 158.747 49.5288 155.703 46.4846C152.659 43.4404 147.723 43.4404 144.679 46.4846C141.635 49.5288 141.635 54.4643 144.679 57.5085C147.723 60.5527 152.659 60.5527 155.703 57.5085Z" fill="#003F54"/>
<path d="M147.485 47.9476V56.5781L154.198 52.2652L147.485 47.9476Z" fill="#56CCF2"/>
<g style="mix-blend-mode:multiply">
<path d="M122.002 21.8023C122.206 23.6117 123.069 25.2827 124.426 26.4964C125.783 27.7101 127.54 28.3817 129.361 28.383H167.641C169.462 28.3829 171.219 27.7117 172.577 26.4977C173.934 25.2838 174.797 23.6122 175 21.8023H122.002Z" fill="#8897BA"/>
</g>
<path d="M165.238 11.2567H126.958C122.868 11.2567 119.552 14.5724 119.552 18.6625V18.6677C119.552 22.7578 122.868 26.0735 126.958 26.0735H165.238C169.328 26.0735 172.644 22.7578 172.644 18.6677V18.6625C172.644 14.5724 169.328 11.2567 165.238 11.2567Z" fill="#DFEBFD"/>
<path d="M164.626 13.945H127.425C124.82 13.945 122.708 16.0571 122.708 18.6625V18.6677C122.708 21.2731 124.82 23.3853 127.425 23.3853H164.626C167.231 23.3853 169.343 21.2731 169.343 18.6677V18.6625C169.343 16.0571 167.231 13.945 164.626 13.945Z" fill="#94B0ED"/>
<path d="M131.535 20.5049L129.932 19.0206C130.099 18.7151 130.186 18.3724 130.186 18.0242C130.187 17.6052 130.064 17.1953 129.832 16.8464C129.6 16.4975 129.269 16.2253 128.883 16.0642C128.496 15.9032 128.07 15.8605 127.659 15.9416C127.248 16.0227 126.87 16.224 126.573 16.5199C126.277 16.8158 126.074 17.1931 125.992 17.604C125.91 18.0149 125.952 18.4409 126.112 18.8281C126.272 19.2153 126.543 19.5463 126.892 19.7792C127.24 20.0121 127.65 20.1364 128.069 20.1364C128.474 20.1379 128.871 20.0206 129.21 19.7991L130.819 21.2834C130.916 21.3742 131.044 21.4244 131.177 21.4235C131.251 21.4241 131.323 21.4091 131.39 21.3796C131.457 21.35 131.517 21.3066 131.567 21.2522C131.614 21.2017 131.651 21.1421 131.675 21.077C131.699 21.0119 131.71 20.9427 131.707 20.8734C131.704 20.8036 131.688 20.735 131.659 20.6717C131.629 20.6084 131.587 20.5516 131.535 20.5049ZM129.309 18.0242C129.308 18.2693 129.234 18.5086 129.097 18.7119C128.96 18.9152 128.766 19.0733 128.54 19.1664C128.313 19.2595 128.064 19.2833 127.823 19.2349C127.583 19.1864 127.363 19.0679 127.19 18.8942C127.017 18.7206 126.899 18.4995 126.852 18.2591C126.804 18.0186 126.829 17.7695 126.923 17.5431C127.017 17.3168 127.176 17.1234 127.38 16.9873C127.584 16.8512 127.824 16.7786 128.069 16.7786C128.232 16.7786 128.394 16.8109 128.544 16.8735C128.695 16.9362 128.832 17.028 128.948 17.1438C129.063 17.2595 129.154 17.3968 129.216 17.5479C129.278 17.699 129.31 17.8609 129.309 18.0242Z" fill="#DFEBFD"/>
<g style="mix-blend-mode:multiply">
<path d="M179.868 84.8792H143.384C143.202 84.8785 143.021 84.9139 142.853 84.9833C142.684 85.0527 142.531 85.1547 142.402 85.2835C142.274 85.4123 142.172 85.5653 142.102 85.7338C142.033 85.9022 141.997 86.0827 141.998 86.2649V107.901C141.998 108.269 142.144 108.621 142.404 108.881C142.664 109.141 143.016 109.287 143.384 109.287H179.868V84.8792Z" fill="#8897BA"/>
</g>
<path d="M189.739 105.114V105.804H189.049" stroke="#56CCF2" stroke-width="0.67" stroke-miterlimit="10"/>
<path d="M187.679 105.804H136.383" stroke="#56CCF2" stroke-width="0.67" stroke-miterlimit="10" stroke-dasharray="2.64 2.64"/>
<path d="M135.703 105.804H135.007V105.114" stroke="#56CCF2" stroke-width="0.67" stroke-miterlimit="10"/>
<path d="M135.007 103.786V77.9041" stroke="#56CCF2" stroke-width="0.67" stroke-miterlimit="10" stroke-dasharray="2.56 2.56"/>
<path d="M135.007 77.2398V76.5496H135.703" stroke="#56CCF2" stroke-width="0.67" stroke-miterlimit="10"/>
<path d="M137.068 76.5496H188.364" stroke="#56CCF2" stroke-width="0.67" stroke-miterlimit="10" stroke-dasharray="2.64 2.64"/>
<path d="M189.049 76.5496H189.739V77.2398" stroke="#56CCF2" stroke-width="0.67" stroke-miterlimit="10"/>
<path d="M189.739 78.5684V104.45" stroke="#56CCF2" stroke-width="0.67" stroke-miterlimit="10" stroke-dasharray="2.56 2.56"/>
<path d="M185.93 78.9732H138.817C138.052 78.9732 137.431 79.5936 137.431 80.3589V101.995C137.431 102.76 138.052 103.381 138.817 103.381H185.93C186.695 103.381 187.316 102.76 187.316 101.995V80.3589C187.316 79.5936 186.695 78.9732 185.93 78.9732Z" fill="#DFEBFD"/>
<path d="M171.378 82.6631H155.964V85.6784H171.378V82.6631Z" fill="#AEC3FF"/>
<path d="M175.618 87.6246H155.964V90.6399H175.618V87.6246Z" fill="#AEC3FF"/>
<path d="M185.67 87.6246H177.315V90.6399H185.67V87.6246Z" fill="#56CCF2"/>
<path d="M172.55 85.6784H176.842V82.6631H172.55V85.6784Z" fill="#AEC3FF"/>
<path d="M177.87 85.6784H184.57V82.6631H177.87V85.6784Z" fill="#AEC3FF"/>
<path d="M171.378 92.5912H155.964V95.6065H171.378V92.5912Z" fill="#AEC3FF"/>
<path d="M185.665 97.5527H155.964V100.568H185.665V97.5527Z" fill="#AEC3FF"/>
<path d="M172.55 95.6117H176.842V92.5964H172.55V95.6117Z" fill="#2F539B"/>
<path d="M177.87 95.6117H184.57V92.5964H177.87V95.6117Z" fill="#AEC3FF"/>
<path d="M146.742 83.2496C145.431 83.2496 144.175 83.7701 143.248 84.6967C142.321 85.6232 141.801 86.8799 141.801 88.1903V89.7472H143.358V88.0294C143.359 87.1365 143.715 86.2806 144.346 85.6492C144.977 85.0179 145.833 84.6626 146.726 84.6612C147.619 84.6612 148.476 85.0161 149.108 85.6477C149.739 86.2794 150.094 87.1361 150.094 88.0294V89.7472H151.651V88.1903C151.651 86.8853 151.135 85.6333 150.215 84.7076C149.295 83.782 148.047 83.2578 146.742 83.2496Z" fill="#2C3A64"/>
<path d="M151.646 89.7472H141.837C141.664 89.7472 141.498 89.8161 141.375 89.9387C141.252 90.0614 141.183 90.2277 141.183 90.4011V98.4557C141.183 98.6291 141.252 98.7955 141.375 98.9181C141.498 99.0407 141.664 99.1096 141.837 99.1096H151.646C151.732 99.1103 151.817 99.0939 151.897 99.0612C151.977 99.0286 152.049 98.9805 152.11 98.9196C152.171 98.8588 152.219 98.7864 152.252 98.7068C152.284 98.6271 152.301 98.5418 152.3 98.4557V90.4011C152.301 90.3151 152.284 90.2297 152.252 90.1501C152.219 90.0704 152.171 89.9981 152.11 89.9372C152.049 89.8763 151.977 89.8282 151.897 89.7956C151.817 89.763 151.732 89.7465 151.646 89.7472ZM147.494 96.1774H145.994L146.192 94.5426C146.001 94.4227 145.855 94.2441 145.774 94.0338C145.694 93.8234 145.685 93.5927 145.747 93.3764C145.809 93.1601 145.94 92.9699 146.12 92.8346C146.3 92.6993 146.519 92.6261 146.744 92.6261C146.969 92.6261 147.188 92.6993 147.368 92.8346C147.548 92.9699 147.679 93.1601 147.742 93.3764C147.804 93.5927 147.794 93.8234 147.714 94.0338C147.634 94.2441 147.487 94.4227 147.297 94.5426L147.494 96.1774Z" fill="#2F539B"/>
<path d="M147.292 115.914C138.635 115.914 131.619 120.512 131.619 126.18C131.619 130.632 135.952 134.426 141.998 135.843V142.699L148.273 136.419C156.467 136.087 162.955 131.629 162.955 126.18C162.955 120.512 155.933 115.914 147.292 115.914ZM140.42 128.37C139.99 128.37 139.57 128.242 139.212 128.003C138.855 127.764 138.576 127.425 138.411 127.027C138.247 126.63 138.204 126.193 138.288 125.771C138.372 125.349 138.579 124.962 138.883 124.658C139.187 124.353 139.574 124.146 139.996 124.062C140.418 123.979 140.855 124.022 141.253 124.186C141.65 124.351 141.99 124.629 142.228 124.987C142.467 125.345 142.595 125.765 142.595 126.195C142.593 126.481 142.535 126.763 142.423 127.026C142.312 127.289 142.15 127.528 141.947 127.728C141.744 127.929 141.503 128.087 141.238 128.195C140.974 128.302 140.69 128.356 140.405 128.354L140.42 128.37ZM147.292 128.37C146.862 128.37 146.441 128.242 146.084 128.003C145.726 127.764 145.447 127.425 145.283 127.027C145.118 126.63 145.075 126.193 145.159 125.771C145.243 125.349 145.45 124.962 145.754 124.658C146.058 124.353 146.446 124.146 146.868 124.062C147.289 123.979 147.727 124.022 148.124 124.186C148.521 124.351 148.861 124.629 149.1 124.987C149.339 125.345 149.466 125.765 149.466 126.195C149.461 126.769 149.229 127.317 148.822 127.721C148.415 128.125 147.865 128.353 147.292 128.354V128.37ZM154.163 128.37C153.734 128.373 153.313 128.249 152.955 128.013C152.596 127.778 152.315 127.441 152.147 127.046C151.979 126.651 151.931 126.216 152.011 125.794C152.09 125.372 152.292 124.983 152.592 124.676C152.892 124.369 153.276 124.157 153.696 124.068C154.115 123.979 154.552 124.016 154.951 124.175C155.35 124.333 155.693 124.606 155.937 124.959C156.181 125.312 156.315 125.73 156.322 126.159C156.324 126.446 156.269 126.731 156.161 126.997C156.053 127.262 155.893 127.504 155.691 127.708C155.489 127.912 155.248 128.074 154.984 128.185C154.719 128.296 154.435 128.353 154.147 128.354L154.163 128.37Z" fill="#003F54"/>
<path d="M87.936 8.86938V6.12398L86.1714 5.76588C86.1247 5.63613 86.0676 5.50639 86.0106 5.38183L87.007 3.87679L85.066 1.93581L83.5662 2.93744C83.4416 2.88035 83.3171 2.82845 83.1873 2.78174L82.8292 1.01202H80.0838L79.7309 2.78174C79.6012 2.82845 79.4714 2.88035 79.3469 2.93744L77.847 1.93581L75.906 3.87679L76.9025 5.38183C76.8454 5.50639 76.7935 5.63613 76.7468 5.76588L74.9771 6.12398V8.86938L76.7468 9.22748C76.7935 9.35722 76.8454 9.48178 76.9025 9.60633L75.906 11.1114L77.847 13.0524L79.3469 12.0559L79.7309 12.2168L80.0838 13.9813H82.8292L83.1873 12.2168L83.5662 12.0559L85.066 13.0524L87.007 11.1114L86.0106 9.60633C86.0676 9.48178 86.1247 9.35722 86.1714 9.22748L87.936 8.86938ZM81.4643 10.063C80.9558 10.0641 80.4584 9.91413 80.0351 9.63225C79.6119 9.35036 79.2818 8.9492 79.0867 8.47958C78.8916 8.00995 78.8403 7.49299 78.9393 6.99418C79.0382 6.49537 79.283 6.03715 79.6426 5.67757C80.0022 5.31798 80.4604 5.0732 80.9592 4.97425C81.458 4.87529 81.975 4.9266 82.4446 5.12168C82.9142 5.31676 83.3154 5.64683 83.5973 6.07009C83.8792 6.49335 84.0291 6.99074 84.0281 7.49927C84.0199 8.17429 83.7463 8.81897 83.2666 9.29388C82.7868 9.76879 82.1394 10.0358 81.4643 10.0371V10.063Z" fill="#56CCF2"/>
<g style="mix-blend-mode:multiply">
<g style="mix-blend-mode:multiply">
<path d="M50.803 21.8023L54.5137 25.5079L57.4407 23.5669C57.6795 23.6759 57.9286 23.7797 58.1777 23.8731L58.8731 27.3191H64.2238L64.9192 23.8731C65.1683 23.7797 65.4382 23.6759 65.6562 23.5669L68.5832 25.5079L72.2887 21.8023H50.803Z" fill="#A5ACBA"/>
</g>
</g>
<path d="M71.5775 15.2891V9.94365L68.1315 9.24822C68.0381 8.99392 67.9343 8.72924 67.8201 8.50608L69.7663 5.57903L65.9829 1.79567L63.0559 3.74185C62.8172 3.62767 62.568 3.52387 62.3189 3.43045L61.6598 0H56.2832L55.5878 3.44084C55.3386 3.53425 55.0688 3.63805 54.8456 3.75222L51.9238 1.80605L48.1663 5.58422L50.1073 8.51127C49.9983 8.75519 49.8945 8.99911 49.8011 9.25341L46.3551 9.94884V15.2943L49.8011 15.9898C49.8945 16.2441 49.9983 16.5087 50.1073 16.7319L48.1663 19.6486L51.9497 23.4319L54.8716 21.4858C55.1155 21.5999 55.3646 21.7037 55.6137 21.7972L56.3091 25.238H61.6598L62.3553 21.7972C62.6044 21.7037 62.8742 21.5999 63.0922 21.4858L66.0193 23.4319L69.8026 19.6486L67.8564 16.7215C67.9706 16.4776 68.0744 16.2337 68.1678 15.9794L71.5775 15.2891ZM58.9559 17.6142C57.9677 17.6132 57.0019 17.3192 56.1807 16.7694C55.3595 16.2196 54.7198 15.4387 54.3423 14.5254C53.9648 13.6121 53.8666 12.6073 54.06 11.6382C54.2534 10.6691 54.7298 9.77904 55.429 9.08061C56.1282 8.38218 57.0187 7.9067 57.988 7.71428C58.9574 7.52186 59.962 7.62113 60.8749 7.99955C61.7878 8.37798 62.5681 9.01856 63.117 9.84033C63.6659 10.6621 63.9589 11.6282 63.9589 12.6164C63.9589 13.2732 63.8295 13.9235 63.578 14.5302C63.3265 15.1369 62.9579 15.688 62.4933 16.1522C62.0286 16.6164 61.4771 16.9844 60.8701 17.2352C60.2631 17.4861 59.6127 17.6149 58.9559 17.6142Z" fill="#003F54"/>
<path d="M201.061 59.551C206.866 53.7464 206.866 44.3353 201.061 38.5307C195.257 32.7261 185.846 32.7262 180.041 38.5307C174.237 44.3353 174.237 53.7464 180.041 59.551C185.846 65.3556 195.257 65.3556 201.061 59.551Z" fill="#DFEBFD"/>
<path d="M193.144 37.4859V46.0491L190.549 47.414L187.954 46.0491V37.4859C186.433 38.0202 185.113 39.0092 184.173 40.3188C183.232 41.6284 182.717 43.1954 182.698 44.8075C182.678 46.4196 183.154 47.9988 184.062 49.3311C184.969 50.6635 186.265 51.6846 187.772 52.2561V61.551C189.62 61.973 191.54 61.973 193.388 61.551V52.2561C194.894 51.681 196.187 50.6567 197.092 49.322C197.996 47.9874 198.468 46.4069 198.445 44.7948C198.421 43.1826 197.902 41.6168 196.958 40.3094C196.015 39.0021 194.692 38.0164 193.17 37.4859H193.144Z" fill="#56CCF2"/>
<g style="mix-blend-mode:multiply">
<path d="M53.1799 91.9062H31.7201V116.179H53.1799C53.948 116.179 54.5656 115.764 54.5656 115.25V92.8455C54.5656 92.3317 53.948 91.9062 53.1799 91.9062Z" fill="#8897BA"/>
</g>
<path d="M50.4605 88.9013H2.58975C1.97064 88.9013 1.46875 89.4032 1.46875 90.0223V111.42C1.46875 112.039 1.97064 112.541 2.58975 112.541H50.4605C51.0796 112.541 51.5815 112.039 51.5815 111.42V90.0223C51.5815 89.4032 51.0796 88.9013 50.4605 88.9013Z" fill="#DFEBFD"/>
<path d="M25.7932 108.97H47.5437V105.929H25.7932V108.97Z" fill="#AEC3FF"/>
<path d="M25.7932 104.356H47.5437V101.315H25.7932V104.356Z" fill="#AEC3FF"/>
<path d="M25.7934 99.7324H39.0637V96.6912H25.7934V99.7324Z" fill="#AEC3FF"/>
<path d="M41.4249 99.7324H47.5437V96.6912H41.4249V99.7324Z" fill="#56CCF2"/>
<path d="M25.7932 95.1135H47.5437V92.0722H25.7932V95.1135Z" fill="#AEC3FF"/>
<path d="M22.7158 91.8491H5.51685V109.048H22.7158V91.8491Z" fill="#56CCF2"/>
<path d="M8.52173 100.635V99.7998L11.921 98.3156V99.1719L9.36248 100.21L11.921 101.248V102.115L8.52173 100.635Z" fill="white"/>
<path d="M14.8116 97.2413H15.9326L13.4207 103.189H12.3049L14.8116 97.2413Z" fill="white"/>
<path d="M16.3167 101.248L18.87 100.21L16.3167 99.1719V98.3156L19.716 99.7998V100.635L16.3167 102.12V101.248Z" fill="white"/>
<g style="mix-blend-mode:multiply">
<path d="M38.8509 54.4981H31.6007V74.2972H38.8509V54.4981Z" fill="#8897BA"/>
</g>
<path d="M36.0276 50.4604H0V70.2595H36.0276V50.4604Z" fill="#56CCF2"/>
<path d="M18.0138 70.2595H36.0276L18.0138 57.8559L0 70.2595H18.0138Z" fill="#94B0ED"/>
<path d="M18.0138 50.4604H0L18.0138 62.8641L36.0276 50.4604H18.0138Z" fill="#2F539B"/>
<path d="M117.758 100.69H115.387V97.6361H109.144V95.4017H115.387V94.061C115.387 93.5769 115.215 93.3348 114.873 93.3348H108.156C107.827 93.3348 107.662 93.5769 107.662 94.061V100.69H105.291V94.061C105.291 93.2541 105.555 92.559 106.081 91.9755C106.621 91.3921 107.313 91.1004 108.156 91.1004H114.873C115.729 91.1004 116.421 91.3921 116.947 91.9755C117.487 92.559 117.758 93.2541 117.758 94.061V100.69Z" fill="#2C3A64"/>
</svg>
