<svg width="44" height="46" viewBox="0 0 44 46" fill="none" xmlns="http://www.w3.org/2000/svg">
<path d="M9.01576 0.04002C8.94557 0.066288 6.95808 1.2182 4.60118 2.59525C1.74556 4.26496 0.278956 5.14297 0.201378 5.22551C0.138576 5.29681 0.0683861 5.42063 0.0462209 5.49942C-0.0128865 5.70204 -0.0165807 35.3216 0.0425267 35.5355C0.0646919 35.6181 0.134882 35.7381 0.197683 35.8057C0.35284 35.9708 17.4016 45.9365 17.6085 45.9853C17.7045 46.0078 17.8117 46.004 17.9188 45.974C18.1515 45.914 35.156 35.9708 35.3074 35.8094C35.3702 35.7381 35.4404 35.6181 35.4626 35.5355C35.4921 35.4379 35.5032 33.8883 35.5032 30.6277V25.8624L39.6481 23.4423C43.5566 21.1572 43.7967 21.0146 43.8965 20.857L43.9999 20.6882V15.5552C43.9999 9.96825 44.011 10.2834 43.793 10.0808C43.7339 10.0283 41.7427 8.84635 39.3637 7.4543L35.0415 4.92534H34.8013H34.5612L30.3313 7.39426C28.004 8.7563 26.0239 9.91947 25.9278 9.98326C25.8318 10.047 25.7173 10.1671 25.6692 10.2534L25.5843 10.4035L25.5658 15.24L25.5473 20.0766L22.0563 22.1215C20.1353 23.2434 18.5357 24.1739 18.5025 24.1815C18.4397 24.2002 18.436 23.7387 18.436 14.8498V5.49567L18.3436 5.33433C18.2291 5.13921 18.7463 5.45065 13.5559 2.4189C9.20416 -0.125072 9.3076 -0.0725441 9.01576 0.04002ZM13.0166 3.74341C14.8378 4.80527 16.3266 5.68328 16.3266 5.69453C16.3266 5.70579 14.7307 6.64383 12.7802 7.78449L9.23002 9.85569L5.68728 7.78449C3.74043 6.64383 2.14453 5.70579 2.14453 5.69453C2.14453 5.68328 3.73673 4.74524 5.68358 3.60833L9.21894 1.54089L9.46276 1.67596C9.59944 1.75101 11.199 2.68155 13.0166 3.74341ZM38.3515 8.50866C40.2688 9.63055 41.8536 10.5573 41.8683 10.5723C41.909 10.6099 34.8789 14.7185 34.7829 14.7147C34.6868 14.711 27.7417 10.6399 27.7454 10.5911C27.7491 10.5348 34.7348 6.44872 34.805 6.45998C34.8383 6.46748 36.4342 7.39051 38.3515 8.50866ZM5.13684 9.1015L8.51704 11.0789L8.53551 20.872L8.55398 30.6652L8.63525 30.7965C8.67958 30.8678 8.76086 30.9616 8.81996 31.0066C8.87538 31.0479 10.7557 32.136 12.9981 33.423L17.0691 35.7606V39.903C17.0691 42.1768 17.0544 44.0417 17.0359 44.0417C17.0211 44.0417 13.5005 41.993 9.21525 39.4865L1.42416 34.9314L1.41308 20.9283L1.40569 6.929L1.57932 7.02655C1.67906 7.07908 3.27865 8.01337 5.13684 9.1015ZM17.0691 15.9942V25.0182L16.9324 25.1082C16.7477 25.2283 9.97995 29.1831 9.95778 29.1831C9.9467 29.1831 9.93931 25.1082 9.93931 20.1291L9.943 11.0789L13.4784 9.01145C15.4215 7.87454 17.0248 6.95151 17.0433 6.95901C17.058 6.96652 17.0691 11.0339 17.0691 15.9942ZM30.5567 13.9193L34.0994 15.9905V20.0953C34.0994 23.9901 34.0957 24.2002 34.0366 24.1777C33.9997 24.1627 32.3964 23.2284 30.4717 22.1028L26.9696 20.0578V15.953C26.9696 13.6942 26.9807 11.8481 26.9918 11.8481C27.0065 11.8481 28.6098 12.7786 30.5567 13.9193ZM42.633 15.9267C42.633 18.1742 42.6183 20.0278 42.6035 20.0466C42.5776 20.0878 35.5697 24.1927 35.5254 24.1927C35.5143 24.1927 35.5032 22.3466 35.5032 20.0878V15.983L39.0386 13.9155C40.9854 12.7786 42.5887 11.8481 42.6035 11.8481C42.622 11.8481 42.633 13.6829 42.633 15.9267ZM29.8659 23.3935C32.8471 25.1383 33.3606 25.4497 33.3089 25.491C33.2756 25.5135 32.1452 26.1739 30.8005 26.9543C29.4558 27.7348 25.9722 29.7534 23.0574 31.4419L17.7599 34.5149L17.59 34.4211C16.5778 33.8583 10.7077 30.4626 10.7077 30.4363C10.704 30.38 26.2418 21.3035 26.3047 21.3261C26.3342 21.3373 27.9375 22.2678 29.8659 23.3935ZM34.092 30.819L34.081 34.9314L26.2936 39.4865C22.0083 41.993 18.4877 44.0417 18.4692 44.0417C18.4508 44.0417 18.436 42.3682 18.436 39.903V35.7606L26.2418 31.2355C30.5308 28.7478 34.0551 26.7104 34.0736 26.7067C34.0883 26.7067 34.0957 28.5565 34.092 30.819Z" fill="#F9322C"/>
</svg>
