<svg width="44" height="44" viewBox="0 0 44 44" fill="none" xmlns="http://www.w3.org/2000/svg">
<path fill-rule="evenodd" clip-rule="evenodd" d="M25.9077 -0.000244141C25.5896 -0.000244141 25.2941 0.0682527 25.0214 0.159523C25.601 0.547377 25.9191 1.06075 26.0782 1.64244C26.0897 1.72241 26.1123 1.77944 26.1236 1.85923C26.135 1.92773 26.1465 1.99605 26.1465 2.06455C26.1918 3.06852 25.885 3.19386 25.669 3.7872C25.3395 4.55161 25.4304 5.37287 25.8282 6.03453C25.8623 6.11433 25.9077 6.2056 25.9646 6.2854C25.5328 3.39935 27.9304 2.96577 28.3735 2.06455C28.4076 1.27736 27.7598 0.752691 27.2487 0.38761C26.7598 0.0910261 26.3167 -0.000244141 25.9077 -0.000244141ZM29.5213 0.649946C29.4756 0.912458 29.5098 0.843961 29.4984 0.980778C29.4872 1.07205 29.4872 1.18609 29.4757 1.27736C29.4531 1.36863 29.4304 1.4599 29.3963 1.55117C29.3734 1.64244 29.3395 1.73371 29.3053 1.82498C29.2598 1.91625 29.2259 1.99623 29.1805 2.08732C29.1462 2.13304 29.1235 2.17859 29.0894 2.22431L29.0212 2.32688C28.9644 2.40685 28.9076 2.48665 28.8508 2.55514C28.7826 2.62364 28.7259 2.70344 28.6463 2.76046V2.77193C28.578 2.82896 28.51 2.89728 28.4303 2.95447C28.1917 3.13684 27.919 3.27383 27.6689 3.4449C27.5894 3.50192 27.51 3.54764 27.4417 3.61614C27.3622 3.67316 27.294 3.73018 27.226 3.7985C27.1463 3.867 27.0895 3.9355 27.0213 4.01529C26.9645 4.08379 26.8964 4.16358 26.8509 4.24356C26.7941 4.32335 26.7373 4.40315 26.6918 4.48312C26.6464 4.57439 26.6123 4.65418 26.5669 4.74545C26.5328 4.83672 26.4987 4.9167 26.476 5.00779C26.4456 5.10178 26.4191 5.19695 26.3963 5.29307C26.3851 5.33862 26.3851 5.39564 26.3736 5.44137C26.3622 5.48691 26.3622 5.53264 26.351 5.57818C26.351 5.66945 26.3395 5.7722 26.3395 5.86347C26.3395 5.93179 26.3395 6.00029 26.351 6.06878C26.351 6.16005 26.3624 6.25132 26.3851 6.35389C26.3965 6.44516 26.4192 6.53643 26.4419 6.6277C26.476 6.71897 26.4987 6.81024 26.5328 6.90134C26.5556 6.95853 26.5896 7.01556 26.6123 7.06128L23.9989 6.04583C23.5557 5.92049 23.1238 5.80627 22.6807 5.7037L21.9649 5.53246C21.281 5.39559 20.5909 5.29283 19.8969 5.22458C19.874 5.22458 19.8626 5.2131 19.8399 5.2131C19.1582 5.14461 18.4877 5.11053 17.8059 5.11053C17.306 5.11053 16.8061 5.13331 16.3174 5.16756C15.6242 5.2131 14.931 5.30437 14.238 5.41842C14.0675 5.44137 13.8969 5.47544 13.7267 5.50969C13.3743 5.57818 13.0335 5.65798 12.704 5.73795L12.1926 5.87477C12.022 5.94326 11.8631 6.02306 11.7039 6.09156L11.329 6.2628C11.3062 6.2741 11.2835 6.2741 11.2722 6.2854C11.1586 6.34242 11.0563 6.38814 10.9539 6.44516C10.92 6.45664 10.8971 6.46811 10.8745 6.47941C10.7496 6.53643 10.6246 6.60475 10.5222 6.66195C10.4428 6.6962 10.3631 6.74175 10.295 6.77599C10.2609 6.79894 10.2154 6.82172 10.1927 6.83302C10.0904 6.89004 9.9882 6.94706 9.89728 7.00426C9.79494 7.0611 9.70403 7.1183 9.62455 7.17532C9.54506 7.23235 9.46541 7.27789 9.39735 7.33491C9.38592 7.34639 9.37449 7.34639 9.36324 7.35786C9.29501 7.40341 9.21553 7.46043 9.1473 7.51745L9.12444 7.5404L8.95422 7.67722C8.93136 7.68852 8.9085 7.71147 8.886 7.72277C8.8292 7.76849 8.7724 7.82551 8.71543 7.87106C8.70417 7.89401 8.68149 7.90531 8.67006 7.91678C8.60183 7.98528 8.53378 8.04213 8.46555 8.11062C8.45412 8.11062 8.45412 8.1221 8.44269 8.13357C8.37464 8.19059 8.30641 8.25891 8.23818 8.32741C8.22693 8.33889 8.22693 8.35036 8.2155 8.35036C8.1559 8.40845 8.09904 8.46931 8.0451 8.53272C8.02224 8.55567 7.98831 8.57845 7.96562 8.60122C7.90882 8.66972 7.8406 8.73804 7.77237 8.80654C7.76094 8.82949 7.73825 8.84078 7.727 8.86356C7.63609 8.95483 7.55643 9.0461 7.46552 9.13737L7.43158 9.17162C7.24975 9.36546 7.0565 9.55947 6.85199 9.73054C6.65052 9.91103 6.43798 10.0787 6.21561 10.2324C5.99525 10.3876 5.76775 10.5323 5.53386 10.666C5.30194 10.7937 5.06293 10.908 4.81799 11.0083C4.57632 11.1114 4.32985 11.2027 4.07944 11.282C3.60219 11.3847 3.11352 11.5785 2.69307 11.6128C2.60216 11.6128 2.49999 11.6357 2.40908 11.647C2.30674 11.67 2.21583 11.6928 2.12492 11.7155L1.85236 11.8183C1.76127 11.8523 1.67036 11.8981 1.57944 11.9436C1.49996 12.0006 1.40905 12.0464 1.32957 12.1034C1.24991 12.1604 1.17043 12.2287 1.1022 12.2974C1.02272 12.3544 0.943235 12.4342 0.875007 12.5027C0.806779 12.5825 0.738727 12.651 0.681753 12.7308C0.624955 12.8221 0.556902 12.902 0.511358 12.9931C0.45456 13.0731 0.397762 13.1644 0.352394 13.2556C0.306674 13.3582 0.261482 13.4495 0.227368 13.5522C0.191499 13.6505 0.157379 13.7494 0.125026 13.8488C0.102342 13.9401 0.079658 14.0314 0.068228 14.1225C0.068228 14.1341 0.0567981 14.1454 0.0567981 14.1569C0.034114 14.2594 0.034114 14.3964 0.0226841 14.4648C0.01143 14.5447 0 14.6131 0 14.693C0 14.7386 1.04812e-08 14.7956 0.01143 14.8413C0.0228599 14.9211 0.0342898 14.9896 0.0569739 15.0581C0.0796579 15.1264 0.102342 15.1949 0.136456 15.2634V15.2747C0.17057 15.3432 0.215938 15.4117 0.261306 15.4802C0.307026 15.5485 0.352394 15.617 0.409016 15.6855C0.46599 15.7425 0.534218 15.8109 0.602446 15.8681C0.670499 15.9364 0.738727 15.9934 0.818209 16.0506C1.09095 16.2902 1.15917 16.37 1.51139 16.5525C1.56819 16.5867 1.62499 16.6095 1.69322 16.6438C1.70465 16.6438 1.7159 16.6551 1.72733 16.6551C1.72733 16.678 1.72733 16.6893 1.73858 16.7123C1.75001 16.8035 1.7727 16.8948 1.79556 16.9859C1.81719 17.0798 1.84757 17.1715 1.88629 17.2597C1.92041 17.3282 1.94327 17.3967 1.97721 17.4652C1.98864 17.488 2.00007 17.5107 2.01132 17.5222C2.05686 17.6135 2.10223 17.6933 2.14778 17.7731L2.31817 18.0126C2.37497 18.0811 2.44302 18.1609 2.51142 18.2294C2.57948 18.2979 2.6477 18.3548 2.72719 18.4234C2.72719 18.4234 2.73862 18.4347 2.75005 18.4347C2.8181 18.4918 2.88633 18.549 2.95455 18.5945C3.03404 18.6515 3.11352 18.6973 3.20443 18.7428C3.28409 18.7885 3.375 18.8341 3.46591 18.8681C3.53397 18.9026 3.61362 18.9253 3.69311 18.9481C3.70454 18.9596 3.71579 18.9596 3.73847 18.9711C3.78419 18.9824 3.84082 18.9938 3.88618 19.0051C3.85225 19.6213 3.84082 20.203 3.9319 20.4083C4.03389 20.6365 4.534 19.9406 5.03393 19.1421C4.9657 19.9291 4.92033 20.8533 5.03393 21.127C5.15895 21.4122 5.84071 20.5225 6.43155 19.5413C14.4881 17.6705 21.84 23.2604 22.6127 31.1545C22.465 29.9224 20.9536 29.238 20.2604 29.4091C19.9196 30.2533 19.34 31.337 18.4082 32.0102C18.4896 31.2484 18.4513 30.4785 18.2946 29.7286C18.0447 30.7781 17.5561 31.7591 16.8856 32.6033C15.8062 32.6831 14.7267 32.1585 14.1585 31.3711C14.113 31.337 14.1017 31.2687 14.0676 31.2228C14.0335 31.143 13.9994 31.0632 13.9767 30.9834C13.9436 30.9069 13.9206 30.8264 13.9085 30.7439C13.8971 30.6639 13.8971 30.5841 13.8971 30.4928V30.3216C13.9085 30.2418 13.9312 30.162 13.9539 30.0822C13.9767 30.0022 13.9994 29.9224 14.0335 29.8426C14.0789 29.7627 14.113 29.6829 14.1698 29.6031C14.3631 29.0555 14.3631 28.6106 14.0108 28.3482C13.9426 28.3034 13.8703 28.2652 13.7949 28.234C13.7494 28.2227 13.6926 28.1999 13.6472 28.1885C13.6131 28.177 13.5904 28.1655 13.5563 28.1542C13.4766 28.1313 13.3971 28.1085 13.3177 28.0972C13.2401 28.0747 13.1598 28.0631 13.079 28.063C12.9994 28.0515 12.9085 28.04 12.829 28.04C12.7722 28.04 12.7154 28.0517 12.6584 28.0517C12.5677 28.0517 12.4882 28.063 12.4087 28.0857C12.3291 28.0972 12.2496 28.1087 12.1699 28.1315C12.0904 28.1544 12.0108 28.1772 11.9313 28.2113C11.8518 28.2455 11.7836 28.2797 11.7041 28.314C11.6359 28.3482 11.5676 28.3938 11.4882 28.428C8.84063 30.162 10.4201 34.2233 12.2267 35.3983C11.545 35.5236 10.8518 35.6719 10.6587 35.8202L10.6358 35.8432C11.1247 36.1398 11.6359 36.3908 12.1699 36.6076C12.8972 36.847 13.6699 37.0638 14.0108 37.155V37.1665C14.9523 37.3603 15.915 37.4293 16.8743 37.3718C21.9081 37.0182 26.0329 33.1737 26.7828 28.1087C26.8057 28.2112 26.8284 28.3025 26.8511 28.4053C26.8852 28.6106 26.9305 28.8272 26.9532 29.0442V29.0555C26.9761 29.1582 26.9873 29.2609 26.9988 29.352V29.3979C27.0102 29.5003 27.0216 29.6031 27.0216 29.6945C27.0329 29.8199 27.0441 29.9452 27.0441 30.0709V30.2534C27.0441 30.3105 27.0556 30.3788 27.0556 30.4358C27.0556 30.5043 27.0441 30.5728 27.0441 30.6413V30.8009C27.0441 30.8809 27.0327 30.9492 27.0327 31.0292C27.0327 31.0747 27.0327 31.1204 27.0215 31.1774C27.0215 31.2572 27.01 31.337 27.01 31.4283C26.9986 31.4626 26.9986 31.4968 26.9986 31.531C26.9873 31.6223 26.9759 31.7023 26.9645 31.7934C26.9645 31.8276 26.9645 31.8619 26.9532 31.8961C26.9418 32.0102 26.9191 32.1129 26.9077 32.227V32.2497C26.885 32.3525 26.8623 32.4665 26.8395 32.5693V32.6033L26.7714 32.9114C26.7714 32.9229 26.76 32.9456 26.76 32.9571C26.7371 33.0597 26.7144 33.1624 26.6805 33.265V33.2993C26.6464 33.4135 26.6123 33.516 26.5896 33.6188C26.5782 33.6301 26.5782 33.6416 26.5782 33.6416L26.4758 33.9837C26.4304 34.0979 26.3963 34.2005 26.351 34.3145C26.3054 34.4287 26.2713 34.5428 26.2259 34.6454C26.1804 34.7596 26.135 34.8621 26.0895 34.9762H26.0782C26.0325 35.0789 25.9873 35.193 25.9305 35.2957C25.9191 35.33 25.9077 35.3527 25.8964 35.3755C25.885 35.387 25.885 35.3985 25.8735 35.4098C25.135 36.9042 24.0442 38.216 22.6805 39.2428C22.5896 39.2998 22.4987 39.3681 22.408 39.4368C22.3851 39.4595 22.351 39.4708 22.3283 39.4938C22.2488 39.5508 22.1692 39.6078 22.0784 39.6649L22.1124 39.7334H22.1238L22.6011 39.6649H22.6125C22.9079 39.6191 23.2033 39.5621 23.4988 39.5051C23.5782 39.4936 23.6693 39.4708 23.7488 39.4481C23.8056 39.4366 23.851 39.4253 23.9078 39.4138C23.9874 39.4025 24.0669 39.3796 24.1464 39.3683C24.2146 39.3453 24.2828 39.334 24.3511 39.3113C25.4874 39.0374 26.5896 38.6609 27.6464 38.216C25.8396 40.6916 23.4191 42.6879 20.5897 43.9998C21.8966 43.9085 23.2033 43.6919 24.4647 43.3268C29.044 41.9692 32.8961 38.8777 35.2027 34.7139C34.7345 37.3551 33.6908 39.8599 32.1461 42.049C33.2473 41.3197 34.2648 40.4704 35.18 39.5166C37.7253 36.8471 39.3957 33.459 39.9639 29.8199C40.3515 31.6253 40.4626 33.4795 40.2934 35.3185C48.4975 23.8308 40.9751 11.921 37.8275 8.78394C37.8163 8.76099 37.8048 8.74969 37.8048 8.72692C37.7936 8.73821 37.7936 8.73822 37.7936 8.74969C37.7936 8.73822 37.7936 8.73821 37.7821 8.72674C37.7821 8.86373 37.7707 9.00055 37.7593 9.13754C37.7253 9.39988 37.6912 9.65092 37.6457 9.90195C37.5889 10.1528 37.5208 10.4039 37.4526 10.6547C37.3718 10.9017 37.2808 11.1453 37.1801 11.3849C37.0755 11.6213 36.9617 11.8534 36.8389 12.0808C36.7141 12.2974 36.5776 12.5257 36.4299 12.731C36.2837 12.9432 36.1282 13.1487 35.9639 13.3471C35.7935 13.5524 35.6119 13.7349 35.43 13.9173C35.323 14.0157 35.2131 14.1108 35.1005 14.2026C35.0096 14.2824 34.9299 14.3509 34.839 14.4307C34.6345 14.5905 34.43 14.7387 34.2028 14.8756C33.9869 15.0126 33.7597 15.1494 33.5323 15.2636C33.2937 15.3776 33.0551 15.4802 32.8166 15.583C32.5778 15.6742 32.3278 15.7542 32.0779 15.8225C31.8266 15.8904 31.5726 15.9476 31.3165 15.9938C31.0552 16.0393 30.7939 16.0621 30.5438 16.0848C30.362 16.0963 30.1802 16.1078 29.9983 16.1078C29.737 16.1078 29.4757 16.0848 29.2257 16.0619C28.9644 16.0393 28.7031 16.0051 28.453 15.948C28.1917 15.9021 27.9417 15.8338 27.6916 15.754H27.6804C27.9304 15.7311 28.1803 15.7083 28.4303 15.6627C28.6867 15.6178 28.9408 15.5606 29.1917 15.4915C29.4416 15.4237 29.6881 15.3439 29.9303 15.2521C30.1802 15.1608 30.4188 15.0468 30.646 14.9326C30.8848 14.8185 31.1007 14.693 31.3279 14.5562C31.5439 14.4079 31.7596 14.2596 31.9643 14.0999C32.1679 13.941 32.3614 13.7695 32.5437 13.5865C32.737 13.4152 32.9074 13.2214 33.0778 13.0276C33.2439 12.8278 33.403 12.6223 33.555 12.4114C33.5779 12.3774 33.6005 12.3316 33.6232 12.2974C33.7368 12.1149 33.8504 11.9323 33.9528 11.7498C34.0777 11.5236 34.1915 11.2914 34.2937 11.054C34.3964 10.8153 34.4873 10.5716 34.5663 10.3239C34.6459 10.0843 34.7027 9.83328 34.7595 9.58242C34.8051 9.32008 34.8505 9.06905 34.8731 8.81801C34.896 8.55568 34.9187 8.29334 34.9187 8.0423C34.9187 7.85976 34.9072 7.67722 34.8958 7.49468C34.8733 7.23235 34.8392 6.98148 34.8051 6.73027C34.7603 6.47296 34.7034 6.21793 34.6345 5.96604C34.555 5.72647 34.4755 5.47561 34.3846 5.23605C34.2937 4.99649 34.1801 4.75693 34.0664 4.52866C33.9415 4.30058 33.8165 4.07249 33.68 3.8557C33.535 3.64193 33.3835 3.43269 33.2256 3.22828C33.0545 3.0315 32.8802 2.83752 32.7029 2.64641C32.6071 2.54855 32.5086 2.45347 32.4074 2.36131C31.8984 1.96441 31.3713 1.59134 30.828 1.24329C30.7485 1.19757 30.6803 1.16349 30.6006 1.12925C30.2257 0.889684 29.8735 0.764166 29.5213 0.650122V0.649946Z" fill="#E0234E"/>
</svg>
