<svg width="44" height="50" viewBox="0 0 44 50" fill="none" xmlns="http://www.w3.org/2000/svg">
<path d="M22.0086 49.5193C21.3444 49.5193 20.6846 49.3453 20.1023 49.0106L14.0345 45.4242C13.1281 44.9182 13.5703 44.7392 13.8693 44.6361C15.0776 44.2138 15.3228 44.1184 16.6127 43.3871C16.7483 43.3099 16.9257 43.3371 17.0645 43.4189L21.7261 46.1804C21.8945 46.2714 22.1333 46.2714 22.2894 46.1804L40.4654 35.7064C40.6337 35.6111 40.7428 35.4158 40.7428 35.2159V14.2769C40.7428 14.0679 40.6337 13.8817 40.4617 13.7772L22.2929 3.31231C22.1247 3.21239 21.9017 3.21239 21.7334 3.31231L3.56832 13.7772C3.39225 13.8772 3.28032 14.0725 3.28032 14.2723V35.2114C3.28032 35.4112 3.38951 35.6019 3.5624 35.6973L8.53975 38.568C11.2423 39.9169 12.8937 38.3272 12.8937 36.7285V16.0619C12.8937 15.7667 13.1258 15.5397 13.4216 15.5397H15.7237C16.0103 15.5397 16.2469 15.7667 16.2469 16.0619V36.7374C16.2469 40.3348 14.2814 42.4015 10.8646 42.4015C9.81367 42.4015 8.98562 42.4014 6.67439 41.2659L1.90632 38.5225C1.32662 38.1849 0.84561 37.7015 0.511148 37.1206C0.176699 36.5396 0.000466838 35.8814 0 35.2114V14.2723C0 12.9097 0.727949 11.6379 1.90632 10.9657L20.1004 0.487139C21.2515 -0.16238 22.7803 -0.16238 23.9222 0.487139L42.0937 10.9703C42.6733 11.3069 43.1544 11.7894 43.4889 12.3696C43.8233 12.9497 43.9996 13.6074 44 14.2769V35.2159C44 36.5739 43.2675 37.8412 42.0937 38.5225L23.9222 49.0011C23.3398 49.336 22.6789 49.5114 22.0069 49.5098" fill="#F7E01D"/>
<path d="M27.6233 35.091C19.6704 35.091 18.003 31.4463 18.003 28.3895C18.003 28.0988 18.2378 27.8672 18.5293 27.8672H20.877C21.1364 27.8672 21.3547 28.0556 21.3957 28.3113C21.7505 30.6996 22.8061 31.9042 27.6152 31.9042C31.4459 31.9042 33.0748 31.0403 33.0748 29.0122C33.0748 27.8449 32.6107 26.9774 26.6597 26.3959C21.6823 25.9054 18.6067 24.8108 18.6067 20.8365C18.6067 17.1756 21.7005 14.9954 26.8826 14.9954C32.7017 14.9954 35.5862 17.0121 35.9501 21.3451C35.9562 21.4181 35.9469 21.4914 35.9232 21.5604C35.8994 21.6296 35.8616 21.693 35.812 21.7469C35.7624 21.8007 35.7021 21.8436 35.635 21.873C35.568 21.9024 35.4956 21.9175 35.4224 21.9175H33.0611C32.8153 21.9175 32.6016 21.7448 32.5515 21.5087C31.9828 18.997 30.6088 18.1931 26.8735 18.1931C22.6923 18.1931 22.2055 19.6464 22.2055 20.7366C22.2055 22.0583 22.7788 22.4444 28.4205 23.1892C34.0074 23.9296 36.6599 24.9743 36.6599 28.8942C36.6599 32.8458 33.3568 35.1122 27.5969 35.1122L27.6233 35.091Z" fill="#F7E01D"/>
</svg>
