<svg width="44" height="44" viewBox="0 0 44 44" fill="none" xmlns="http://www.w3.org/2000/svg">
<path d="M20.954 0.0189743C18.1828 0.18034 15.9183 0.73045 14.0794 1.68031C12.3507 2.57516 11.301 3.70839 11.0477 4.95164C10.9963 5.19369 10.989 5.58244 10.989 7.56651V9.89531H16.4945H22V10.4454V10.9955H13.6133C4.43377 10.9955 4.98432 10.9845 4.41909 11.2046C2.61328 11.9124 1.09376 14.4209 0.385385 17.8536C0.102769 19.2325 0 20.3291 0 21.9978C0 23.3547 0.0403737 23.9782 0.201869 25.0967C0.76343 28.9769 2.42242 32.0061 4.41909 32.791C4.9366 32.9927 5.02102 33 7.55722 33H9.88789V32.4756C9.88789 31.2616 9.98332 29.5746 10.1118 28.5074C10.6476 24.0515 12.2186 22.1885 15.8852 21.6677C17.0817 21.499 18.359 21.4477 21.5963 21.4477C26.2649 21.4477 27.9056 21.3193 29.3113 20.8609C31.4731 20.1531 32.4348 18.5577 32.8238 15.048C32.978 13.6837 32.9927 13.1263 32.9927 8.9968V5.03599L32.9082 4.7426C32.6917 3.99445 32.2035 3.30497 31.4511 2.67418C29.4361 0.994503 25.7658 -0.0323715 21.8899 0.000637054C21.4751 0.00430298 21.0567 0.0116386 20.954 0.0189743ZM16.4761 3.53235C17.1441 3.70839 17.7314 4.29518 17.9076 4.96264C17.9773 5.24137 17.9773 5.74747 17.9076 6.02619C17.7314 6.69366 17.1441 7.28045 16.4761 7.45648C16.355 7.48582 16.1201 7.51149 15.9513 7.51149C15.3677 7.51149 14.9126 7.32446 14.5125 6.92471C14.1088 6.52129 13.9253 6.07387 13.9253 5.49442C13.9253 4.91497 14.1088 4.46754 14.5125 4.06413C14.9162 3.66071 15.342 3.48468 15.9256 3.48101C16.1164 3.47734 16.3514 3.50301 16.4761 3.53235Z" fill="#3471A4"/>
<path d="M34.0974 12.0663C34.0313 14.9746 33.7854 16.8303 33.2826 18.2642C32.4384 20.6481 30.8932 21.84 28.0597 22.2727C26.7127 22.4781 25.9933 22.5111 21.7064 22.5478C19.6363 22.5625 17.6983 22.5955 17.3937 22.6175C14.9896 22.7935 13.8078 23.1786 12.8939 24.0881C11.712 25.2617 11.1725 27.3228 11.0257 31.1845C11 31.8263 10.989 33.5904 10.9963 35.6221L11.0073 38.9961L11.0917 39.2712C11.2789 39.88 11.6166 40.4117 12.1415 40.9435C15.309 44.1122 23.5158 44.9923 28.9846 42.7515C31.1061 41.8787 32.4825 40.6611 32.9046 39.2712C32.989 38.9998 32.989 38.9778 33.0037 36.5463L33.0147 34.1001H27.5055H22V33.55V32.9999H30.3867C39.5662 32.9999 39.0157 33.0109 39.5809 32.7909C41.5812 32.006 43.2402 28.9694 43.7981 25.0783C43.9633 23.9231 44 23.3913 44 21.9977C44 20.6041 43.9633 20.0723 43.7981 18.917C43.2476 15.0663 41.6032 12.026 39.6396 11.2302C39.0634 10.9991 39.023 10.9954 36.4501 10.9954H34.1231L34.0974 12.0663ZM28.5882 36.539C29.2562 36.715 29.8435 37.3018 30.0197 37.9692C30.0894 38.248 30.0894 38.7541 30.0197 39.0328C29.8435 39.7003 29.2562 40.287 28.5882 40.4631C28.4671 40.4924 28.2322 40.5181 28.0634 40.5181C27.4798 40.5181 27.0247 40.3311 26.6246 39.9313C26.2209 39.5279 26.0374 39.0805 26.0374 38.501C26.0374 37.9216 26.2209 37.4741 26.6246 37.0707C27.0283 36.6673 27.4541 36.4913 28.0377 36.4876C28.2285 36.4839 28.4634 36.5096 28.5882 36.539Z" fill="#F7E01D"/>
</svg>
