<svg width="44" height="46" viewBox="0 0 44 46" fill="none" xmlns="http://www.w3.org/2000/svg">
<path d="M37.8198 0.005557C34.3433 0.125728 31.3114 2.03055 29.0532 4.66245C26.5501 7.54972 24.8875 10.9748 23.6904 14.472C21.5471 12.7264 19.8935 10.467 16.4534 9.47858C13.7932 8.71846 11.0029 9.03092 8.43342 10.9328C7.21515 11.8371 6.37779 13.201 5.98178 14.484C4.94792 17.819 7.06401 20.7874 8.02834 21.8539L10.1293 24.0893C10.5616 24.5279 11.6045 25.6726 11.0967 27.316C10.5464 29.1037 8.379 30.2574 6.16014 29.5784C5.16861 29.2719 3.74176 28.5387 4.06219 27.5082C4.19218 27.0847 4.4975 26.7662 4.66377 26.4026C4.81189 26.0872 4.88444 25.8528 4.92978 25.7146C5.33487 24.3957 4.78166 22.6832 3.36388 22.2475C2.03982 21.8449 0.685524 22.1634 0.159522 23.8578C-0.435993 25.7837 0.489039 29.2749 5.45276 30.7982C11.2689 32.5738 16.1873 29.4251 16.8857 25.324C17.3271 22.7552 16.1571 20.8415 14.0168 18.3868L12.2757 16.4729C11.2176 15.4214 10.8578 13.6367 11.9491 12.2637C12.8712 11.104 14.1861 10.6113 16.3355 11.1911C19.4763 12.0354 20.876 14.2046 23.2097 15.9502C22.2453 19.0928 21.6166 22.2475 21.0452 25.0806L20.6946 27.1898C19.0229 35.8936 17.7502 40.6708 14.437 43.4169C13.7689 43.8885 12.8168 44.5946 11.3778 44.6456C10.6251 44.6697 10.3802 44.1529 10.3681 43.9276C10.353 43.4018 10.7973 43.1615 11.0936 42.9241C11.535 42.6837 12.206 42.2841 12.1608 41.0133C12.1123 39.505 10.8548 38.1981 9.04103 38.2612C7.6807 38.3063 5.60995 39.5772 5.68855 41.9056C5.77018 44.3091 8.02228 46.1118 11.4231 45.9946C13.2399 45.9346 17.2998 45.1985 21.2992 40.4754C25.9546 35.0585 27.2544 28.8482 28.2369 24.3026L29.3282 18.3026C29.9359 18.3747 30.5857 18.4228 31.2932 18.4409C37.0882 18.564 39.9872 15.5777 40.0326 13.4084C40.0597 12.0955 39.165 10.8005 37.9105 10.8306C37.0126 10.8576 35.885 11.4495 35.616 12.6843C35.353 13.8952 37.4601 14.9888 35.8095 16.0493C34.6396 16.8034 32.5387 17.3352 29.5821 16.9026L30.1203 13.9492C31.2175 8.3489 32.5719 1.4597 37.7048 1.29446C38.0797 1.27643 39.4492 1.30948 39.4794 2.21082C39.4884 2.51127 39.4159 2.58938 39.0592 3.27741C38.7324 3.71536 38.5632 4.24966 38.5785 4.79464C38.6299 6.22476 39.7243 7.16516 41.3052 7.10807C43.4244 7.03897 44.032 4.98994 43.9987 3.93538C43.911 1.4597 41.284 -0.105612 37.8137 0.005557H37.8198Z" fill="#222222"/>
</svg>
