<svg width="47" height="46" viewBox="0 0 47 46" fill="none" xmlns="http://www.w3.org/2000/svg">
<g filter="url(#filter0_d_115_9155)">
<path d="M30.784 0H15.7179C9.3849 0 4.25098 5.13392 4.25098 11.4669V26.5331C4.25098 32.8661 9.3849 38 15.7179 38H30.784C37.1171 38 42.251 32.8661 42.251 26.5331V11.4669C42.251 5.13392 37.1171 0 30.784 0Z" fill="#56CCF2"/>
<path d="M21.2989 18.6311C21.2833 18.624 21.27 18.6126 21.2606 18.5981C21.2513 18.5837 21.2463 18.5669 21.2463 18.5497C21.2463 18.5325 21.2513 18.5157 21.2606 18.5012C21.27 18.4868 21.2833 18.4754 21.2989 18.4683C21.7933 18.2054 22.2098 17.817 22.5065 17.3421C22.8518 16.809 23.0342 16.1868 23.0316 15.5517C23.0385 14.9815 22.8935 14.4197 22.6115 13.9241C22.3573 13.4659 22.002 13.0717 21.5726 12.7715C21.1432 12.4713 20.6509 12.2729 20.1333 12.1914C19.4718 12.0958 18.804 12.0501 18.1356 12.0549H12.7407C12.2708 12.0549 12.2314 12.0943 12.2314 12.1442V25.8557C12.2314 25.9055 12.2708 25.9476 12.7407 25.9476H17.3086C18.6448 25.9344 19.7553 25.9029 20.2173 25.853C20.8759 25.7928 21.5082 25.5661 22.055 25.1941C22.5651 24.8258 22.9726 24.3333 23.239 23.7634C23.5219 23.1918 23.6709 22.5634 23.6748 21.9257C23.6913 21.1703 23.4547 20.431 23.0027 19.8256C22.5682 19.2647 21.9743 18.8483 21.2989 18.6311ZM15.4158 14.457C15.4155 14.4453 15.4174 14.4336 15.4216 14.4226C15.4258 14.4116 15.4321 14.4016 15.4401 14.3931C15.4482 14.3845 15.4578 14.3777 15.4685 14.3729C15.4792 14.3681 15.4907 14.3654 15.5025 14.3651H16.5788C17.8914 14.3651 18.6632 14.3809 18.9415 14.4124C19.3408 14.4359 19.7163 14.6104 19.9916 14.9006C20.2337 15.1955 20.3581 15.5696 20.3407 15.9507C20.3498 16.1498 20.3187 16.3486 20.2492 16.5353C20.1797 16.722 20.0734 16.8929 19.9364 17.0376C19.632 17.3253 19.2383 17.5003 18.8207 17.5337C18.5582 17.5652 17.8914 17.581 16.8151 17.581H15.5025C15.4792 17.5803 15.4572 17.5706 15.441 17.5539C15.4249 17.5373 15.4158 17.515 15.4158 17.4917V14.457ZM20.4457 22.9653C20.1853 23.2605 19.8312 23.457 19.4429 23.5218C18.8141 23.5973 18.1805 23.6254 17.5475 23.6059H15.492C15.4687 23.6052 15.4467 23.5955 15.4305 23.5788C15.4144 23.5621 15.4053 23.5398 15.4053 23.5166V19.9804C15.4053 19.9572 15.4144 19.9349 15.4305 19.9182C15.4467 19.9016 15.4687 19.8919 15.492 19.8912H17.2115C18.4663 19.8912 19.2828 19.9577 19.6608 20.0907C20.0098 20.2021 20.3125 20.4254 20.5219 20.726C20.7266 21.0372 20.8311 21.4037 20.8211 21.7761C20.849 22.2055 20.715 22.6297 20.4457 22.9653Z" fill="#003F54"/>
<path d="M32.9683 16.7593C32.06 15.753 30.8217 15.2507 29.2536 15.2524C28.6072 15.2342 27.9643 15.353 27.367 15.6009C26.7698 15.8489 26.2318 16.2204 25.7883 16.6911C24.8747 17.6519 24.418 18.9802 24.418 20.6761C24.418 22.0955 24.768 23.2707 25.4681 24.2018C26.3431 25.3656 27.6995 25.9476 29.5371 25.9476C30.5569 25.9802 31.5629 25.7059 32.4249 25.16C33.1652 24.6638 34.0473 23.5035 34.0814 22.6293C34.0814 22.5663 34.0656 22.5033 34 22.4928L31.4273 22.4797C31.4031 22.4755 31.3781 22.4804 31.3573 22.4935C31.3364 22.5066 31.3212 22.5269 31.3144 22.5505C31.0519 23.5324 30.1436 23.7109 29.5529 23.7109C28.9097 23.7109 28.3794 23.5822 27.9489 23.136C27.7354 22.9197 27.5666 22.6635 27.4522 22.3819C27.3378 22.1004 27.28 21.7991 27.2821 21.4952C27.2817 21.4812 27.2842 21.4673 27.2893 21.4542C27.2944 21.4412 27.3021 21.4293 27.3119 21.4193C27.3217 21.4092 27.3334 21.4013 27.3463 21.3958C27.3592 21.3904 27.3731 21.3876 27.3871 21.3876H34.1654C34.1928 21.3876 34.2191 21.3769 34.2387 21.3577C34.2584 21.3386 34.2697 21.3126 34.2704 21.2852C34.3019 18.5681 33.8504 17.7385 32.9683 16.7593ZM31.3932 19.4607H27.4343C27.4207 19.461 27.4071 19.4586 27.3944 19.4536C27.3816 19.4486 27.37 19.4412 27.3602 19.4316C27.3505 19.4221 27.3427 19.4107 27.3374 19.3981C27.3321 19.3855 27.3293 19.3719 27.3293 19.3583C27.3427 18.8382 27.5517 18.3422 27.9148 17.9695C28.1042 17.7686 28.3322 17.6079 28.5851 17.497C28.838 17.3861 29.1107 17.3273 29.3868 17.3241C29.663 17.3209 29.9369 17.3734 30.1923 17.4784C30.4477 17.5835 30.6794 17.7389 30.8734 17.9354C31.2553 18.3104 31.4781 18.8181 31.4956 19.353C31.4956 19.3816 31.4842 19.409 31.464 19.4291C31.4438 19.4493 31.4165 19.4607 31.3879 19.4607H31.3932Z" fill="#003F54"/>
<path d="M31.6898 12.4879H26.9985C26.7753 12.4879 26.5942 12.6689 26.5942 12.8922V13.5748C26.5942 13.798 26.7753 13.979 26.9985 13.979H31.6898C31.9131 13.979 32.0941 13.798 32.0941 13.5748V12.8922C32.0941 12.6689 31.9131 12.4879 31.6898 12.4879Z" fill="#003F54"/>
</g>
<defs>
<filter id="filter0_d_115_9155" x="0.250977" y="0" width="46" height="46" filterUnits="userSpaceOnUse" color-interpolation-filters="sRGB">
<feFlood flood-opacity="0" result="BackgroundImageFix"/>
<feColorMatrix in="SourceAlpha" type="matrix" values="0 0 0 0 0 0 0 0 0 0 0 0 0 0 0 0 0 0 127 0" result="hardAlpha"/>
<feOffset dy="4"/>
<feGaussianBlur stdDeviation="2"/>
<feComposite in2="hardAlpha" operator="out"/>
<feColorMatrix type="matrix" values="0 0 0 0 0 0 0 0 0 0 0 0 0 0 0 0 0 0 0.25 0"/>
<feBlend mode="normal" in2="BackgroundImageFix" result="effect1_dropShadow_115_9155"/>
<feBlend mode="normal" in="SourceGraphic" in2="effect1_dropShadow_115_9155" result="shape"/>
</filter>
</defs>
</svg>
