<svg width="47" height="46" viewBox="0 0 47 46" fill="none" xmlns="http://www.w3.org/2000/svg">
<g filter="url(#filter0_d_115_9150)">
<path d="M31.0345 0H15.9684C9.6354 0 4.50146 5.13393 4.50146 11.4669V26.5331C4.50146 32.8661 9.6354 38 15.9684 38H31.0345C37.3676 38 42.5015 32.8661 42.5015 26.5331V11.4669C42.5015 5.13393 37.3676 0 31.0345 0Z" fill="#56CCF2"/>
<path d="M17.7769 15.2526H12.4688V30.0903H17.7769V15.2526Z" fill="#003F54"/>
<path d="M29.0341 15.2367C25.2459 15.2367 24.6158 17.3132 24.6158 17.3132V15.2551H20.5205V30.0928H24.6631V21.5346C24.6631 20.3244 25.3667 18.723 27.5955 18.723C29.8243 18.723 30.092 20.9045 30.0684 21.1723C30.0448 21.4401 30.0212 30.098 30.0212 30.098H34.3974V19.8072C34.4 16.4548 32.1634 15.2367 29.0341 15.2367Z" fill="#003F54"/>
<path d="M15.1909 13.2337C16.6562 13.1966 17.8141 11.9787 17.777 10.5133C17.7399 9.04796 16.5219 7.89013 15.0566 7.92722C13.5912 7.96432 12.4334 9.18228 12.4705 10.6476C12.5076 12.113 13.7255 13.2708 15.1909 13.2337Z" fill="#003F54"/>
</g>
<defs>
<filter id="filter0_d_115_9150" x="0.501465" y="0" width="46" height="46" filterUnits="userSpaceOnUse" color-interpolation-filters="sRGB">
<feFlood flood-opacity="0" result="BackgroundImageFix"/>
<feColorMatrix in="SourceAlpha" type="matrix" values="0 0 0 0 0 0 0 0 0 0 0 0 0 0 0 0 0 0 127 0" result="hardAlpha"/>
<feOffset dy="4"/>
<feGaussianBlur stdDeviation="2"/>
<feComposite in2="hardAlpha" operator="out"/>
<feColorMatrix type="matrix" values="0 0 0 0 0 0 0 0 0 0 0 0 0 0 0 0 0 0 0.25 0"/>
<feBlend mode="normal" in2="BackgroundImageFix" result="effect1_dropShadow_115_9150"/>
<feBlend mode="normal" in="SourceGraphic" in2="effect1_dropShadow_115_9150" result="shape"/>
</filter>
</defs>
</svg>
