<svg width="46" height="46" viewBox="0 0 46 46" fill="none" xmlns="http://www.w3.org/2000/svg">
<g filter="url(#filter0_d_115_9142)">
<path d="M30.5331 0H15.4669C9.13393 0 4 5.13393 4 11.4669V26.5331C4 32.8661 9.13393 38 15.4669 38H30.5331C36.8661 38 42 32.8661 42 26.5331V11.4669C42 5.13393 36.8661 0 30.5331 0Z" fill="#56CCF2"/>
<path d="M27.194 7.92017H18.7224C16.9054 7.92225 15.1634 8.64517 13.8788 9.93025C12.5942 11.2153 11.872 12.9576 11.8706 14.7746V23.2514C11.872 25.0685 12.5942 26.8107 13.8788 28.0958C15.1634 29.3809 16.9054 30.1038 18.7224 30.1059H27.2019C29.0189 30.1038 30.7609 29.3809 32.0455 28.0958C33.33 26.8107 34.0523 25.0685 34.0537 23.2514V14.7746C34.0523 12.9562 33.329 11.2128 32.0427 9.92747C30.7564 8.64216 29.0124 7.92017 27.194 7.92017ZM31.586 23.2514C31.5853 24.4128 31.1238 25.5264 30.3028 26.3479C29.4819 27.1694 28.3685 27.6315 27.2071 27.6329H18.7224C17.561 27.6315 16.4477 27.1694 15.6267 26.3479C14.8057 25.5264 14.3443 24.4128 14.3436 23.2514V14.7746C14.3443 13.6132 14.8057 12.4996 15.6267 11.6781C16.4477 10.8567 17.561 10.3945 18.7224 10.3931H27.2019C28.3642 10.3931 29.4789 10.8547 30.301 11.6763C31.1231 12.4979 31.5853 13.6123 31.586 14.7746V23.2514Z" fill="#003F54"/>
<path d="M22.9537 13.3438C21.832 13.3438 20.7356 13.6764 19.8031 14.2996C18.8705 14.9228 18.1437 15.8085 17.7146 16.8448C17.2855 17.8811 17.1733 19.0214 17.3924 20.1214C17.6114 21.2215 18.1517 22.2318 18.945 23.0248C19.7383 23.8177 20.7489 24.3575 21.849 24.576C22.9492 24.7945 24.0894 24.6819 25.1255 24.2523C26.1616 23.8227 27.047 23.0955 27.6698 22.1626C28.2925 21.2298 28.6247 20.1332 28.6241 19.0116C28.6221 17.5086 28.0239 16.0677 26.9608 15.0052C25.8978 13.9426 24.4567 13.3451 22.9537 13.3438ZM22.9537 22.4559C22.2725 22.4559 21.6065 22.2539 21.0401 21.8754C20.4737 21.4969 20.0323 20.959 19.7716 20.3297C19.5109 19.7003 19.4427 19.0078 19.5756 18.3396C19.7085 17.6715 20.0365 17.0578 20.5182 16.5761C20.9999 16.0944 21.6136 15.7664 22.2817 15.6335C22.9498 15.5006 23.6424 15.5688 24.2717 15.8295C24.9011 16.0902 25.439 16.5316 25.8175 17.098C26.1959 17.6645 26.398 18.3304 26.398 19.0116C26.3973 19.9249 26.0342 20.8005 25.3884 21.4463C24.7426 22.0921 23.8669 22.4552 22.9537 22.4559Z" fill="#003F54"/>
<path d="M28.9104 12.0549C28.7208 12.0549 28.5356 12.1111 28.378 12.2164C28.2204 12.3217 28.0976 12.4714 28.0251 12.6464C27.9526 12.8215 27.9336 13.0142 27.9706 13.2001C28.0075 13.3859 28.0988 13.5567 28.2328 13.6907C28.3668 13.8247 28.5375 13.916 28.7234 13.9529C28.9093 13.9899 29.102 13.9709 29.277 13.8984C29.4521 13.8259 29.6018 13.7031 29.7071 13.5455C29.8124 13.3879 29.8686 13.2027 29.8686 13.0131C29.8689 12.8872 29.8444 12.7625 29.7963 12.646C29.7483 12.5296 29.6777 12.4239 29.5887 12.3348C29.4996 12.2458 29.3939 12.1752 29.2775 12.1272C29.161 12.0791 29.0363 12.0546 28.9104 12.0549Z" fill="#003F54"/>
</g>
<defs>
<filter id="filter0_d_115_9142" x="0" y="0" width="46" height="46" filterUnits="userSpaceOnUse" color-interpolation-filters="sRGB">
<feFlood flood-opacity="0" result="BackgroundImageFix"/>
<feColorMatrix in="SourceAlpha" type="matrix" values="0 0 0 0 0 0 0 0 0 0 0 0 0 0 0 0 0 0 127 0" result="hardAlpha"/>
<feOffset dy="4"/>
<feGaussianBlur stdDeviation="2"/>
<feComposite in2="hardAlpha" operator="out"/>
<feColorMatrix type="matrix" values="0 0 0 0 0 0 0 0 0 0 0 0 0 0 0 0 0 0 0.25 0"/>
<feBlend mode="normal" in2="BackgroundImageFix" result="effect1_dropShadow_115_9142"/>
<feBlend mode="normal" in="SourceGraphic" in2="effect1_dropShadow_115_9142" result="shape"/>
</filter>
</defs>
</svg>
