<svg width="47" height="46" viewBox="0 0 47 46" fill="none" xmlns="http://www.w3.org/2000/svg">
<g filter="url(#filter0_d_115_9160)">
<path d="M31.285 0H16.2189C9.88586 0 4.75195 5.13392 4.75195 11.4669V26.5331C4.75195 32.8661 9.88586 38 16.2189 38H31.285C37.618 38 42.752 32.8661 42.752 26.5331V11.4669C42.752 5.13392 37.618 0 31.285 0Z" fill="#56CCF2"/>
<path d="M23.7532 19.0642C24.9364 19.0642 26.0931 18.7132 27.0767 18.0557C28.0604 17.3981 28.8269 16.4635 29.2792 15.3701C29.7315 14.2768 29.8493 13.0738 29.6177 11.9134C29.3861 10.7531 28.8155 9.68755 27.9781 8.85162C27.1407 8.01568 26.0742 7.44696 24.9134 7.21739C23.7527 6.98783 22.5499 7.10776 21.4574 7.562C20.3648 8.01624 19.4315 8.78438 18.7757 9.76921C18.1198 10.754 17.7709 11.9113 17.773 13.0945C17.7778 14.6781 18.4098 16.1953 19.5305 17.3141C20.6513 18.4329 22.1696 19.0622 23.7532 19.0642ZM23.7532 9.91537C24.3793 9.91589 24.9913 10.1019 25.5118 10.4499C26.0323 10.798 26.438 11.2924 26.6777 11.8708C26.9175 12.4492 26.9805 13.0857 26.8588 13.6999C26.7371 14.3141 26.4361 14.8785 25.9939 15.3218C25.5517 15.7651 24.9881 16.0674 24.3742 16.1907C23.7603 16.3139 23.1236 16.2525 22.5446 16.0142C21.9656 15.7759 21.4702 15.3714 21.1208 14.8518C20.7715 14.3321 20.584 13.7206 20.5819 13.0945C20.5809 12.6774 20.6621 12.2642 20.8211 11.8785C20.98 11.4928 21.2134 11.1423 21.508 10.847C21.8026 10.5517 22.1525 10.3174 22.5378 10.1575C22.9231 9.99765 23.3361 9.91537 23.7532 9.91537Z" fill="#003F54"/>
<path d="M32.6078 20.4241C32.51 20.2079 32.3705 20.0131 32.1973 19.8508C32.0241 19.6885 31.8207 19.5619 31.5986 19.4783C31.3765 19.3946 31.1401 19.3556 30.9029 19.3634C30.6657 19.3712 30.4324 19.4257 30.2162 19.5237C28.1835 20.4374 25.9802 20.9099 23.7516 20.9099C21.523 20.9099 19.3197 20.4374 17.287 19.5237C17.0709 19.4259 16.8376 19.3717 16.6005 19.3642C16.3634 19.3566 16.1271 19.3958 15.9051 19.4795C15.6832 19.5633 15.4799 19.6899 15.3069 19.8522C15.1339 20.0145 14.9945 20.2093 14.8967 20.4254C14.799 20.6416 14.7448 20.8749 14.7373 21.112C14.7297 21.3491 14.7688 21.5854 14.8526 21.8073C14.9363 22.0293 15.063 22.2326 15.2253 22.4056C15.3876 22.5786 15.5824 22.718 15.7985 22.8157C17.2163 23.4581 18.707 23.9253 20.2378 24.2071L16.9562 27.8824C16.6374 28.2402 16.4737 28.7101 16.5013 29.1887C16.5288 29.6672 16.7454 30.1152 17.1032 30.4341C17.4611 30.753 17.931 30.9166 18.4095 30.889C18.8881 30.8615 19.3361 30.6449 19.6549 30.2871L23.7529 25.6929L27.8509 30.2871C28.1698 30.6446 28.6176 30.8608 29.0959 30.8881C29.5742 30.9154 30.0438 30.7516 30.4013 30.4328C30.7588 30.1139 30.975 29.666 31.0023 29.1877C31.0297 28.7094 30.8659 28.2399 30.547 27.8824L27.2681 24.2071C28.7988 23.925 30.2895 23.4578 31.7073 22.8157C32.1435 22.6176 32.4834 22.2545 32.6522 21.8061C32.821 21.3578 32.805 20.8607 32.6078 20.4241Z" fill="#003F54"/>
</g>
<defs>
<filter id="filter0_d_115_9160" x="0.751953" y="0" width="46" height="46" filterUnits="userSpaceOnUse" color-interpolation-filters="sRGB">
<feFlood flood-opacity="0" result="BackgroundImageFix"/>
<feColorMatrix in="SourceAlpha" type="matrix" values="0 0 0 0 0 0 0 0 0 0 0 0 0 0 0 0 0 0 127 0" result="hardAlpha"/>
<feOffset dy="4"/>
<feGaussianBlur stdDeviation="2"/>
<feComposite in2="hardAlpha" operator="out"/>
<feColorMatrix type="matrix" values="0 0 0 0 0 0 0 0 0 0 0 0 0 0 0 0 0 0 0.25 0"/>
<feBlend mode="normal" in2="BackgroundImageFix" result="effect1_dropShadow_115_9160"/>
<feBlend mode="normal" in="SourceGraphic" in2="effect1_dropShadow_115_9160" result="shape"/>
</filter>
</defs>
</svg>
