<svg width="46" height="46" viewBox="0 0 46 46" fill="none" xmlns="http://www.w3.org/2000/svg">
<g filter="url(#filter0_d_115_9147)">
<path d="M30.5331 0H15.4669C9.13392 0 4 5.13393 4 11.4669V26.5331C4 32.8661 9.13392 38 15.4669 38H30.5331C36.8661 38 42 32.8661 42 26.5331V11.4669C42 5.13393 36.8661 0 30.5331 0Z" fill="#56CCF2"/>
<path d="M31.2236 10.5954C30.773 10.1077 30.223 9.72249 29.6106 9.4657C28.9983 9.2089 28.338 9.08655 27.6743 9.10692C25.0019 9.19355 22.5184 10.8291 22.8046 15.0242C22.8046 15.0242 18.7775 16.2501 12.5085 10.2988C12.5085 10.2988 10.4923 13.5882 14.0573 16.6833C14.0573 16.6833 13.0571 16.9616 11.7209 16.216C11.7209 16.216 11.0042 18.9935 15.5931 21.0963C15.5931 21.0963 14.0442 21.5347 13.3433 21.0963C13.3433 21.0963 13.7502 24.047 17.8718 24.748C17.8718 24.748 15.7532 26.8481 10.7417 26.793C10.7417 26.793 21.1638 32.1274 28.3884 25.273C33.547 20.3796 32.8329 13.8507 32.8329 13.8507C33.8694 13.4594 34.7298 12.7071 35.256 11.7321C35.256 11.7321 33.5338 12.2729 32.5389 12.1837C32.5389 12.1837 34.4395 10.9997 34.5839 9.59783C34.5839 9.58733 32.9642 10.7424 31.2236 10.5954Z" fill="#003F54"/>
</g>
<defs>
<filter id="filter0_d_115_9147" x="0" y="0" width="46" height="46" filterUnits="userSpaceOnUse" color-interpolation-filters="sRGB">
<feFlood flood-opacity="0" result="BackgroundImageFix"/>
<feColorMatrix in="SourceAlpha" type="matrix" values="0 0 0 0 0 0 0 0 0 0 0 0 0 0 0 0 0 0 127 0" result="hardAlpha"/>
<feOffset dy="4"/>
<feGaussianBlur stdDeviation="2"/>
<feComposite in2="hardAlpha" operator="out"/>
<feColorMatrix type="matrix" values="0 0 0 0 0 0 0 0 0 0 0 0 0 0 0 0 0 0 0.25 0"/>
<feBlend mode="normal" in2="BackgroundImageFix" result="effect1_dropShadow_115_9147"/>
<feBlend mode="normal" in="SourceGraphic" in2="effect1_dropShadow_115_9147" result="shape"/>
</filter>
</defs>
</svg>
