<svg width="47" height="46" viewBox="0 0 47 46" fill="none" xmlns="http://www.w3.org/2000/svg">
<g filter="url(#filter0_d_115_9164)">
<path d="M31.0345 0H15.9684C9.63539 0 4.50146 5.13394 4.50146 11.467V26.5331C4.50146 32.8661 9.63539 38 15.9684 38H31.0345C37.3675 38 42.5015 32.8661 42.5015 26.5331V11.467C42.5015 5.13394 37.3675 0 31.0345 0Z" fill="#56CCF2"/>
<path d="M13.7053 12.4855H11.4266C10.9331 12.4855 10.8071 13.0604 11.0302 13.5907C11.2533 14.121 14.2435 20.8862 17.2231 23.472C20.2027 26.0579 22.0692 26.0973 24.3505 26.1288C26.834 26.1681 24.9622 23.1754 26.3693 22.9601C27.9628 22.716 28.732 25.7717 30.7718 26.1419H34.8173C35.1638 26.1419 36.9358 25.8794 35.5707 24.215C34.2056 22.5506 32.3207 20.7628 32.1238 20.4924C31.9269 20.222 31.5988 19.8598 32.0345 19.3137C32.4703 18.7677 35.3554 14.675 35.6967 14.0633C36.038 13.4516 36.4134 12.4881 35.2478 12.4881H30.9845C30.2231 12.4881 30.2126 12.4409 28.9552 15.326C27.5901 18.4552 26.2013 19.4187 25.6631 18.4238C25.4216 17.9801 25.629 12.9738 25.5555 12.7769C25.482 12.58 25.4295 11.8607 24.2088 11.8607C20.4232 11.8607 19.8614 11.8817 19.2655 12.6246C18.7536 13.2547 20.7356 12.5065 20.7356 14.4623C20.7356 16.6543 20.8406 18.4001 20.2788 18.7361C19.717 19.0722 18.73 18.6101 16.6035 14.0685C15.8107 12.3437 16.1467 12.4855 13.7053 12.4855Z" fill="#003F54"/>
</g>
<defs>
<filter id="filter0_d_115_9164" x="0.501465" y="0" width="46" height="46" filterUnits="userSpaceOnUse" color-interpolation-filters="sRGB">
<feFlood flood-opacity="0" result="BackgroundImageFix"/>
<feColorMatrix in="SourceAlpha" type="matrix" values="0 0 0 0 0 0 0 0 0 0 0 0 0 0 0 0 0 0 127 0" result="hardAlpha"/>
<feOffset dy="4"/>
<feGaussianBlur stdDeviation="2"/>
<feComposite in2="hardAlpha" operator="out"/>
<feColorMatrix type="matrix" values="0 0 0 0 0 0 0 0 0 0 0 0 0 0 0 0 0 0 0.25 0"/>
<feBlend mode="normal" in2="BackgroundImageFix" result="effect1_dropShadow_115_9164"/>
<feBlend mode="normal" in="SourceGraphic" in2="effect1_dropShadow_115_9164" result="shape"/>
</filter>
</defs>
</svg>
