<svg width="628" height="429" viewBox="0 0 628 429" fill="none" xmlns="http://www.w3.org/2000/svg">
<path d="M21.6865 324.698L39.8731 335.198V356.198L21.6865 366.698L3.49999 356.198L3.49999 335.198L21.6865 324.698Z" fill="#56CCF2"/>
<path d="M583.331 368.372L603.782 363.603L618.138 378.929L612.042 399.025L591.591 403.794L577.235 388.468L583.331 368.372Z" fill="#2F539B"/>
<path d="M100.908 86.3235C104.793 84.0803 109.58 84.0803 113.465 86.3235C117.35 88.5666 119.744 92.7122 119.744 97.1985C119.744 101.685 117.35 105.83 113.465 108.073C109.58 110.317 104.793 110.317 100.908 108.073C97.0226 105.83 94.6292 101.685 94.6292 97.1985C94.6292 92.7122 97.0226 88.5666 100.908 86.3235Z" fill="#003F54"/>
<path d="M290.837 14.8492L311.121 9.41405L325.971 24.2633L320.536 44.5477L300.251 49.9829L285.402 35.1337L290.837 14.8492Z" fill="#AEC3FF"/>
<path d="M471.687 46.6985L483.811 53.6985V67.6985L471.687 74.6985L459.562 67.6985V53.6985L471.687 46.6985Z" fill="#56CCF2"/>
<path d="M536.593 205.948C542.22 202.7 549.153 202.7 554.78 205.948C560.407 209.197 563.873 215.201 563.873 221.698C563.873 228.196 560.407 234.2 554.78 237.448C549.153 240.697 542.22 240.697 536.593 237.448C530.966 234.2 527.5 228.196 527.5 221.698C527.5 215.201 530.966 209.197 536.593 205.948Z" fill="#56CCF2"/>
<g style="mix-blend-mode:multiply" opacity="0.35">
<path d="M302.568 428.442C436.54 428.442 545.146 422.739 545.146 415.705C545.146 408.671 436.54 402.968 302.568 402.968C168.597 402.968 59.9912 408.671 59.9912 415.705C59.9912 422.739 168.597 428.442 302.568 428.442Z" fill="#E5EFFF"/>
</g>
<g style="mix-blend-mode:multiply" opacity="0.35">
<path fill-rule="evenodd" clip-rule="evenodd" d="M302.568 408.96C411.369 408.96 499.568 411.979 499.568 415.699C499.568 419.42 411.369 422.438 302.568 422.438C193.768 422.438 105.569 419.417 105.569 415.699C105.569 411.982 193.768 408.96 302.568 408.96Z" fill="#CEE0FF"/>
</g>
<path d="M392.205 74.3964H203.73C193.08 74.3964 184.446 83.0304 184.446 93.681V394.309C184.446 404.959 193.08 413.593 203.73 413.593H392.205C402.856 413.593 411.49 404.959 411.49 394.309V93.681C411.49 83.0304 402.856 74.3964 392.205 74.3964Z" fill="#303A7D"/>
<path d="M385.91 82.7976H210.026C200.267 82.7976 192.355 90.7088 192.355 100.468V387.522C192.355 397.281 200.267 405.192 210.026 405.192H385.91C395.669 405.192 403.58 397.281 403.58 387.522V100.468C403.58 90.7088 395.669 82.7976 385.91 82.7976Z" fill="#AEC3FF"/>
<path fill-rule="evenodd" clip-rule="evenodd" d="M297.966 104.09C301.343 104.09 304.643 105.091 307.451 106.967C310.258 108.843 312.446 111.509 313.739 114.629C315.031 117.748 315.369 121.181 314.71 124.493C314.051 127.804 312.425 130.846 310.038 133.234C307.65 135.621 304.608 137.247 301.297 137.906C297.985 138.565 294.552 138.227 291.433 136.934C288.313 135.642 285.647 133.454 283.771 130.647C281.895 127.839 280.894 124.539 280.894 121.162C280.894 116.634 282.693 112.292 285.894 109.09C289.096 105.889 293.438 104.09 297.966 104.09ZM297.966 108.51C295.463 108.506 293.015 109.245 290.932 110.634C288.849 112.022 287.225 113.997 286.265 116.308C285.305 118.62 285.052 121.165 285.538 123.62C286.024 126.075 287.228 128.331 288.997 130.103C290.765 131.874 293.02 133.08 295.475 133.57C297.929 134.06 300.474 133.81 302.787 132.853C305.1 131.896 307.077 130.274 308.468 128.193C309.859 126.112 310.602 123.665 310.602 121.162C310.602 117.809 309.271 114.594 306.902 112.221C304.533 109.849 301.319 108.514 297.966 108.51Z" fill="white"/>
<path fill-rule="evenodd" clip-rule="evenodd" d="M283.525 143.37H312.407C313.092 143.37 313.651 144.021 313.651 144.816V147.315C313.651 148.109 313.089 148.758 312.407 148.758H283.525C282.843 148.758 282.281 148.109 282.281 147.315V144.816C282.281 144.027 282.84 143.37 283.525 143.37Z" fill="white"/>
<path opacity="0.5" d="M324.689 154.483H271.243C270.445 154.483 269.797 155.131 269.797 155.929V158.426C269.797 159.224 270.445 159.872 271.243 159.872H324.689C325.488 159.872 326.135 159.224 326.135 158.426V155.929C326.135 155.131 325.488 154.483 324.689 154.483Z" fill="white"/>
<path fill-rule="evenodd" clip-rule="evenodd" d="M129.259 197.102C142.527 194.229 153.407 180.687 159.074 165.165C161.208 159.324 161.191 157.864 160.714 153.276C160.208 148.379 160.278 146.641 161.921 143.381C163.656 139.933 164.976 140.5 164.263 143.735C163.982 144.995 163.274 145.56 164.226 148.34C166.961 142.162 168.893 132.18 175.739 133.348C175.421 133.91 174.573 135.314 173.647 139.559C172.72 143.805 171.934 150.853 171.788 151.249C170.592 154.481 169.07 156.971 168.298 161.809C163.623 191.146 159.936 203.341 134.917 215.44L127.462 205.399L129.259 197.102Z" fill="url(#paint0_linear_105_14406)"/>
<path fill-rule="evenodd" clip-rule="evenodd" d="M129.259 197.102C130.631 196.799 131.976 196.39 133.283 195.877C136.627 200.089 138.332 203.178 139.809 206.927C154.912 197.194 161.991 182.543 168.309 161.809C163.634 191.149 159.947 203.341 134.928 215.44L127.471 205.399L129.259 197.102Z" fill="url(#paint1_linear_105_14406)"/>
<path fill-rule="evenodd" clip-rule="evenodd" d="M143.251 188.858C151.798 181.119 158.36 169.764 160.444 160.06C161.033 158.937 167.464 159.128 169.019 161.537C165.902 181.097 162.687 193.145 153.739 202.602C147.28 209.445 135.527 216.642 125.219 219.023C117.132 220.893 111.539 219.09 109.775 211.801C109.174 209.338 110.435 202.816 116.531 200.216C127.58 195.479 132.474 198.618 143.251 188.858Z" fill="#AEC3FF"/>
<path style="mix-blend-mode:multiply" opacity="0.5" fill-rule="evenodd" clip-rule="evenodd" d="M169.011 161.542C165.894 181.102 162.679 193.151 153.73 202.608C147.272 209.451 135.518 216.647 125.211 219.028C117.124 220.899 111.53 219.096 109.767 211.807C137.658 215.777 159.206 197.523 169.011 161.542Z" fill="#94B0ED"/>
<g style="mix-blend-mode:multiply" opacity="0.35">
<path fill-rule="evenodd" clip-rule="evenodd" d="M184.805 73.8939L233.101 74.3347H270.937L270.873 166.406C270.862 169.662 269.563 172.781 267.261 175.083C264.958 177.385 261.838 178.683 258.583 178.693L184.417 178.631L184.805 73.8939Z" fill="#8897BA"/>
</g>
<path fill-rule="evenodd" clip-rule="evenodd" d="M155.154 47.2609H250.457C253.453 47.2706 256.323 48.4656 258.44 50.5849C260.557 52.7042 261.749 55.5755 261.756 58.5711V156.817C261.746 159.81 260.553 162.679 258.436 164.796C256.319 166.913 253.451 168.106 250.457 168.116H155.154C152.16 168.107 149.291 166.914 147.174 164.797C145.057 162.679 143.864 159.811 143.855 156.817V58.5711C143.861 55.5753 145.053 52.7036 147.17 50.5841C149.288 48.4647 152.158 47.2698 155.154 47.2609Z" fill="#56CCF2"/>
<path fill-rule="evenodd" clip-rule="evenodd" d="M261.756 136.777V156.817C261.746 159.81 260.553 162.679 258.436 164.796C256.319 166.912 253.451 168.106 250.457 168.116H155.154C152.16 168.107 149.291 166.913 147.174 164.796C145.057 162.679 143.864 159.811 143.855 156.817V136.777H261.756Z" fill="#003F54"/>
<path opacity="0.35" d="M174.86 142.449H159.093C158.06 142.449 157.223 143.286 157.223 144.319V160.574C157.223 161.606 158.06 162.444 159.093 162.444H174.86C175.892 162.444 176.73 161.606 176.73 160.574V144.319C176.73 143.286 175.892 142.449 174.86 142.449Z" fill="#56CCF2"/>
<path d="M165.183 146.354H161.182V158.538H165.183V146.354Z" fill="white"/>
<path d="M172.768 146.354H168.767V158.538H172.768V146.354Z" fill="white"/>
<path opacity="0.35" d="M210.689 142.449H194.922C193.89 142.449 193.052 143.286 193.052 144.319V160.574C193.052 161.606 193.89 162.444 194.922 162.444H210.689C211.721 162.444 212.559 161.606 212.559 160.574V144.319C212.559 143.286 211.721 142.449 210.689 142.449Z" fill="#56CCF2"/>
<path fill-rule="evenodd" clip-rule="evenodd" d="M197.531 145.928L208.083 152.445L197.531 158.965V145.928Z" fill="white"/>
<path opacity="0.35" d="M246.517 142.449H230.751C229.718 142.449 228.881 143.286 228.881 144.319V160.574C228.881 161.606 229.718 162.444 230.751 162.444H246.517C247.55 162.444 248.387 161.606 248.387 160.574V144.319C248.387 143.286 247.55 142.449 246.517 142.449Z" fill="#56CCF2"/>
<path fill-rule="evenodd" clip-rule="evenodd" d="M235.533 146.36L245.4 152.456L235.533 158.552V146.36Z" fill="white"/>
<path d="M234.131 146.341H231.868V158.524H234.131V146.341Z" fill="white"/>
<path fill-rule="evenodd" clip-rule="evenodd" d="M190.07 106.839H215.571C216.175 106.839 216.669 107.4 216.669 108.114V110.321C216.669 111.023 216.175 111.595 215.571 111.595H190.07C189.466 111.595 188.972 111.034 188.972 110.321V108.114C188.947 107.412 189.449 106.839 190.07 106.839Z" fill="white"/>
<path opacity="0.5" d="M179.209 116.644H226.401C226.74 116.644 227.065 116.779 227.305 117.018C227.544 117.258 227.679 117.583 227.679 117.922V120.129C227.679 120.467 227.545 120.791 227.305 121.03C227.066 121.269 226.742 121.403 226.404 121.403H179.209C178.871 121.403 178.547 121.269 178.307 121.03C178.068 120.791 177.934 120.467 177.934 120.129V117.922C177.934 117.754 177.966 117.588 178.03 117.433C178.094 117.278 178.188 117.137 178.306 117.018C178.425 116.9 178.566 116.806 178.72 116.741C178.875 116.677 179.041 116.644 179.209 116.644Z" fill="white"/>
<path opacity="0.5" fill-rule="evenodd" clip-rule="evenodd" d="M218.534 69.4938C218.899 71.0129 218.95 72.8043 219.503 74.4385C220.755 78.1365 222.198 78.187 222.03 81.7559C221.749 87.3071 219.399 86.695 217.562 90.4856C215.844 94.032 216.908 100.673 202.282 98.4601C199.85 98.0922 195.341 99.4091 192.095 99.0217C185.62 98.2354 187.585 90.2751 186.698 87.4278C185.62 83.9685 181.986 82.3736 182.556 77.7771C183.25 72.1613 187.611 73.495 189.576 68.6879C192.143 62.328 197.503 59.3123 202.891 61.5278C207.743 63.5242 211.335 61.0308 214.454 63.1676C215.833 64.1139 217.703 65.9755 218.556 69.5022L218.534 69.4938ZM202.843 65.5908C199.956 65.5908 197.133 66.4471 194.732 68.0515C192.33 69.6559 190.459 71.9363 189.354 74.6043C188.249 77.2723 187.96 80.2081 188.523 83.0404C189.086 85.8727 190.477 88.4744 192.519 90.5164C194.561 92.5584 197.163 93.949 199.995 94.5124C202.827 95.0758 205.763 94.7866 208.431 93.6815C211.099 92.5764 213.379 90.7049 214.984 88.3038C216.588 85.9027 217.445 83.0797 217.445 80.1919C217.445 76.3194 215.906 72.6056 213.168 69.8674C210.43 67.1291 206.716 65.5908 202.843 65.5908Z" fill="white"/>
<path opacity="0.5" fill-rule="evenodd" clip-rule="evenodd" d="M192.911 60.7332C194.624 60.5283 196.595 60.7052 198.46 60.3121C202.672 59.4163 202.921 57.8383 206.816 58.4982C212.873 59.523 211.893 62.0277 215.801 64.5351C219.468 66.8825 226.893 66.5765 222.566 82.3372C221.847 84.957 222.703 90.0758 221.847 93.5885C220.14 100.589 211.662 97.396 208.422 97.9997C204.491 98.7325 202.278 102.515 197.297 101.291C191.227 99.7996 193.26 95.1749 188.236 92.4204C181.59 88.7701 178.97 82.5057 182.112 76.8815C184.92 71.8273 182.674 67.5508 185.417 64.4088C186.633 63.0048 188.904 61.205 192.9 60.7332H192.911ZM186.58 77.4374C186.204 80.6074 186.776 83.8176 188.225 86.6622C189.673 89.5068 191.933 91.8579 194.717 93.4184C197.502 94.9788 200.687 95.6784 203.869 95.4287C207.052 95.179 210.089 93.9913 212.596 92.0157C215.103 90.04 216.968 87.3653 217.956 84.3296C218.943 81.2939 219.008 78.0337 218.142 74.9612C217.276 71.8887 215.519 69.1419 213.092 67.0681C210.665 64.9944 207.678 63.6869 204.508 63.3109C200.257 62.8075 195.981 64.0129 192.619 66.662C189.257 69.3111 187.084 73.187 186.58 77.4374Z" fill="white"/>
<path fill-rule="evenodd" clip-rule="evenodd" d="M202.871 62.9852C206.277 62.9852 209.607 63.9952 212.439 65.8874C215.271 67.7797 217.478 70.4692 218.781 73.6159C220.085 76.7626 220.426 80.2251 219.761 83.5656C219.097 86.9062 217.457 89.9746 215.048 92.383C212.64 94.7914 209.571 96.4315 206.231 97.096C202.89 97.7604 199.428 97.4194 196.281 96.116C193.134 94.8126 190.445 92.6054 188.553 89.7734C186.66 86.9414 185.65 83.612 185.65 80.206C185.65 75.6388 187.465 71.2586 190.694 68.029C193.924 64.7995 198.304 62.9852 202.871 62.9852ZM202.871 67.4441C200.347 67.4419 197.878 68.1885 195.778 69.5894C193.678 70.9904 192.04 72.9827 191.073 75.3145C190.105 77.6462 189.851 80.2125 190.342 82.6888C190.833 85.1651 192.048 87.4402 193.832 89.2261C195.616 91.012 197.89 92.2285 200.366 92.7219C202.842 93.2152 205.409 92.9631 207.741 91.9975C210.074 91.032 212.068 89.3962 213.47 87.2973C214.873 85.1984 215.622 82.7306 215.622 80.206C215.622 76.8233 214.279 73.5789 211.888 71.186C209.497 68.793 206.254 67.4471 202.871 67.4441Z" fill="white"/>
<path fill-rule="evenodd" clip-rule="evenodd" d="M202.866 70.1228C203.95 70.1228 205.01 70.4443 205.911 71.0465C206.812 71.6488 207.515 72.5048 207.93 73.5063C208.344 74.5079 208.453 75.6099 208.242 76.6731C208.03 77.7363 207.508 78.713 206.741 79.4795C205.975 80.246 204.998 80.768 203.935 80.9795C202.872 81.191 201.77 81.0825 200.768 80.6676C199.767 80.2528 198.911 79.5503 198.309 78.6489C197.706 77.7476 197.385 76.6879 197.385 75.6038C197.385 74.1502 197.962 72.756 198.99 71.7282C200.018 70.7003 201.412 70.1228 202.866 70.1228ZM207.103 81.3151C208.273 81.5651 209.323 82.2081 210.078 83.1373C210.832 84.0664 211.246 85.2258 211.25 86.4227V86.4985C210.239 87.7481 208.962 88.7558 207.511 89.4481C206.06 90.1404 204.473 90.4997 202.866 90.4997C201.258 90.4997 199.671 90.1404 198.221 89.4481C196.77 88.7558 195.492 87.7481 194.481 86.4985V86.4227C194.486 85.2258 194.9 84.0664 195.654 83.1373C196.409 82.2081 197.458 81.5651 198.629 81.3151C199.802 82.3412 201.307 82.9067 202.866 82.9067C204.424 82.9067 205.93 82.3412 207.103 81.3151Z" fill="white"/>
<g style="mix-blend-mode:multiply" opacity="0.35">
<path fill-rule="evenodd" clip-rule="evenodd" d="M411.467 169.615L287.827 169.677C284.586 169.677 281.93 173.246 281.93 177.587V262.385C281.93 266.729 284.586 270.295 287.827 270.295L411.467 270.233V169.615Z" fill="#8897BA"/>
</g>
<path fill-rule="evenodd" clip-rule="evenodd" d="M296.029 169.222H425.01C428.098 169.222 430.626 172.502 430.626 176.497V254.498C430.626 258.496 428.098 261.776 425.01 261.776H296.029C292.94 261.776 290.413 258.502 290.413 254.498V176.503C290.41 172.496 292.94 169.222 296.029 169.222Z" fill="#56CCF2"/>
<path d="M421.006 245.016H300.033C299.104 245.016 298.351 245.769 298.351 246.698V250.449C298.351 251.378 299.104 252.131 300.033 252.131H421.006C421.935 252.131 422.688 251.378 422.688 250.449V246.698C422.688 245.769 421.935 245.016 421.006 245.016Z" fill="#14A0EC"/>
<path opacity="0.5" fill-rule="evenodd" clip-rule="evenodd" d="M301.843 246.698H341.532C341.837 246.699 342.13 246.798 342.346 246.975C342.562 247.152 342.684 247.392 342.687 247.643V249.752C342.684 250.003 342.562 250.243 342.346 250.421C342.13 250.598 341.838 250.698 341.532 250.698H301.843C301.537 250.698 301.244 250.598 301.028 250.421C300.811 250.244 300.689 250.004 300.687 249.752V247.639C300.689 247.389 300.812 247.149 301.029 246.973C301.245 246.797 301.538 246.698 301.843 246.698Z" fill="#00EDFF"/>
<path fill-rule="evenodd" clip-rule="evenodd" d="M492.885 256.289L490.169 260.518L494.943 265.786C494.943 265.786 497.276 265.755 497.47 265.693C497.664 265.631 500.182 262.284 500.182 262.284L498.891 259.538L492.885 256.289Z" fill="url(#paint2_linear_105_14406)"/>
<path fill-rule="evenodd" clip-rule="evenodd" d="M369.329 229.378C368.113 225.518 368.282 224.218 369.014 223.909C369.677 223.628 370.533 225.096 371.839 227.705C373.322 230.67 375.141 233.621 377.974 235.3L374.184 240.866C370.814 237.614 367.501 237.128 364.522 235C360.782 232.33 359.555 229.555 356.94 224.782C353.099 217.743 359.218 217.54 362.874 221.693C365.314 224.445 367.248 228.356 369.329 229.378Z" fill="#FFB19C"/>
<path fill-rule="evenodd" clip-rule="evenodd" d="M446.934 399.838C447.473 402.522 449.11 404.572 449.368 406.546C449.815 409.943 447.857 413.355 443.839 413.391L417.552 413.624C418.942 404.639 432.995 409.623 437.715 399.666L443.831 400.009L446.934 399.838Z" fill="#003F54"/>
<path style="mix-blend-mode:multiply" opacity="0.5" fill-rule="evenodd" clip-rule="evenodd" d="M446.934 399.838C447.22 401.067 447.653 402.257 448.222 403.384C447.908 405.911 438.788 407.276 435.663 402.643C436.507 401.771 437.201 400.765 437.715 399.666L443.834 400.009L446.934 399.838Z" fill="#1A2259"/>
<path fill-rule="evenodd" clip-rule="evenodd" d="M460.19 276.683C454.26 295.569 449.467 311.032 446.488 325.92C442.015 348.29 440.22 370.268 436.16 399.745C439.583 403.395 446.895 402.553 448.734 401.753C463.897 344.446 469.378 333.327 498.212 286.803L491.366 264.778L467.856 270.433L460.19 276.683Z" fill="#003F54"/>
<path style="mix-blend-mode:multiply" opacity="0.5" fill-rule="evenodd" clip-rule="evenodd" d="M474.058 298.427C463.744 315.471 449.682 361.858 448.745 401.758C461.813 352.339 467.692 337.275 487.55 304.231L474.058 298.427Z" fill="#2C3A64"/>
<path fill-rule="evenodd" clip-rule="evenodd" d="M548.035 286.292C549.349 283.891 549.414 281.268 550.484 279.592C552.328 276.703 556.024 275.349 559.124 277.907L579.402 294.637C572.562 300.618 565.003 287.769 554.973 292.357L550.512 288.145L548.035 286.292Z" fill="#003F54"/>
<path style="mix-blend-mode:multiply" opacity="0.5" fill-rule="evenodd" clip-rule="evenodd" d="M548.035 286.292C548.608 285.167 549.042 283.977 549.33 282.748C551.191 281.024 559.059 285.837 558.472 291.397C557.264 291.518 556.085 291.842 554.985 292.354L550.523 288.142L548.035 286.292Z" fill="#041B3D"/>
<path fill-rule="evenodd" clip-rule="evenodd" d="M459.235 277.427C469.975 298.245 477.893 315.469 496.117 325.235C521.868 339.035 543.351 309.204 558.042 292.455C553.94 285.806 551.702 284.733 547.476 283.526C534.967 293.915 518.128 309.036 507.828 301.682C504.596 299.377 502.681 294.185 500.879 286.8C499.048 279.292 497.647 272.235 493.166 266.218C491.481 263.972 489.338 262.135 486.912 260.159L459.235 277.427Z" fill="#003F54"/>
<path style="mix-blend-mode:multiply" opacity="0.5" fill-rule="evenodd" clip-rule="evenodd" d="M459.235 277.427C469.975 298.245 477.893 315.469 496.117 325.234C521.868 339.035 543.351 309.204 558.042 292.455C520.138 332.622 487.648 329.194 459.235 277.427Z" fill="#2C3A64"/>
<path fill-rule="evenodd" clip-rule="evenodd" d="M428.587 210.268C429.429 216.445 430.614 222.098 436.921 227.009L426.279 234.309C425.125 227.885 424.128 223.541 421.146 219.281L426.95 210.723L428.587 210.268Z" fill="#FFB19C"/>
<path fill-rule="evenodd" clip-rule="evenodd" d="M428.587 210.268C428.944 212.919 429.368 215.477 430.238 217.922C430.825 220.413 426.891 225.175 423.429 223.358C422.809 221.922 422.044 220.553 421.146 219.273L426.95 210.714L428.587 210.268Z" fill="#FF9989"/>
<path fill-rule="evenodd" clip-rule="evenodd" d="M410.276 206.809C413.991 219.099 415.611 224.827 419.099 223.768C420.503 223.336 422.932 220.98 425.436 218.298C429.165 214.308 426.245 208.255 424.487 201.005L417.046 197.731L410.276 206.809Z" fill="#FFB19C"/>
<path fill-rule="evenodd" clip-rule="evenodd" d="M410.276 206.809L410.95 209.038C414.721 210.142 419.116 205.548 420.155 204.579C421.688 208.229 423.878 212.562 427.155 214.643C427.677 210.961 425.77 206.303 424.487 201.005L417.046 197.731L410.276 206.809Z" fill="#FF9989"/>
<path fill-rule="evenodd" clip-rule="evenodd" d="M376.088 232.408C390.357 240.61 399.649 242.825 405.913 240.978C411.091 239.448 415.252 235.811 422.039 229.948C428.216 224.613 432.872 220.34 441.158 218.779C449.823 217.147 460.282 217.987 466.491 219.124C478.893 221.393 491.186 226.919 496.634 236.494C500.545 243.367 500.517 251.858 500.489 263.169C499.677 262.627 491.68 257.393 491.242 256.96C487.777 238.566 484.138 237.794 468.754 236.182C476.841 242.817 483.442 250.221 490.627 256.444C493.817 259.21 496.678 260.883 500.598 263.638C490.209 274.684 472.679 281.639 458.042 280.825C449.632 266.943 440.832 264.07 429.918 252.611C405.86 263.48 395.072 260.771 371.957 240.795C371.528 236.204 373.426 233.66 376.088 232.408Z" fill="#AEC3FF"/>
<path style="mix-blend-mode:multiply" opacity="0.5" fill-rule="evenodd" clip-rule="evenodd" d="M465.525 232.734C489.268 233.551 489.954 242.185 491.262 256.986L491.242 256.966C487.78 238.572 484.138 237.805 468.754 236.207C467.106 234.837 466.752 234.494 465.525 232.734Z" fill="#94B0ED"/>
<path style="mix-blend-mode:multiply" opacity="0.5" fill-rule="evenodd" clip-rule="evenodd" d="M431.875 244.622C438.233 254.731 451.859 264.719 458.042 280.547C449.633 266.665 441.009 264.003 430.095 252.541C406.04 263.41 395.072 260.79 371.972 240.815C386.14 251.176 406.663 260.701 431.875 244.622Z" fill="#94B0ED"/>
<path fill-rule="evenodd" clip-rule="evenodd" d="M416.754 193.816C431.864 171.224 451.263 181.439 462.804 180.619C479.053 179.46 482.378 169.668 491.874 165.796C506.621 159.796 520.933 163.954 528.402 179.572C536.949 197.447 521.792 236.901 491.846 227.896C482.018 224.936 477.245 215.929 467.847 216.605C461.605 217.052 442.84 229.505 428.62 215.701C424.636 211.832 421.676 206.362 420.404 202.886C418.38 205.2 415.302 207.028 412.627 207.485C405.955 208.631 402.069 203.304 402.951 198.652C404.312 191.362 412.857 191.539 416.754 193.816Z" fill="#163560"/>
<path fill-rule="evenodd" clip-rule="evenodd" d="M530.592 194.945C528.941 213.396 514.702 234.772 491.843 227.896C482.016 224.936 477.242 215.929 467.844 216.605C461.602 217.052 442.837 229.505 428.618 215.701C424.633 211.832 421.674 206.362 420.402 202.886C418.377 205.2 415.3 207.028 412.624 207.485C407.553 208.356 404.091 205.486 403.111 202.018C408.64 206.295 416.027 204.753 421.239 198.814C433.841 211.419 440.523 213.098 449.725 211.54C463.624 209.184 467.628 207.025 472.727 206.64C481.21 205.997 487.328 214.502 496.774 216.381C506.983 218.408 524.095 213.368 530.592 194.945Z" fill="#041B3D"/>
<path d="M359.956 230.005C373.075 230.005 383.711 219.369 383.711 206.25C383.711 193.13 373.075 182.495 359.956 182.495C346.837 182.495 336.201 193.13 336.201 206.25C336.201 219.369 346.837 230.005 359.956 230.005Z" fill="#003F54"/>
<path fill-rule="evenodd" clip-rule="evenodd" d="M350.165 195.254L375.863 206.351L350.165 217.448V195.254Z" fill="white"/>
<path fill-rule="evenodd" clip-rule="evenodd" d="M368.888 228.62C367.672 224.759 367.838 223.459 368.574 223.151C369.236 222.87 370.02 224.375 371.398 226.947L372.522 229.027L367.875 233.043L368.888 228.62Z" fill="#FFB19C"/>
<g style="mix-blend-mode:multiply" opacity="0.35">
<path fill-rule="evenodd" clip-rule="evenodd" d="M402.729 75.9633H356.579C351.311 75.9633 347.001 80.5233 347.001 86.0464V150.693C347.001 156.219 351.331 160.776 356.579 160.776H411.681L411.347 139.952L402.729 75.9633Z" fill="#8897BA"/>
</g>
<path fill-rule="evenodd" clip-rule="evenodd" d="M422.971 75.9633H366.453C361.882 75.9633 358.142 79.9196 358.142 84.7155V140.823C358.142 145.616 361.899 149.572 366.453 149.572H422.971C427.522 149.572 431.282 145.641 431.282 140.823V84.7155C431.282 79.9112 427.542 75.9633 422.971 75.9633Z" fill="#2F539B"/>
<path fill-rule="evenodd" clip-rule="evenodd" d="M400.056 89.5507L399.188 82.5703H390.236L389.369 89.5507C386.742 90.101 384.22 91.0659 381.897 92.4091L376.514 88.2506L370.185 94.5796L374.057 99.5805C372.375 101.981 371.165 104.68 370.491 107.532L364.505 108.293V117.256L370.491 118.017C371.166 120.87 372.376 123.568 374.057 125.969L370.185 130.97L376.514 137.288L381.889 133.126C384.212 134.471 386.734 135.436 389.36 135.988L390.228 142.968H399.18L400.047 135.988C402.674 135.436 405.196 134.471 407.519 133.126L412.893 137.288L419.222 130.959L415.359 125.961C417.04 123.56 418.25 120.861 418.925 118.009L424.911 117.248V108.293L418.914 107.532C418.24 104.68 417.03 101.981 415.348 99.5805L419.22 94.5796L412.891 88.2506L407.516 92.4091C405.193 91.0659 402.671 90.101 400.044 89.5507H400.056ZM394.721 97.5644C397.728 97.5655 400.667 98.4584 403.167 100.13C405.667 101.802 407.615 104.177 408.765 106.956C409.914 109.735 410.214 112.792 409.627 115.741C409.039 118.69 407.59 121.399 405.463 123.525C403.335 125.65 400.626 127.097 397.676 127.683C394.726 128.269 391.669 127.966 388.891 126.814C386.113 125.663 383.739 123.713 382.07 121.212C380.4 118.711 379.509 115.771 379.51 112.764C379.512 108.732 381.114 104.867 383.965 102.017C386.815 99.1667 390.681 97.5652 394.712 97.5644H394.721Z" fill="white"/>
<g style="mix-blend-mode:multiply" opacity="0.35">
<path fill-rule="evenodd" clip-rule="evenodd" d="M184.412 199.677L267.459 199.738C269.593 199.738 271.342 202.066 271.342 204.896V257.98C271.342 260.81 269.59 263.138 267.459 263.135L184.412 263.073V199.677Z" fill="#8897BA"/>
</g>
<path fill-rule="evenodd" clip-rule="evenodd" d="M175.362 200.055H259.54C261.559 200.055 263.207 201.996 263.207 204.357V250.48C263.207 252.844 261.554 254.784 259.54 254.784H175.362C173.349 254.784 171.712 252.847 171.712 250.48V204.357C171.698 201.99 173.346 200.055 175.362 200.055Z" fill="#2F539B"/>
<path fill-rule="evenodd" clip-rule="evenodd" d="M253.343 225.051L230.229 211.537L232.2 205.666L260.279 222.083L257.895 229.196L217.635 249.174V249.093L220.409 240.821L253.343 225.051Z" fill="white"/>
<path fill-rule="evenodd" clip-rule="evenodd" d="M206.331 250.463L221.785 204.38L228.44 204.374L212.985 250.463H206.331Z" fill="white"/>
<path fill-rule="evenodd" clip-rule="evenodd" d="M181.562 229.788L204.674 243.3L202.705 249.174L174.626 232.756L177.01 225.644L217.267 205.666V205.744L214.493 214.016L181.562 229.788Z" fill="white"/>
<path fill-rule="evenodd" clip-rule="evenodd" d="M113.849 401.219C113.288 404.004 111.603 406.13 111.322 408.177C110.862 411.704 112.895 415.247 117.065 415.284L144.343 415.525C142.897 406.206 128.316 411.372 123.419 401.039L117.065 401.399L113.849 401.219Z" fill="#003F54"/>
<path style="mix-blend-mode:multiply" opacity="0.5" fill-rule="evenodd" clip-rule="evenodd" d="M113.85 401.219C113.692 402.303 112.639 404.662 112.305 405.451C114.86 407.222 124.904 408.722 127.17 405.613C126.067 404.656 124.258 402.999 123.52 401.438L117.062 401.399L113.85 401.219Z" fill="#1C2260"/>
<path fill-rule="evenodd" clip-rule="evenodd" d="M79.3068 393.217C78.1134 397.389 76.2462 403.404 76.4231 407.674C76.5326 410.381 79.2871 409.306 80.8034 411.639C81.365 412.524 80.8202 414.208 79.1187 414.402C75.6537 414.792 67.7888 414.214 65.1269 413.866C62.319 413.501 64.307 411.165 64.877 405.038C65.0062 403.634 65.0876 402.382 64.5737 401.511C63.5685 399.807 63.4113 398.158 64.4502 395.912C65.6183 393.385 68.019 392.919 70.0211 389.735L79.3068 393.217Z" fill="#003F54"/>
<path style="mix-blend-mode:multiply" opacity="0.5" fill-rule="evenodd" clip-rule="evenodd" d="M78.9472 393.834C78.439 395.612 77.7482 398.234 77.2625 400.27C72.5059 398.827 67.8925 397.089 66.1965 393.764C66.8648 393.146 69.3807 390.754 70.0209 389.74L78.9472 393.834Z" fill="#1C2260"/>
<path fill-rule="evenodd" clip-rule="evenodd" d="M104.098 265.438C103.219 275.88 103.705 285.559 103.241 295.999C101.208 341.767 92.4618 345.881 68.1819 390.625C71.2256 396.746 77.9927 397.673 82.3393 395.988C120.476 341.158 126.185 332.125 136.287 268.122L104.098 265.438Z" fill="#003F54"/>
<path style="mix-blend-mode:multiply" opacity="0.5" fill-rule="evenodd" clip-rule="evenodd" d="M113.414 271.101C112.536 281.544 112.35 304.636 111.887 315.073C110.567 344.859 91.7823 374.769 83.2744 394.609C121.411 339.779 126.188 332.125 136.29 268.122L113.414 271.101Z" fill="#2C3A64"/>
<path fill-rule="evenodd" clip-rule="evenodd" d="M149.85 260.964C156.221 323.042 152.916 345.505 126.898 403.288C124.065 406.237 114.243 404.384 112.74 400.306C121.38 367.951 126.238 349.099 127.083 334.72C129.085 300.604 114.021 299.941 113.044 263.497L149.85 260.964Z" fill="#003F54"/>
<path fill-rule="evenodd" clip-rule="evenodd" d="M152.124 215.693C154.323 236.471 153.247 256.371 152.158 279.216C137.585 282.922 117.003 284.436 101.936 274.162C104.134 251.673 102.104 220.048 106.99 209.987C115.048 193.443 144.071 191.211 152.124 215.693Z" fill="#AEC3FF"/>
<path style="mix-blend-mode:multiply" opacity="0.5" fill-rule="evenodd" clip-rule="evenodd" d="M151.377 212.848C155.23 232.886 152.068 258.426 152.158 279.216L139.542 210.726L151.377 212.848Z" fill="#94B0ED"/>
<path fill-rule="evenodd" clip-rule="evenodd" d="M128.431 192.227C128.307 194.515 129.436 197.629 130.141 199.137C129.094 201.103 123.877 203.478 119.19 202.397C118.96 198.185 118.255 195.841 115.773 192.693L120.743 190.208L125.09 189.588L128.431 192.227Z" fill="#FFB19C"/>
<path fill-rule="evenodd" clip-rule="evenodd" d="M128.431 192.227C128.412 193.366 128.563 194.502 128.878 195.597C128.232 197.467 121.147 201.232 118.471 197.562C117.966 195.877 117.141 194.395 115.776 192.665L120.746 190.18L125.093 189.56L128.431 192.227Z" fill="#FF9989"/>
<path fill-rule="evenodd" clip-rule="evenodd" d="M128.664 172.49C130.91 178.078 133.098 182.411 133.494 188.17C133.696 191.112 132.834 191.974 130.068 192.471C125.064 193.373 121.192 193.566 118.96 191.202L114.844 185.146L117.795 174.509L123.307 172.49H128.664Z" fill="#FFB19C"/>
<path fill-rule="evenodd" clip-rule="evenodd" d="M128.664 172.49C128.998 173.333 129.332 174.125 129.658 174.908C128.608 175.833 127.44 176.616 126.185 177.236C124.854 180.044 126.347 184.048 124.716 184.927C124.006 185.311 123.003 184.952 122.293 184.404C119.538 182.27 120.027 184.629 121.765 186.743C123.27 188.568 123.761 189.52 123.304 193.05C121.509 192.895 120.041 192.348 118.96 191.202L114.844 185.146L117.795 174.509L123.307 172.49H128.664Z" fill="#FF9989"/>
<path fill-rule="evenodd" clip-rule="evenodd" d="M103.098 179.833C99.3889 173.277 103.317 167.088 109.337 167.97C110.132 163.982 113.951 162.957 117.171 163.648C118.331 159.7 123.326 158.802 126.272 160.579C131.983 164.024 133.786 171.499 125.191 175.955C123.921 179.148 124.441 180.611 123.938 183.896C123.846 184.488 122.534 182.958 121.234 182.388C120.355 182.001 119.218 182.189 118.848 182.846C117.615 185.03 120.698 186.305 121.703 188.7C122.122 189.7 122.518 192.266 122.11 194.148C121.723 195.953 120.355 196.902 118.609 195.745C110.233 190.191 105.937 184.853 103.098 179.833Z" fill="#163560"/>
<path fill-rule="evenodd" clip-rule="evenodd" d="M129.254 163.168C132.283 166.984 132.011 172.434 125.191 175.955C123.922 179.148 124.441 180.611 123.938 183.896C123.849 184.488 122.534 182.958 121.234 182.388C120.356 182.001 119.218 182.189 118.848 182.846C117.615 185.03 120.698 186.305 121.703 188.7C122.122 189.7 122.518 192.266 122.11 194.148C121.723 195.953 120.356 196.902 118.609 195.745C117.205 194.808 115.897 193.875 114.7 192.937C116.618 192.056 117.534 190.219 116.666 186.985C115.467 182.565 114.821 178.842 119.755 179.524C122.403 179.886 120.504 177.761 122.582 172.979C125.404 171.395 128.875 169.528 129.254 163.168Z" fill="#041B3D"/>
<path fill-rule="evenodd" clip-rule="evenodd" d="M155.603 207.078C168.986 209.347 184.117 200.819 195.158 188.524C199.311 183.899 199.836 182.546 201.105 178.098C202.456 173.366 203.166 171.777 205.904 169.362C208.799 166.807 209.812 167.827 207.945 170.561C207.218 171.631 206.35 171.89 206.199 174.824C211.039 170.101 216.543 161.562 222.484 165.195C221.985 165.591 220.673 166.577 218.231 170.185C215.788 173.793 212.441 180.03 212.157 180.341C209.846 182.896 207.504 184.64 204.988 188.846C189.736 214.337 181.778 224.285 154.05 226.214L150.855 214.129L155.603 207.078Z" fill="#FFB19C"/>
<path fill-rule="evenodd" clip-rule="evenodd" d="M155.603 207.078C156.987 207.31 158.387 207.432 159.79 207.443C161.334 212.582 161.755 216.083 161.733 220.118C179.378 216.706 191.409 205.744 204.974 188.846C189.722 214.339 181.764 224.285 154.036 226.214L150.852 214.129L155.603 207.078Z" fill="url(#paint3_linear_105_14406)"/>
<path fill-rule="evenodd" clip-rule="evenodd" d="M171.656 204.635C182.466 200.634 192.78 192.539 198.331 184.3C199.291 183.492 205.202 186.05 205.741 188.86C195.571 205.859 188.105 215.847 176.283 221.297C167.73 225.228 154.154 227.551 143.712 225.928C135.507 224.653 130.989 220.899 132.053 213.472C132.41 210.967 136.001 205.393 142.633 205.233C154.646 204.944 158.021 209.681 171.656 204.635Z" fill="#AEC3FF"/>
<path style="mix-blend-mode:multiply" opacity="0.5" fill-rule="evenodd" clip-rule="evenodd" d="M205.735 188.858C195.565 205.857 188.099 215.844 176.277 221.295C167.725 225.226 154.148 227.548 143.706 225.925C135.501 224.65 130.983 220.896 132.047 213.469C156.451 227.536 183.241 218.621 205.735 188.858Z" fill="#94B0ED"/>
<path fill-rule="evenodd" clip-rule="evenodd" d="M380.246 278.27V275.408C382.422 275.408 384.913 275.237 387.134 275.462L386.853 278.312C384.736 278.084 382.335 278.27 380.243 278.27H380.246ZM393.345 281.673C394.438 282.939 395.186 284.466 395.516 286.106L398.324 285.545C397.896 283.423 396.929 281.448 395.516 279.808L393.342 281.67L393.345 281.673ZM395.701 294.401H398.565V300.124H395.701V294.401ZM395.701 308.721H398.565V314.447H395.701V308.721ZM395.701 323.042H398.565V328.764H395.701V323.042ZM395.701 337.362H398.565V343.087H395.701V337.362ZM395.701 351.682H398.565V357.407H395.701V351.682ZM395.701 366.002H398.565V371.728H395.701V365.952V366.002ZM395.701 380.323H398.565C398.565 382.212 398.68 384.254 398.528 386.155L395.673 385.939C395.81 384.099 395.701 382.159 395.701 380.323ZM392.418 392.464C391.169 393.579 389.652 394.353 388.016 394.71L388.614 397.518C390.727 397.06 392.686 396.065 394.303 394.629L392.418 392.475V392.464ZM379.746 394.927V397.788H374.021V394.927H379.746ZM365.426 394.927V397.788H359.704V394.927H365.426ZM351.106 394.927V397.788H345.381V394.927H351.106ZM336.786 394.927V397.788H331.063V394.927H336.786ZM322.465 394.927V397.788H316.74V394.927H322.465ZM308.145 394.927V397.788H302.47V394.927H308.145ZM293.825 394.927V397.788H288.099V394.927H293.825ZM279.504 394.927V397.788H273.782V394.927H279.504ZM265.184 394.927V397.788H259.537V394.927H265.184ZM250.864 394.927V397.788H245.141V394.927H250.864ZM236.544 394.927V397.788H230.818V394.927H236.544ZM222.223 394.927V397.788H216.605V394.927H222.223ZM208.184 394.778C206.538 394.484 204.995 393.772 203.705 392.708L201.883 394.915C203.554 396.293 205.552 397.216 207.684 397.597L208.184 394.789V394.778ZM200.294 386.253C200.097 384.45 200.232 382.446 200.232 380.688H197.371C197.371 382.533 197.244 384.661 197.452 386.565L200.296 386.253H200.294ZM200.232 372.101H197.371V366.376H200.235V372.101H200.232ZM200.232 357.781H197.371V352.058H200.235V357.781H200.232ZM200.232 343.461H197.371V337.735H200.235V343.461H200.232ZM200.232 329.14H197.371V323.44H200.235V329.163L200.232 329.14ZM200.232 314.82H197.371V309.095H200.235V314.82H200.232ZM200.232 300.5H197.371V294.777H200.235V300.5H200.232ZM200.353 286.432C200.616 284.782 201.304 283.228 202.349 281.923L200.122 280.123C198.769 281.814 197.875 283.825 197.528 285.963L200.353 286.432ZM208.706 278.309C210.495 278.093 212.516 278.228 214.243 278.228V275.366C212.376 275.366 210.256 275.237 208.347 275.47L208.712 278.309H208.706ZM222.83 278.228V275.366H228.552V278.228H222.83ZM237.15 278.228V275.366H242.859V278.228H237.15ZM251.47 278.228V275.366H257.179V278.228H251.47ZM265.791 278.228V275.366H271.499V278.228H265.791ZM280.111 278.228V275.366H285.836V278.228H280.111ZM294.431 278.228V275.366H300.157V278.228H294.431ZM308.752 278.228V275.366H314.477V278.228H308.752ZM323.072 278.228V275.366H328.794V278.228H323.072ZM337.392 278.228V275.366H343.117V278.228H337.392ZM351.712 278.228V275.366H357.435V278.228H351.712ZM366.033 278.228V275.366H371.758V278.228H366.033Z" fill="white"/>
<path fill-rule="evenodd" clip-rule="evenodd" d="M327.52 368.134H386.671C387.946 368.134 388.987 368.993 388.987 370.046V385.065C388.987 386.118 387.946 386.98 386.671 386.98H327.52C326.245 386.98 325.203 386.118 325.203 385.065V370.046C325.203 368.993 326.253 368.134 327.52 368.134Z" fill="#56CCF2"/>
<path d="M385.98 287.359H327.056C326.033 287.359 325.203 288.188 325.203 289.212V293.345C325.203 294.369 326.033 295.198 327.056 295.198H385.98C387.004 295.198 387.833 294.369 387.833 293.345V289.212C387.833 288.188 387.004 287.359 385.98 287.359Z" fill="white"/>
<path d="M385.98 307.534H327.056C326.033 307.534 325.203 308.363 325.203 309.387V313.52C325.203 314.543 326.033 315.373 327.056 315.373H385.98C387.004 315.373 387.833 314.543 387.833 313.52V309.387C387.833 308.363 387.004 307.534 385.98 307.534Z" fill="white"/>
<path d="M385.98 327.705H327.056C326.033 327.705 325.203 328.535 325.203 329.559V333.692C325.203 334.715 326.033 335.545 327.056 335.545H385.98C387.004 335.545 387.833 334.715 387.833 333.692V329.559C387.833 328.535 387.004 327.705 385.98 327.705Z" fill="white"/>
<path d="M356.067 350.424H327.306C326.282 350.424 325.453 351.254 325.453 352.277V356.411C325.453 357.434 326.282 358.264 327.306 358.264H356.067C357.091 358.264 357.92 357.434 357.92 356.411V352.277C357.92 351.254 357.091 350.424 356.067 350.424Z" fill="white"/>
<path d="M312.267 282.01H210.922C206.84 282.01 203.531 285.319 203.531 289.4V384.942C203.531 389.023 206.84 392.332 210.922 392.332H312.267C316.349 392.332 319.658 389.023 319.658 384.942V289.4C319.658 285.319 316.349 282.01 312.267 282.01Z" fill="white"/>
<path opacity="0.3" fill-rule="evenodd" clip-rule="evenodd" d="M219.367 289.4C221.403 289.4 223.394 290.004 225.087 291.135C226.78 292.266 228.099 293.874 228.878 295.755C229.657 297.636 229.861 299.706 229.463 301.703C229.066 303.7 228.085 305.534 226.645 306.974C225.205 308.413 223.371 309.393 221.374 309.79C219.377 310.187 217.307 309.983 215.426 309.203C213.545 308.424 211.938 307.104 210.807 305.411C209.676 303.718 209.073 301.727 209.074 299.691C209.074 296.961 210.159 294.344 212.09 292.414C214.02 290.484 216.638 289.4 219.367 289.4Z" fill="#86B5FA"/>
<path d="M219.367 305.234C222.429 305.234 224.91 302.752 224.91 299.691C224.91 296.63 222.429 294.148 219.367 294.148C216.306 294.148 213.825 296.63 213.825 299.691C213.825 302.752 216.306 305.234 219.367 305.234Z" fill="#2F539B"/>
<path opacity="0.3" d="M265.431 291.84H235.861C234.805 291.84 233.949 292.696 233.949 293.752V295.735C233.949 296.791 234.805 297.647 235.861 297.647H265.431C266.487 297.647 267.344 296.791 267.344 295.735V293.752C267.344 292.696 266.487 291.84 265.431 291.84Z" fill="#86B5FA"/>
<path opacity="0.3" d="M289.372 301.738H235.861C234.805 301.738 233.949 302.594 233.949 303.65V305.633C233.949 306.689 234.805 307.545 235.861 307.545H289.372C290.428 307.545 291.284 306.689 291.284 305.633V303.65C291.284 302.594 290.428 301.738 289.372 301.738Z" fill="#86B5FA"/>
<path opacity="0.2" d="M307.055 315.615H216.133C212.472 315.615 209.503 318.583 209.503 322.244V380.028C209.503 383.689 212.472 386.657 216.133 386.657H307.055C310.717 386.657 313.685 383.689 313.685 380.028V322.244C313.685 318.583 310.717 315.615 307.055 315.615Z" fill="#86B5FA"/>
<path fill-rule="evenodd" clip-rule="evenodd" d="M239.29 325.161L269.115 365.014L287.549 349.186L309.495 382.17H213.69L239.29 325.161Z" fill="#56CCF2"/>
<path d="M272.546 338.359C276.191 338.359 279.145 335.404 279.145 331.76C279.145 328.116 276.191 325.161 272.546 325.161C268.902 325.161 265.948 328.116 265.948 331.76C265.948 335.404 268.902 338.359 272.546 338.359Z" fill="#56CCF2"/>
<defs>
<linearGradient id="paint0_linear_105_14406" x1="146.354" y1="148.034" x2="157.24" y2="192.222" gradientUnits="userSpaceOnUse">
<stop stop-color="#FFB89E"/>
<stop offset="1" stop-color="#FFA799"/>
</linearGradient>
<linearGradient id="paint1_linear_105_14406" x1="158.271" y1="195.605" x2="150.063" y2="186.999" gradientUnits="userSpaceOnUse">
<stop stop-color="#FF8A78"/>
<stop offset="1" stop-color="#FFA799"/>
</linearGradient>
<linearGradient id="paint2_linear_105_14406" x1="495.092" y1="261.077" x2="493.309" y2="262.868" gradientUnits="userSpaceOnUse">
<stop stop-color="#FF8A78"/>
<stop offset="1" stop-color="#FFA799"/>
</linearGradient>
<linearGradient id="paint3_linear_105_14406" x1="183.508" y1="217.529" x2="178.108" y2="204.029" gradientUnits="userSpaceOnUse">
<stop stop-color="#FF8A78"/>
<stop offset="1" stop-color="#FFA799"/>
</linearGradient>
</defs>
</svg>
