<svg width="44" height="38" viewBox="0 0 44 38" fill="none" xmlns="http://www.w3.org/2000/svg">
<path d="M35.8947 12.1896C35.4422 12.0393 34.9896 11.8973 34.537 11.7637C34.6124 11.4547 34.6795 11.1457 34.7466 10.8367C35.7773 5.85939 35.0986 1.85916 32.8107 0.539672C30.6066 -0.72136 27.0114 0.589779 23.3742 3.74653C23.0138 4.05553 22.6618 4.38123 22.3266 4.70692C22.1004 4.48979 21.8657 4.27266 21.6311 4.06388C17.8179 0.689993 13.9965 -0.729711 11.7086 0.59813C9.51285 1.86751 8.85918 5.6339 9.78107 10.344C9.87318 10.8117 9.97379 11.271 10.0911 11.7387C9.55476 11.8889 9.02679 12.0559 8.53234 12.2313C4.05714 13.7764 0.847412 16.2149 0.847412 18.7369C0.847412 21.3425 4.26666 23.9565 8.91783 25.5432C9.29496 25.6684 9.67208 25.7937 10.0576 25.9023C9.93185 26.4034 9.82292 26.8961 9.72237 27.4055C8.84242 32.0404 9.52962 35.7149 11.7253 36.9759C13.9881 38.2788 17.7928 36.9425 21.497 33.7107C21.7903 33.4518 22.0836 33.1845 22.3769 32.9006C22.7456 33.2596 23.1312 33.6021 23.5167 33.9361C27.1036 37.0094 30.6485 38.2537 32.8358 36.9927C35.0986 35.6899 35.836 31.7397 34.8806 26.9294C34.8052 26.562 34.7214 26.1862 34.6292 25.8021C34.8974 25.7269 35.1572 25.6434 35.417 25.5599C40.2525 23.9648 43.7556 21.3843 43.7556 18.7369C43.7556 16.2065 40.4537 13.7513 35.8947 12.1896ZM24.5559 5.09943C27.6734 2.39364 30.5814 1.33303 31.9055 2.09299C33.3219 2.90306 33.8666 6.17674 32.9783 10.4776C32.9196 10.7615 32.8609 11.0371 32.7855 11.3127C30.925 10.8952 29.0394 10.5945 27.1454 10.4275C26.056 8.87417 24.8659 7.38766 23.5754 5.993C23.9021 5.68401 24.2206 5.39172 24.5559 5.09943ZM14.8597 23.0713C15.287 23.7977 15.7228 24.5243 16.1838 25.2341C14.8764 25.0922 13.5774 24.8835 12.2951 24.6078C12.664 23.4053 13.1249 22.1609 13.6612 20.8915C14.0467 21.6265 14.4406 22.3531 14.8597 23.0713ZM12.3204 13.0247C13.5271 12.7575 14.8093 12.5404 16.1418 12.3733C15.6977 13.0664 15.2619 13.7764 14.8512 14.4946C14.4406 15.2044 14.0383 15.931 13.6612 16.6658C13.1332 15.4216 12.6891 14.2023 12.3204 13.0247ZM14.6166 18.7787C15.1697 17.6262 15.7731 16.4988 16.41 15.3881C17.0469 14.2774 17.7341 13.2001 18.4548 12.1395C19.712 12.0476 20.9941 11.9976 22.3015 11.9976C23.6089 11.9976 24.8995 12.0476 26.1482 12.1395C26.8605 13.1917 27.5393 14.2691 28.1846 15.3714C28.8299 16.4738 29.4333 17.6012 30.0032 18.7453C29.4417 19.8978 28.8383 21.0335 28.193 22.1526C27.5561 23.2633 26.8772 24.3406 26.1649 25.4095C24.9162 25.5014 23.6172 25.5432 22.3015 25.5432C20.9857 25.5432 19.712 25.5014 18.48 25.4263C17.7508 24.3657 17.0637 23.28 16.4184 22.1693C15.7731 21.0586 15.1781 19.9312 14.6166 18.7787ZM29.7518 23.0545C30.1792 22.3196 30.5814 21.5764 30.9753 20.8248C31.5117 22.0357 31.981 23.2633 32.3916 24.5243C31.0926 24.8166 29.7769 25.0421 28.4528 25.1924C28.9053 24.4909 29.3327 23.7727 29.7518 23.0545ZM30.9586 16.6658C30.5647 15.931 30.1625 15.196 29.7434 14.4778C29.3327 13.768 28.9053 13.0664 28.4611 12.3733C29.8105 12.5404 31.101 12.7659 32.3078 13.0414C31.9224 14.2774 31.4697 15.4799 30.9586 16.6658ZM22.3182 7.27074C23.1982 8.22277 24.0279 9.22492 24.7989 10.2605C23.1396 10.1854 21.4719 10.1854 19.8125 10.2605C20.6338 9.18317 21.4802 8.18102 22.3182 7.27074ZM12.5969 2.15146C14.0048 1.33303 17.1307 2.50221 20.4243 5.40843C20.6338 5.59215 20.8433 5.79258 21.0612 5.993C19.7622 7.38766 18.5638 8.87417 17.4659 10.4275C15.572 10.5945 13.6947 10.8868 11.8342 11.296C11.7253 10.8701 11.6331 10.4359 11.541 10.0016C10.7532 5.9596 11.2728 2.91142 12.5969 2.15146ZM10.5436 24.1653C10.1916 24.065 9.84805 23.9565 9.50447 23.8395C7.71943 23.28 5.69134 22.3948 4.22476 21.2339C3.37832 20.6494 2.80845 19.7474 2.64922 18.7369C2.64922 17.2086 5.29746 15.2545 9.11897 13.9266C9.59666 13.7596 10.0827 13.6093 10.5688 13.4673C11.1387 15.2795 11.8259 17.0584 12.622 18.7787C11.8175 20.5241 11.1219 22.3279 10.5436 24.1653ZM20.3154 32.3494C18.9326 33.6104 17.3319 34.6125 15.5887 35.2974C14.6585 35.74 13.5858 35.7818 12.6304 35.406C11.2979 34.6377 10.7448 31.6897 11.499 27.7228C11.5912 27.2552 11.6918 26.7875 11.8091 26.3281C13.6863 26.729 15.5804 27.0046 17.4995 27.1466C18.6057 28.7083 19.8209 30.2032 21.1199 31.6062C20.8517 31.865 20.5835 32.1155 20.3154 32.3494ZM22.3686 30.3201C21.5137 29.4015 20.6589 28.3826 19.8292 27.2886C20.6338 27.322 21.4635 27.3387 22.3015 27.3387C23.1647 27.3387 24.0112 27.322 24.8492 27.2802C24.0781 28.3408 23.2485 29.3513 22.3686 30.3201ZM33.3219 32.8255C33.2465 33.8443 32.7436 34.7963 31.9391 35.4394C30.6066 36.2077 27.7656 35.2055 24.6983 32.5832C24.3463 32.2826 23.9943 31.9569 23.634 31.6228C24.9162 30.2115 26.0978 28.7166 27.1706 27.1466C29.0897 26.9879 31.0005 26.6957 32.8861 26.2697C32.9699 26.6122 33.0453 26.9546 33.1123 27.2886C33.523 29.0924 33.5901 30.9715 33.3219 32.8255ZM34.8471 23.8479C34.6124 23.923 34.3779 23.9982 34.1348 24.065C33.5481 22.2444 32.8274 20.4656 31.9977 18.7369C32.8023 17.0332 33.4811 15.2795 34.051 13.484C34.4868 13.6093 34.9058 13.7429 35.308 13.8765C39.2134 15.2128 41.9538 17.2004 41.9538 18.7203C41.9538 20.3571 39.0289 22.4699 34.8471 23.8479ZM22.3015 22.5952C24.4217 22.5952 26.1398 20.8832 26.1398 18.7703C26.1398 16.6575 24.4217 14.9455 22.3015 14.9455C20.1812 14.9455 18.4633 16.6575 18.4633 18.7703C18.4633 20.8832 20.1812 22.5952 22.3015 22.5952Z" fill="#56CCF2"/>
</svg>
