<svg width="67" height="17" viewBox="0 0 67 17" fill="none" xmlns="http://www.w3.org/2000/svg">
<path d="M35.7402 0.549135C34.5462 0.709177 33.6274 1.3221 33.1422 2.27894C32.9598 2.63988 32.891 2.95315 32.891 3.44008C32.891 3.95766 32.9633 4.26071 33.1973 4.72722C33.5241 5.3844 34.1298 5.87815 35.9295 6.94055C37.4607 7.84631 37.9254 8.28557 38.1146 9.00749C38.1868 9.29011 38.1868 9.93705 38.1146 10.2197C37.9735 10.7611 37.619 11.1833 37.0823 11.4455C36.7209 11.6192 36.3631 11.7077 35.8228 11.7486C34.8146 11.8235 33.9096 11.6158 33.0699 11.1152C32.9633 11.0505 32.8635 10.9995 32.8532 10.9995C32.8394 10.9995 32.8359 11.2003 32.8394 11.4489L32.8498 11.8984L33.125 12.0142C34.0094 12.3819 34.6391 12.5114 35.4994 12.508C36.4869 12.508 37.1751 12.3274 37.7877 11.9188C38.032 11.7554 38.4931 11.2719 38.6445 11.0199C38.7994 10.7645 38.9404 10.3695 38.992 10.0392C39.054 9.65782 39.0196 9.00409 38.9232 8.70098C38.6204 7.76118 38.0113 7.19252 36.2047 6.16418C35.2034 5.59553 34.6873 5.2448 34.3466 4.90428C33.9199 4.48205 33.7823 4.17219 33.741 3.54223C33.6996 2.90207 33.8752 2.43217 34.3259 1.9929C34.7595 1.56386 35.2069 1.36977 35.933 1.28805C36.5936 1.21654 37.4676 1.33572 38.2006 1.59791C38.3589 1.6558 38.4931 1.70347 38.5 1.70347C38.5069 1.70347 38.5103 1.51278 38.5103 1.28123V0.859004L38.1249 0.753443C37.9115 0.695555 37.5984 0.624048 37.4264 0.596807C37.0547 0.528705 36.0775 0.501464 35.7402 0.549135Z" fill="#3179C7"/>
<path d="M0.603447 0.726273C0.596565 0.750109 0.593124 1.02933 0.596565 1.34601L0.606888 1.92488L2.30334 1.93509L3.99634 1.9419V7.11769V12.2935L4.67423 12.2867L5.35556 12.2765L5.36589 7.10747L5.37277 1.9419H7.04169H8.71057V1.31196V0.682007H4.66735C1.40177 0.682007 0.617211 0.688817 0.603447 0.726273Z" fill="#3179C7"/>
<path d="M52.1711 0.7911C51.9578 0.900061 51.8615 1.05329 51.8615 1.28484C51.8615 1.85009 52.4602 2.12931 52.8835 1.76156C53.3308 1.37337 53.0452 0.716187 52.4292 0.716187C52.3707 0.716187 52.2537 0.750238 52.1711 0.7911Z" fill="#3179C7"/>
<path d="M64.0428 1.75106L63.7159 1.86343L63.7056 2.93944L63.6987 4.01887H62.9417H62.1846V4.35938V4.69989H62.9417H63.6953L63.7056 7.82239C63.7193 11.2922 63.7056 11.0743 63.9533 11.5952C64.2355 12.1878 64.8652 12.5044 65.6601 12.4533C65.9422 12.4329 66.3311 12.3376 66.5306 12.2389C66.6236 12.1912 66.6236 12.1844 66.6236 11.8643C66.6236 11.6156 66.6133 11.5408 66.5823 11.5544C66.0352 11.7859 66.0179 11.7928 65.7083 11.8098C64.9822 11.8473 64.6003 11.5476 64.4729 10.8461C64.4316 10.6248 64.4248 10.0221 64.4213 7.65213V4.73394H65.5225H66.6236V4.39343V4.05292H65.5225H64.4213V2.8441C64.4213 2.1801 64.4109 1.63528 64.3972 1.63869C64.38 1.63869 64.2217 1.68976 64.0428 1.75106Z" fill="#3179C7"/>
<path d="M43.517 3.86923C42.6912 4.01905 42.0099 4.36978 41.418 4.95546C40.9432 5.42196 40.5715 6.00764 40.3686 6.61035C40.0037 7.67615 40.0279 9.14035 40.4236 10.1653C40.7746 11.071 41.418 11.7623 42.2749 12.1607C43.2349 12.6033 44.5872 12.5965 45.6573 12.1437C46.1391 11.9428 46.115 11.97 46.115 11.5409V11.1732L45.8879 11.3094C45.623 11.4694 45.2547 11.6227 44.8831 11.7215C44.515 11.8235 43.4311 11.8304 43.0869 11.7385C41.9445 11.4252 41.1875 10.4649 40.9501 9.04158C40.8916 8.67727 40.9019 7.80555 40.9707 7.40715C41.1599 6.29708 41.738 5.41175 42.6017 4.90439C43.5102 4.36978 44.8212 4.36297 45.8845 4.88736L46.1839 5.03378V4.61495V4.19612L46.0221 4.12801C45.7537 4.01565 45.3993 3.9169 45.0689 3.86582C44.6767 3.80113 43.8818 3.80453 43.517 3.86923Z" fill="#3179C7"/>
<path d="M19.6874 3.89654C18.8271 4.07701 18.1355 4.55033 17.6262 5.30967L17.5023 5.49355L17.492 4.77507L17.4852 4.05318H16.8141H16.1432V10.0802V16.1073H16.8141H17.4852V13.6012V11.0949L17.6332 11.2925C17.9463 11.7147 18.3764 12.0689 18.7859 12.2493C19.8045 12.6954 21.3254 12.5081 22.2338 11.8236C23.1526 11.1324 23.6791 10.0598 23.8167 8.599C23.9715 6.9237 23.5552 5.50376 22.657 4.6627C22.2958 4.32559 21.9242 4.11447 21.4183 3.96464C21.1499 3.88633 21.0432 3.87271 20.5133 3.86249C20.0935 3.85568 19.8423 3.8659 19.6874 3.89654ZM20.7163 4.99299C21.3667 5.15644 21.9138 5.65018 22.196 6.3278C22.6502 7.41744 22.5366 9.20853 21.9551 10.1688C21.4906 10.9315 20.8402 11.3265 19.98 11.364C19.5016 11.3844 19.1885 11.3231 18.7928 11.1324C18.5554 11.0167 18.4418 10.9315 18.2044 10.6965C17.96 10.4514 17.8775 10.3424 17.7467 10.0768C17.4955 9.57633 17.4783 9.42987 17.4955 8.17338C17.5127 6.95094 17.5162 6.91689 17.8018 6.33801C17.9531 6.02134 18.0116 5.94643 18.3075 5.65358C18.7549 5.20751 19.13 5.02023 19.7287 4.93851C19.9937 4.90446 20.4582 4.9283 20.7163 4.99299Z" fill="#3179C7"/>
<path d="M27.8395 3.91351C26.3289 4.2404 25.2174 5.49008 24.8973 7.2301C24.8079 7.6966 24.8182 8.77264 24.9112 9.297C25.0798 10.23 25.3929 10.8872 25.9297 11.4388C26.494 12.0177 27.1616 12.3276 28.0529 12.4331C28.7514 12.5114 29.8456 12.4127 30.4753 12.2084C30.7851 12.1063 31.2428 11.8883 31.4114 11.7623L31.5249 11.6772V11.0676V10.4582L31.2565 10.642C30.5477 11.1255 29.7631 11.3741 28.9613 11.3741C27.929 11.3707 27.1995 11.0234 26.7108 10.3015C26.4286 9.88265 26.2738 9.39237 26.205 8.70795L26.1843 8.47978H29.1299H32.0754V7.87367C32.0754 7.21648 32.0169 6.69549 31.9 6.25964C31.5766 5.06445 30.792 4.24381 29.6839 3.95097C29.2813 3.842 28.2627 3.82158 27.8395 3.91351ZM29.2675 5.02358C30.1175 5.24151 30.6508 5.98382 30.7232 7.03941L30.7438 7.35609H28.483H26.2257L26.2463 7.26074C26.3254 6.8964 26.4218 6.61717 26.5525 6.34817C26.9345 5.56499 27.5367 5.09168 28.304 4.9691C28.5346 4.93505 29.0233 4.96229 29.2675 5.02358Z" fill="#3179C7"/>
<path d="M50.0375 3.88284C49.5523 3.94073 49.1601 4.14163 48.7678 4.53322C48.4787 4.81584 48.3376 5.03377 48.1587 5.45601C48.0899 5.61264 48.0245 5.76928 48.0073 5.80674C47.9901 5.8476 47.9763 5.50027 47.9763 4.94524L47.9729 4.01904H47.6115H47.2502V8.15626V12.2935H47.6115H47.9729V10.1551C47.9729 7.96558 47.9901 7.53994 48.1105 6.90319C48.3411 5.69096 49.0121 4.79882 49.8552 4.58089C50.2268 4.48555 50.7498 4.53662 51.0285 4.70347C51.0905 4.73752 51.149 4.76817 51.1593 4.76817C51.1662 4.76817 51.1731 4.59792 51.1731 4.39361C51.1731 4.01904 51.1731 4.01564 51.0836 3.98499C50.8221 3.88625 50.3679 3.84198 50.0375 3.88284Z" fill="#3179C7"/>
<path d="M58.1587 3.88627C57.5738 3.95097 56.9544 4.18592 56.5173 4.50941C56.1492 4.78182 55.6089 5.42538 55.5263 5.68758C55.4609 5.88848 55.4403 5.68758 55.4403 4.9044V4.05312H55.0618H54.6832V10.0801V16.1072H55.0618H55.4403L55.4472 13.458L55.4575 10.8123L55.5608 10.9791C56.2421 12.0892 57.3467 12.6341 58.6233 12.4978C59.5799 12.3956 60.3335 11.9938 60.9219 11.272C61.6067 10.4275 61.9163 9.5047 61.9679 8.15629C62.0264 6.51503 61.5895 5.28918 60.681 4.54686C60.041 4.02588 59.1154 3.78071 58.1587 3.88627ZM59.0259 4.57751C59.893 4.74096 60.5778 5.35387 60.915 6.26985C61.1111 6.79765 61.1627 7.15178 61.1662 7.93496C61.1662 8.74539 61.1008 9.18127 60.891 9.77372C60.6845 10.3697 60.4263 10.7919 60.0582 11.1494C59.518 11.6772 58.9777 11.8713 58.1587 11.8407C57.794 11.827 57.677 11.8066 57.3948 11.7146C56.4933 11.4184 55.8016 10.6284 55.5401 9.59667C55.4816 9.36853 55.4644 9.16419 55.4506 8.54445C55.4231 7.41057 55.4988 6.84873 55.7672 6.24943C55.9943 5.74206 56.5104 5.14616 56.9268 4.91121C57.5084 4.58091 58.3445 4.44811 59.0259 4.57751Z" fill="#3179C7"/>
<path d="M7.37517 4.07705C7.38549 4.1111 8.11499 5.9703 8.99938 8.21087L10.6098 12.2834L10.2106 13.2061C9.78388 14.2039 9.67376 14.4014 9.38128 14.6738C8.95806 15.0721 8.4591 15.1471 7.68486 14.9292L7.60916 14.9088L7.61604 15.4978L7.62637 16.0869L7.76401 16.121C7.83971 16.138 8.14252 16.1516 8.43501 16.155C8.92362 16.155 8.99251 16.1482 9.24367 16.0631C9.6394 15.9337 9.92157 15.7567 10.2588 15.4263C10.5926 15.0994 10.8988 14.6636 11.1534 14.1494C11.2464 13.9621 12.1996 11.616 13.2697 8.93957C14.3433 6.25973 15.2277 4.06002 15.238 4.043C15.2449 4.02938 14.9421 4.02257 14.5567 4.02597L13.8616 4.03619L12.6778 7.21998C12.0275 8.97017 11.4597 10.5365 11.4184 10.7C11.3805 10.8669 11.3289 10.9996 11.3083 10.9996C11.2911 10.9996 11.2395 10.8737 11.1947 10.717C11.15 10.5638 10.627 9.05874 10.0283 7.37321C9.42947 5.68767 8.92018 4.2439 8.89269 4.16218L8.84107 4.01917H8.10123C7.41302 4.01917 7.36141 4.02257 7.37517 4.07705Z" fill="#3179C7"/>
<path d="M52.1022 8.19032V12.3275H52.4807H52.8593V8.19032V4.0531H52.4807H52.1022V8.19032Z" fill="#3179C7"/>
</svg>
