<svg width="44" height="44" viewBox="0 0 44 44" fill="none" xmlns="http://www.w3.org/2000/svg">
<path d="M40.3307 6.7584C40.3307 7.53229 40.044 8.23789 39.5734 8.77971C42.351 12.4631 44 17.0423 44 22.0001C44 34.1307 34.131 44.0002 22.0001 44.0002C9.86929 44.0002 0 34.1307 0 22.0001C0 9.86929 9.86904 0 21.9999 0C26.9577 0 31.5369 1.64896 35.22 4.42684C35.7624 3.95628 36.4675 3.66978 37.2416 3.66978C38.9472 3.66978 40.3307 5.05229 40.3307 6.7584ZM21.9999 43.26C33.7227 43.26 43.2598 33.7225 43.2593 21.9996C43.2593 17.2326 41.6823 12.828 39.0229 9.27824C38.519 9.635 37.9056 9.84653 37.2411 9.84653C35.5355 9.84653 34.1525 8.46402 34.1525 6.75815C34.1525 6.09387 34.364 5.47981 34.7208 4.97609C31.171 2.31671 26.7664 0.739745 21.9999 0.739745C10.2773 0.739745 0.739745 10.2773 0.739745 21.9999C0.739745 33.7225 10.2773 43.26 21.9999 43.26ZM22.0001 30.9822C17.0393 30.9822 13.0178 26.9607 13.0178 21.9999C13.0178 17.0391 17.0393 13.0175 22.0001 13.0175C26.9609 13.0175 30.9825 17.0391 30.9825 21.9999C30.9825 26.9607 26.9609 30.9822 22.0001 30.9822Z" fill="#4E8EF7"/>
</svg>
