<svg width="44" height="39" viewBox="0 0 44 39" fill="none" xmlns="http://www.w3.org/2000/svg">
<path d="M35.939 12.6384C35.475 12.4817 35.0109 12.3337 34.5468 12.1945C34.6242 11.8723 34.6929 11.5503 34.7617 11.2282C35.8187 6.0401 35.1227 1.87046 32.7766 0.49509C30.5164 -0.819348 26.8297 0.54732 23.1 3.83776C22.7304 4.15985 22.3695 4.49934 22.0258 4.83882C21.7938 4.6125 21.5531 4.38617 21.3125 4.16855C17.4023 0.651778 13.4836 -0.828053 11.1375 0.556025C8.88593 1.87916 8.21562 5.80507 9.16098 10.7146C9.25543 11.2021 9.3586 11.6809 9.47892 12.1684C8.9289 12.325 8.3875 12.4991 7.88046 12.6819C3.2914 14.2924 0 16.8342 0 19.463C0 22.179 3.50625 24.9036 8.27577 26.5576C8.6625 26.6881 9.04921 26.8187 9.44453 26.9318C9.31559 27.4541 9.20389 27.9678 9.10078 28.4987C8.19844 33.3299 8.90312 37.1601 11.1547 38.4745C13.475 39.8325 17.3765 38.4397 21.175 35.0709C21.4758 34.8011 21.7765 34.5225 22.0773 34.2265C22.4554 34.6008 22.8508 34.9578 23.2461 35.3059C26.9243 38.5093 30.5594 39.8064 32.8023 38.492C35.1227 37.134 35.8789 33.0165 34.8992 28.0025C34.8219 27.6195 34.736 27.2278 34.6414 26.8274C34.9164 26.749 35.1828 26.662 35.4492 26.5749C40.4078 24.9123 44 22.2225 44 19.463C44 16.8254 40.614 14.2663 35.939 12.6384ZM24.3117 5.24796C27.5086 2.42758 30.4906 1.32205 31.8484 2.1142C33.3007 2.95857 33.8593 6.37089 32.9484 10.8539C32.8883 11.1498 32.8281 11.4371 32.7508 11.7244C30.8429 11.2892 28.9093 10.9757 26.9672 10.8017C25.85 9.18257 24.6297 7.6331 23.3063 6.17938C23.6414 5.8573 23.9679 5.55263 24.3117 5.24796ZM14.3688 23.9809C14.807 24.7382 15.2539 25.4955 15.7266 26.2354C14.3859 26.0874 13.0539 25.8699 11.739 25.5826C12.1172 24.3291 12.5899 23.032 13.1398 21.7089C13.5352 22.4749 13.939 23.2323 14.3688 23.9809ZM11.7649 13.5089C13.0024 13.2303 14.3171 13.004 15.6836 12.8299C15.2282 13.5524 14.7813 14.2924 14.3602 15.041C13.939 15.7809 13.5265 16.5382 13.1398 17.3042C12.5984 16.0072 12.143 14.7363 11.7649 13.5089ZM14.1195 19.5066C14.6867 18.3053 15.3055 17.1301 15.9586 15.9724C16.6117 14.8146 17.3164 13.6917 18.0554 12.5862C19.3446 12.4904 20.6593 12.4382 22 12.4382C23.3407 12.4382 24.6641 12.4904 25.9446 12.5862C26.675 13.683 27.371 14.806 28.0328 15.9549C28.6945 17.104 29.3133 18.2792 29.8976 19.4717C29.3219 20.673 28.7031 21.8568 28.0414 23.0234C27.3883 24.1811 26.6921 25.304 25.9617 26.4182C24.6812 26.514 23.3492 26.5576 22 26.5576C20.6507 26.5576 19.3446 26.514 18.0812 26.4357C17.3335 25.3302 16.6289 24.1985 15.9672 23.0408C15.3055 21.883 14.6953 20.7079 14.1195 19.5066ZM29.6398 23.9634C30.0781 23.1975 30.4906 22.4227 30.8945 21.6393C31.4445 22.9015 31.9258 24.1811 32.3468 25.4955C31.0148 25.8002 29.6656 26.0352 28.3078 26.1919C28.7718 25.4607 29.2101 24.7121 29.6398 23.9634ZM30.8773 17.3042C30.4735 16.5382 30.061 15.7721 29.6312 15.0235C29.2101 14.2836 28.7718 13.5524 28.3163 12.8299C29.7 13.004 31.0234 13.2391 32.2609 13.5263C31.8656 14.8146 31.4015 16.0681 30.8773 17.3042ZM22.0171 7.51123C22.9195 8.50358 23.7703 9.54817 24.5609 10.6276C22.8594 10.5493 21.1492 10.5493 19.4476 10.6276C20.2899 9.50465 21.1578 8.46006 22.0171 7.51123ZM12.0484 2.17514C13.4922 1.32205 16.6976 2.54074 20.075 5.57004C20.2899 5.76155 20.5046 5.97046 20.7281 6.17938C19.3961 7.6331 18.1671 9.18257 17.0414 10.8017C15.0992 10.9757 13.1742 11.2804 11.2664 11.707C11.1547 11.2631 11.0601 10.8104 10.9657 10.3577C10.1578 6.14456 10.6906 2.96728 12.0484 2.17514ZM9.94295 25.1213C9.58199 25.0168 9.22966 24.9036 8.87734 24.7817C7.04687 24.1985 4.96718 23.2758 3.46328 22.0658C2.59531 21.4565 2.01094 20.5163 1.84766 19.463C1.84766 17.87 4.56327 15.8331 8.48203 14.449C8.97187 14.2749 9.4703 14.1182 9.96872 13.9702C10.5532 15.8592 11.2578 17.7134 12.0742 19.5066C11.2492 21.3259 10.5359 23.2061 9.94295 25.1213ZM19.9633 33.652C18.5453 34.9664 16.9039 36.011 15.1164 36.7249C14.1625 37.1862 13.0625 37.2297 12.0828 36.838C10.7164 36.0372 10.1492 32.9643 10.9226 28.8295C11.0172 28.342 11.1203 27.8545 11.2406 27.3757C13.1656 27.7936 15.1078 28.0809 17.0758 28.2289C18.2102 29.8567 19.4563 31.4149 20.7883 32.8773C20.5133 33.1471 20.2382 33.4082 19.9633 33.652ZM22.0688 31.5368C21.1922 30.5792 20.3156 29.5172 19.4648 28.3768C20.2899 28.4117 21.1406 28.429 22 28.429C22.8851 28.429 23.7531 28.4117 24.6125 28.3681C23.8218 29.4736 22.9711 30.5269 22.0688 31.5368ZM33.3008 34.1482C33.2234 35.2102 32.7078 36.2025 31.8828 36.8728C30.5164 37.6737 27.6032 36.6291 24.4578 33.8957C24.0969 33.5823 23.7359 33.2429 23.3664 32.8946C24.6812 31.4235 25.8929 29.8653 26.9929 28.2289C28.9609 28.0634 30.9203 27.7588 32.8539 27.3148C32.9398 27.6718 33.0172 28.0287 33.0859 28.3768C33.507 30.2571 33.5758 32.2157 33.3008 34.1482ZM34.8648 24.7905C34.6242 24.8688 34.3836 24.9471 34.1344 25.0168C33.5328 23.1191 32.7937 21.2649 31.9429 19.463C32.7679 17.6872 33.4641 15.8592 34.0484 13.9877C34.4953 14.1182 34.925 14.2575 35.3374 14.3968C39.3422 15.7896 42.1523 17.8614 42.1523 19.4456C42.1523 21.1518 39.1531 23.3541 34.8648 24.7905ZM22 23.4847C24.1742 23.4847 25.9359 21.7002 25.9359 19.4978C25.9359 17.2956 24.1742 15.511 22 15.511C19.8257 15.511 18.0641 17.2956 18.0641 19.4978C18.0641 21.7002 19.8257 23.4847 22 23.4847Z" fill="#56CCF2"/>
</svg>
