<svg width="44" height="38" viewBox="0 0 44 38" fill="none" xmlns="http://www.w3.org/2000/svg">
<path d="M27.12 0C46.4631 12.7409 40.1905 26.7411 40.1905 26.7411C40.1905 26.7411 45.6849 32.7424 43.4767 38C43.4767 38 41.197 34.3276 37.413 34.3276C33.7556 34.3276 31.5914 38 24.2078 38C7.7851 38 0 24.7163 0 24.7163C14.8002 34.162 24.9118 27.4686 24.9118 27.4686C18.2294 23.7283 4.05617 5.81671 4.05617 5.81671C16.4117 15.998 21.7438 18.6716 21.7438 18.6716C18.5374 16.131 9.60282 3.68057 9.60282 3.68057C16.7527 10.6807 30.9644 20.4413 30.9644 20.4413C35.0398 9.65471 27.12 0 27.12 0Z" fill="#FF5722"/>
</svg>
