<svg width="44" height="44" viewBox="0 0 44 44" fill="none" xmlns="http://www.w3.org/2000/svg">
<path d="M44 5.96564C44 2.77748 41.3973 0.192993 38.1867 0.192993C35.2552 0.192993 32.8318 2.34807 32.4325 5.14966C32.3952 5.13003 32.3736 5.11894 32.3736 5.11894C27.6195 2.98963 23.6148 6.76098 23.6148 6.76098L13.022 17.3312L17.2075 21.3337L25.7335 13.0159C29.7148 9.06232 31.8827 11.7383 31.8827 11.7383C34.8798 14.2525 31.986 17.2287 31.986 17.2287L36.275 21.3337C39.7773 17.5775 39.9804 14.2992 38.9158 11.6914C41.782 11.335 44 8.90837 44 5.96564Z" fill="#F9AE41"/>
<path d="M38.9697 32.5136C38.9894 32.4768 39.0006 32.4553 39.0006 32.4553C41.1451 27.7343 37.347 23.7578 37.347 23.7578L26.7021 13.2388L22.6716 17.3952L31.048 25.8615C35.0294 29.8151 32.3346 31.9678 32.3346 31.9678C29.8027 34.944 26.8056 32.0704 26.8056 32.0704L22.6716 36.3292C26.4541 39.807 29.7556 40.0087 32.3817 38.9516C32.7406 41.7979 35.1845 44.0004 38.1479 44.0004C41.3586 44.0004 43.9611 41.4159 43.9611 38.2278C43.9611 35.3168 41.791 32.9103 38.9697 32.5136Z" fill="#EE4035"/>
<path d="M26.7927 22.6674L18.2667 30.9849C14.2852 34.9387 12.1174 32.2629 12.1174 32.2629C9.12021 29.7486 12.0141 26.7725 12.0141 26.7725L7.72527 22.6675C4.22297 26.4235 4.01981 29.7018 5.08424 32.3097C2.21788 32.666 0 35.0925 0 38.0354C0 41.2235 2.6027 43.8079 5.81333 43.8079C8.74483 43.808 11.1683 41.6531 11.5675 38.8515C11.6048 38.8712 11.6265 38.8821 11.6265 38.8821C16.3807 41.0117 20.3852 37.24 20.3852 37.24L30.9782 26.6696L26.7927 22.6674Z" fill="#4F91CD"/>
<path d="M12.952 18.1394C8.97053 14.1857 11.665 12.0331 11.665 12.0331C14.1972 9.05687 17.1942 11.9305 17.1942 11.9305L21.3282 7.67187C17.5457 4.19408 14.2443 3.99234 11.6183 5.04932C11.2592 2.20284 8.81567 0.000488281 5.85185 0.000488281C2.6414 0.000488281 0.0388682 2.58498 0.0386963 5.77314C0.0386963 8.6843 2.20879 11.0908 5.03012 11.4872C5.01035 11.5243 4.99935 11.5458 4.99935 11.5458C2.85453 16.2666 6.65279 20.2429 6.65279 20.2429L17.2979 30.762L21.3283 26.6057L12.952 18.1394Z" fill="#7AC043"/>
</svg>
