<svg width="44" height="27" viewBox="0 0 44 27" fill="none" xmlns="http://www.w3.org/2000/svg">
<path d="M3.48101 0.0236301C1.94073 0.27342 0.73051 1.27625 0.20608 2.74193C-0.0139599 3.35539 -0.00662526 2.91826 0.00437675 11.0732L0.0153788 18.5301L0.118064 18.8791C0.327103 19.5881 0.649828 20.1538 1.14859 20.6717C1.7867 21.3366 2.66686 21.7774 3.59103 21.8913C3.7964 21.917 6.75961 21.928 12.4807 21.928H21.0586L22.9326 22.9713C23.9631 23.548 25.7088 24.5214 26.8163 25.1349C27.9202 25.752 28.8223 26.2369 28.8223 26.2112C28.8223 26.1891 28.5693 25.55 28.2576 24.7933C27.5974 23.1696 27.1317 22.0382 27.1097 21.9758C27.095 21.939 28.5179 21.928 33.7989 21.917C38.8305 21.9096 40.5468 21.895 40.6862 21.8619C41.6067 21.6415 42.3108 21.2484 42.8902 20.635C43.466 20.0252 43.8474 19.2538 43.9684 18.4567C43.9941 18.2803 44.0051 15.8743 43.9978 10.7793C43.9831 3.40682 43.9831 3.35906 43.9098 3.10192C43.7227 2.46276 43.5357 2.08072 43.1763 1.60686C42.5932 0.8281 41.7094 0.269747 40.7485 0.0713844C40.3818 -0.00208473 40.3561 -0.00208473 21.9754 0.00158882C11.8535 0.00526237 3.53236 0.016283 3.48101 0.0236301ZM19.5403 2.49214C19.973 2.62806 20.3471 2.94397 20.5268 3.33335C20.6148 3.52069 20.6258 3.58681 20.6258 3.9468V4.35088L20.3801 4.86515C19.654 6.39695 19.1332 8.45404 18.6675 11.6425C18.3374 13.8943 18.2494 14.9963 18.2384 16.9065C18.231 18.6367 18.22 18.7358 18.033 19.1142C17.6699 19.8415 16.8521 20.0105 16.0967 19.5183C15.9866 19.4448 15.7483 19.2354 15.5722 19.0518C14.0943 17.5383 12.7667 15.0588 11.8939 12.1752C11.7985 11.874 11.7142 11.6132 11.6995 11.5948C11.6848 11.5801 11.0871 12.7372 10.3719 14.1662C9.02236 16.8734 8.72531 17.4391 8.32924 18.0526C7.50408 19.3383 6.71927 19.9444 6.1435 19.7497C5.61174 19.566 5.25234 18.9636 4.77192 17.4281C4.06045 15.1543 3.35999 11.8776 2.52384 6.90388C2.19378 4.95698 2.15344 4.5272 2.25246 4.21863C2.38815 3.79252 2.70354 3.43988 3.0666 3.30396C3.73773 3.05417 4.45286 3.15703 4.81593 3.5611C5.10198 3.88068 5.11298 3.91374 5.4247 5.93043C5.83544 8.56057 6.35254 11.2348 6.8623 13.3874C6.92098 13.6482 6.98332 13.876 6.99799 13.8907C7.00899 13.9053 7.90016 12.234 8.97835 10.1805C10.0529 8.12711 11.0101 6.3345 11.0981 6.19859C11.4061 5.72472 11.7985 5.47126 12.2606 5.44187C12.752 5.41248 13.1078 5.58146 13.3682 5.97451C13.5552 6.25736 13.6542 6.5696 13.8229 7.39244C14.076 8.65975 14.2887 9.54137 14.593 10.592C14.7911 11.2789 15.2018 12.5095 15.3302 12.7997L15.4109 12.9833L15.4952 12.2486C15.9536 8.31813 16.6614 5.40881 17.6186 3.52436C17.8827 3.01009 18.0697 2.76765 18.3264 2.61704C18.6675 2.415 19.1405 2.36725 19.5403 2.49214ZM26.8603 4.4574C28.0448 4.72189 28.9543 5.328 29.5741 6.26103C30.0802 7.02143 30.4066 7.91773 30.5533 8.9426C30.6267 9.44218 30.612 10.8932 30.5313 11.4405C30.3699 12.5646 30.0839 13.4866 29.6108 14.4343C28.6536 16.3555 27.4581 17.4355 25.9251 17.7624C25.441 17.8653 24.5572 17.8579 24.0548 17.7477C22.6209 17.4244 21.6673 16.6677 20.9999 15.3306C20.2371 13.8062 20.1014 11.6719 20.6258 9.60381C21.0806 7.82222 22.1441 6.08839 23.3176 5.21779C23.8457 4.82841 24.6049 4.50148 25.21 4.40965C25.5291 4.35822 26.5522 4.38761 26.8603 4.4574ZM38.2474 4.50883C39.1092 4.72923 39.6446 5.02678 40.2131 5.59615C41.0676 6.44838 41.603 7.64223 41.7717 9.08219C41.8267 9.56708 41.7937 11.0585 41.7167 11.5691C41.6323 12.1054 41.4233 12.9429 41.2473 13.4241C41.1666 13.6445 40.9722 14.0927 40.8145 14.4159C39.8207 16.44 38.5334 17.5493 36.8905 17.7991C35.8233 17.9571 34.6167 17.7073 33.7329 17.1342C33.3918 16.9138 32.7794 16.3004 32.5447 15.9477C31.8479 14.8788 31.5215 13.6592 31.5215 12.1017C31.5252 10.4487 31.8369 9.11158 32.5483 7.70835C33.3992 6.03329 34.5287 4.94229 35.8159 4.55291C36.3147 4.4023 36.5787 4.36924 37.2205 4.38394C37.7486 4.39496 37.8806 4.41332 38.2474 4.50883Z" fill="#7F54B3"/>
</svg>
