<svg width="44" height="44" viewBox="0 0 44 44" fill="none" xmlns="http://www.w3.org/2000/svg">
<path d="M20.0802 0.0848885C10.9624 0.895176 3.21011 7.34222 0.805133 16.1056C-0.251999 19.9545 -0.269618 23.9178 0.761086 27.7403C2.77845 35.253 8.75124 41.2245 16.2657 43.2414C21.8949 44.7563 27.8941 43.9812 32.8979 41.1188C37.9986 38.1859 41.7338 33.3594 43.2402 27.7403C44.2533 23.9795 44.2533 20.0338 43.2402 16.273C41.2052 8.67215 35.1267 2.65667 27.5065 0.71022C25.0311 0.0760841 22.5292 -0.135296 20.0802 0.0848885ZM24.9077 2.41006C28.5813 2.97373 32.0346 4.54146 34.8536 6.93708L35.3205 7.33342L34.7127 7.43911C33.9198 7.57122 33.3296 7.87948 32.8098 8.43435C32.0258 9.27105 31.6822 10.3808 31.8584 11.517C32.017 12.5562 32.1755 12.8821 33.8405 15.7533C34.7743 17.3739 35.2412 18.7919 35.3557 20.3772C35.4615 21.8833 35.25 22.9138 33.8934 27.3792C33.4177 28.9557 32.7658 31.0959 32.4574 32.1352C32.1403 33.1745 31.8584 33.9671 31.832 33.8967C31.6382 33.3858 24.7316 12.7324 24.7492 12.7148C24.7668 12.706 25.313 12.6619 25.9649 12.6091C26.6168 12.5562 27.2246 12.4858 27.3127 12.4505C27.5153 12.3713 27.7268 11.9573 27.7268 11.6579C27.7268 11.517 27.6211 11.3144 27.4537 11.1558C27.1982 10.8916 27.1718 10.8828 26.5551 10.9445C23.5951 11.1999 20.4061 11.2175 17.499 10.9973C16.8559 10.9445 16.2128 10.9269 16.0719 10.9621C15.5521 11.0766 15.3671 11.8869 15.7636 12.292C15.9574 12.4858 16.1071 12.5122 17.1554 12.6091L18.3359 12.7148L19.8776 16.9335L21.4192 21.1523L19.2609 27.617C18.0804 31.1664 17.0938 34.0728 17.0674 34.0728C17.0145 34.0728 9.91409 12.9261 9.9229 12.8028C9.9229 12.75 10.2753 12.6883 10.6981 12.6531C12.1429 12.5474 12.4072 12.4946 12.6274 12.2744C12.8653 12.0366 12.9093 11.4993 12.7243 11.2527C12.4688 10.918 12.2662 10.8916 10.9184 10.9973C10.2048 11.0502 8.69839 11.1206 7.57078 11.147C5.9058 11.1911 5.52699 11.1823 5.52699 11.0854C5.52699 10.8652 6.80436 9.27105 7.80863 8.23178C11.2531 4.69999 15.3055 2.78878 20.459 2.24271C21.1814 2.17226 24.018 2.27794 24.9077 2.41006ZM39.7428 13.1728C40.5885 14.8726 41.2933 17.1449 41.6104 19.1882C41.8307 20.5886 41.8307 23.4246 41.6104 24.825C41.2933 26.8859 40.5885 29.1407 39.7252 30.8581C38.2276 33.8614 35.6729 36.7063 32.8098 38.5999C32.3782 38.8817 32.017 39.0931 31.9993 39.0755C31.9817 39.0578 33.356 35.0416 35.0474 30.1535C36.7476 25.2566 38.2717 20.8617 38.439 20.3772C38.8355 19.2235 39.1526 17.9728 39.3288 16.8719C39.4697 15.9295 39.5226 13.3753 39.4081 12.8645C39.3024 12.4241 39.4169 12.5298 39.7428 13.1728ZM8.4341 26.2782C10.8655 32.9631 12.9798 38.7408 13.1119 39.1283C13.4202 39.9386 13.4731 39.9386 12.1253 39.1723C9.60576 37.7367 7.15674 35.4292 5.48294 32.9279C4.30248 31.1576 3.35106 29.0174 2.8313 26.9828C2.35559 25.0892 2.23226 24.0499 2.23226 22.0066C2.22345 19.9633 2.35559 18.9064 2.84011 17.0304C3.16606 15.7533 3.83558 13.939 3.93248 14.0535C3.97653 14.0887 5.99389 19.5934 8.4341 26.2782ZM25.4716 32.2673C27.163 36.9 28.5284 40.696 28.5108 40.7224C28.4227 40.8017 26.4758 41.3125 25.6125 41.4711C23.0842 41.9467 20.6704 41.9291 18.1685 41.427C16.8119 41.154 16.4507 41.0483 16.4507 40.925C16.4507 40.7577 22.2913 23.8562 22.353 23.8562C22.3794 23.8562 23.789 27.6434 25.4716 32.2673Z" fill="#003C56"/>
</svg>
